# Blender 4.4.3
# www.blender.org
mtllib bead_reed.mtl
o bead_reed_body
v 0.072621 0.000064 -0.000001
v 0.051351 0.000000 -0.051346
v 0.000000 0.000000 -0.072613
v -0.051351 0.000000 -0.051345
v -0.072621 0.000000 0.000001
v -0.051351 0.000709 0.051346
v -0.000000 0.001067 0.072613
v 0.051351 0.000800 0.051345
v 0.073702 0.265383 -0.007527
v 0.052648 0.263565 -0.058330
v 0.001819 0.263391 -0.079397
v -0.049010 0.264962 -0.058388
v -0.070064 0.267357 -0.007609
v -0.049010 0.269174 0.043193
v 0.001819 0.269348 0.064260
v 0.052648 0.267778 0.043251
v 0.078478 0.531026 -0.021263
v 0.057509 0.528437 -0.071836
v 0.006887 0.528368 -0.092846
v -0.043735 0.530860 -0.071985
v -0.064704 0.534453 -0.021473
v -0.043735 0.537042 0.029100
v 0.006887 0.537111 0.050109
v 0.057509 0.534619 0.029248
v 0.086229 0.796659 -0.039162
v 0.065261 0.793696 -0.089730
v 0.014642 0.793905 -0.110780
v -0.035977 0.797162 -0.089982
v -0.056944 0.801560 -0.039519
v -0.035977 0.804522 0.011048
v 0.014642 0.804314 0.032099
v 0.065261 0.801057 0.011301
v 0.096728 1.062294 -0.059586
v 0.075805 1.059168 -0.110063
v 0.025290 1.059739 -0.131122
v -0.025225 1.063672 -0.110426
v -0.046149 1.068664 -0.060099
v -0.025225 1.071790 -0.009622
v 0.025290 1.071219 0.011437
v 0.075805 1.067286 -0.009259
v 0.108842 1.328127 -0.081783
v 0.088201 1.324922 -0.131596
v 0.038367 1.325775 -0.152417
v -0.011466 1.330186 -0.132050
v -0.032108 1.335571 -0.082426
v -0.011466 1.338775 -0.032614
v 0.038367 1.337922 -0.011793
v 0.088201 1.333512 -0.032159
v 0.122210 1.594067 -0.105493
v 0.102112 1.590807 -0.154010
v 0.053591 1.591889 -0.174331
v 0.005069 1.596678 -0.154553
v -0.015029 1.602371 -0.106260
v 0.005069 1.605631 -0.057743
v 0.053591 1.604549 -0.037422
v 0.102112 1.599759 -0.057201
v 0.137204 1.860088 -0.130879
v 0.117767 1.856763 -0.177812
v 0.070844 1.858022 -0.197514
v 0.023920 1.863127 -0.178444
v 0.004483 1.869088 -0.131771
v 0.023920 1.872413 -0.084838
v 0.070844 1.871155 -0.065136
v 0.117767 1.866050 -0.084207
v 0.154552 2.126135 -0.158448
v 0.135658 2.122598 -0.204075
v 0.090046 2.123959 -0.223282
v 0.044433 2.129420 -0.204817
v 0.025540 2.135782 -0.159498
v 0.044433 2.139318 -0.113872
v 0.090046 2.137957 -0.094665
v 0.135658 2.132496 -0.113129
v 0.174138 2.392200 -0.189034
v 0.155684 2.388286 -0.233590
v 0.111131 2.389668 -0.252413
v 0.066578 2.395537 -0.234475
v 0.048124 2.402456 -0.190286
v 0.066578 2.406370 -0.145729
v 0.111131 2.404988 -0.126907
v 0.155684 2.399118 -0.144844
v 0.195552 2.658306 -0.223653
v 0.177537 2.653842 -0.267118
v 0.134043 2.655151 -0.285563
v 0.090548 2.661467 -0.268184
v 0.072533 2.669090 -0.225160
v 0.090548 2.673554 -0.181696
v 0.134043 2.672244 -0.163251
v 0.177537 2.665928 -0.180630
v 0.218518 2.924480 -0.263613
v 0.201004 2.919324 -0.305802
v 0.158723 2.920461 -0.323807
v 0.116443 2.927226 -0.307082
v 0.098929 2.935655 -0.265424
v 0.116443 2.940811 -0.223236
v 0.158723 2.939674 -0.205230
v 0.201004 2.932909 -0.221955
v 0.242863 3.190708 -0.308940
v 0.225946 3.185388 -0.349678
v 0.185105 3.186540 -0.367132
v 0.144263 3.193491 -0.351079
v 0.127346 3.202167 -0.310923
v 0.144263 3.207487 -0.270186
v 0.185105 3.206334 -0.252731
v 0.225946 3.199384 -0.268784
v 0.268735 3.456953 -0.355063
v 0.252445 3.451912 -0.394331
v 0.213117 3.453254 -0.411191
v 0.173788 3.460192 -0.395766
v 0.157498 3.468662 -0.357093
v 0.173788 3.473702 -0.317825
v 0.213117 3.472360 -0.300965
v 0.252445 3.465422 -0.316389
v 0.297469 3.722958 -0.401056
v 0.281625 3.718237 -0.439320
v 0.243375 3.719924 -0.455797
v 0.205125 3.727031 -0.440836
v 0.189281 3.735395 -0.403200
v 0.205125 3.740117 -0.364936
v 0.243375 3.738429 -0.348459
v 0.281625 3.731322 -0.363420
v 0.329407 3.988994 -0.446789
v 0.313780 3.984493 -0.484590
v 0.276054 3.986467 -0.500906
v 0.238328 3.993759 -0.486178
v 0.222701 4.002099 -0.449035
v 0.238328 4.006600 -0.411234
v 0.276054 4.004626 -0.394918
v 0.313780 3.997334 -0.409646
v 0.363613 4.255122 -0.492372
v 0.348054 4.250699 -0.530044
v 0.310493 4.252847 -0.546332
v 0.272931 4.260308 -0.531695
v 0.257373 4.268711 -0.494707
v 0.272931 4.273134 -0.457035
v 0.310493 4.270986 -0.440747
v 0.348054 4.263525 -0.455384
v 0.000000 0.000000 0.000000
v 0.310493 4.261916 -0.493539
v 0.036589 1.382070 -0.254178
v 0.036589 1.298104 -0.280304
v 0.036589 1.214329 -0.253780
v 0.183143 2.155509 -0.144683
v 0.257073 2.087483 -0.144683
v 0.281423 1.996382 -0.144683
v 0.087403 1.444410 -0.167216
v 0.124374 1.382356 -0.231252
v 0.137507 1.298104 -0.253999
v 0.124066 1.214147 -0.230719
v 0.087495 1.151531 -0.167376
v 0.251995 1.907896 -0.144683
v 0.178821 1.843930 -0.144683
v 0.124813 1.444763 -0.130140
v 0.189406 1.382783 -0.167433
v 0.212743 1.298104 -0.180907
v 0.189118 1.213585 -0.167267
v 0.124885 1.151326 -0.130182
v 0.256905 2.919697 -0.233631
v 0.344178 2.839779 -0.233631
v 0.138408 1.444687 -0.079204
v 0.212827 1.382677 -0.079204
v 0.239517 1.298104 -0.079204
v 0.212196 1.213834 -0.079204
v 0.138242 1.151761 -0.079204
v 0.165944 1.843308 -0.194242
v 0.229303 1.907696 -0.230822
v 0.124681 1.444544 -0.028344
v 0.188790 1.382441 0.008669
v 0.210817 1.298104 0.021387
v 0.186795 1.214872 0.007517
v 0.123975 1.152838 -0.028752
v 0.254413 1.996382 -0.245320
v 0.233415 2.087513 -0.233196
v 0.087369 1.444314 0.008750
v 0.124341 1.382325 0.072788
v 0.136564 1.298104 0.093958
v 0.122429 1.215718 0.069475
v 0.086644 1.153983 0.007493
v 0.169410 2.155636 -0.196243
v 0.376212 2.728536 -0.233631
v 0.036589 1.443740 0.021958
v 0.036589 1.381736 0.095074
v 0.036589 1.298104 0.119279
v 0.036589 1.216289 0.091288
v 0.036589 1.154809 0.020332
v 0.344612 2.617056 -0.233631
v 0.036589 1.466258 -0.079204
v -0.013740 1.443015 0.007968
v -0.049683 1.380904 0.070223
v -0.061731 1.298104 0.091091
v -0.048368 1.216566 0.067946
v -0.013106 1.155019 0.006870
v 0.131726 2.155824 -0.234092
v 0.169044 2.087952 -0.298730
v -0.050286 1.442520 -0.029047
v -0.112420 1.380672 0.006826
v -0.134175 1.298104 0.019386
v -0.111610 1.215985 0.006358
v -0.049833 1.154442 -0.029309
v 0.036589 1.129643 -0.079204
v 0.181559 1.996382 -0.320405
v -0.063646 1.442406 -0.079204
v -0.136486 1.381159 -0.079204
v -0.164016 1.298104 -0.079204
v -0.137475 1.214575 -0.079204
v -0.063967 1.153341 -0.079204
v 0.167046 1.906871 -0.295268
v 0.129972 1.842358 -0.231055
v -0.050387 1.442688 -0.129420
v -0.114334 1.381733 -0.166340
v -0.139301 1.298104 -0.180754
v -0.115927 1.213593 -0.167259
v -0.051055 1.152410 -0.129805
v 0.258108 2.535410 -0.233631
v 0.359466 3.870328 -0.396862
v -0.013840 1.443303 -0.166550
v -0.050872 1.382045 -0.230691
v -0.064694 1.298104 -0.254631
v -0.051315 1.213738 -0.231458
v -0.014177 1.151936 -0.167133
v 0.448910 3.798637 -0.396862
v 0.242265 2.535417 -0.292738
v 0.036589 1.443895 -0.180474
v 0.317229 2.617028 -0.336018
v 0.344631 2.728536 -0.351839
v 0.316257 2.839433 -0.335457
v 0.036589 1.151787 -0.180839
v 0.240549 2.918416 -0.291747
v 0.169362 2.155551 -0.093151
v 0.233671 2.087666 -0.056022
v 0.254430 1.996382 -0.044037
v 0.228585 1.908123 -0.058958
v 0.165460 1.844172 -0.095403
v 0.481027 3.698651 -0.396862
v 0.444577 3.600736 -0.396862
v 0.131619 2.155495 -0.055458
v 0.168344 2.087230 0.008150
v 0.179957 1.996382 0.028265
v 0.165483 1.908480 0.003196
v 0.129467 1.843917 -0.059186
v 0.197658 2.917285 -0.333692
v 0.241308 2.838990 -0.409296
v 0.080105 2.155413 -0.041708
v 0.080105 2.087007 0.031360
v 0.080105 1.996382 0.054986
v 0.080105 1.908112 0.026788
v 0.080105 1.843332 -0.045580
v 0.257937 2.728536 -0.438098
v 0.242188 2.617123 -0.410820
v 0.028595 2.155483 -0.055465
v -0.008334 2.087437 0.008498
v -0.020946 1.996382 0.030343
v -0.006697 1.907013 0.005663
v 0.030308 1.842571 -0.058431
v 0.198942 2.535593 -0.335915
v 0.356615 3.531063 -0.396862
v -0.008957 2.155205 -0.093263
v -0.073550 2.087719 -0.055970
v -0.096902 1.996382 -0.042488
v -0.071804 1.906084 -0.056978
v -0.006408 1.842105 -0.094734
v 0.080105 1.819156 -0.144683
v -0.022424 2.154725 -0.144683
v -0.095939 2.087008 -0.144683
v -0.122841 1.996382 -0.144683
v -0.094839 1.906323 -0.144683
v -0.019912 1.841920 -0.144683
v 0.139888 2.536108 -0.351424
v 0.139888 2.617845 -0.436905
v -0.008702 2.154750 -0.195956
v -0.072161 2.086893 -0.232594
v -0.094790 1.996382 -0.245659
v -0.071144 1.906476 -0.232007
v -0.006681 1.841619 -0.194789
v 0.139888 2.728536 -0.468377
v 0.139888 2.838518 -0.435604
v 0.028668 2.155258 -0.233775
v -0.008484 2.087591 -0.298124
v -0.021510 1.996382 -0.320686
v -0.007571 1.906113 -0.296543
v 0.029912 1.841348 -0.231621
v 0.080105 2.180383 -0.144683
v 0.080105 2.155740 -0.247869
v 0.080105 2.088175 -0.322995
v 0.080105 1.996382 -0.349046
v 0.080105 1.906032 -0.320194
v 0.080105 1.841556 -0.244936
v 0.341108 3.530818 -0.455373
v 0.241941 2.921042 -0.174710
v 0.318056 2.840564 -0.130765
v 0.344831 2.728536 -0.115306
v 0.316810 2.617290 -0.131485
v 0.242232 2.535480 -0.174542
v 0.416385 3.601151 -0.498834
v 0.445712 3.698651 -0.515766
v 0.199004 2.921683 -0.131238
v 0.243188 2.841037 -0.054710
v 0.258259 2.728536 -0.028606
v 0.241865 2.617474 -0.057001
v 0.199040 2.535271 -0.131176
v 0.417520 3.796777 -0.499490
v 0.342185 3.868267 -0.455995
v 0.139888 2.920436 -0.116161
v 0.139888 2.840020 -0.028900
v 0.139888 2.728536 0.002399
v 0.139888 2.617062 -0.028919
v 0.139888 2.534256 -0.114705
v 0.081992 2.917696 -0.133352
v 0.039135 2.838263 -0.059122
v 0.021618 2.728536 -0.028782
v 0.035839 2.615218 -0.053412
v 0.079877 2.532467 -0.129689
v 0.298537 3.867235 -0.498659
v 0.341302 3.795735 -0.572729
v 0.040745 2.915553 -0.176391
v -0.032818 2.837129 -0.133919
v -0.064472 2.728536 -0.115644
v -0.041039 2.614773 -0.129172
v 0.035671 2.531947 -0.173461
v 0.139888 2.504640 -0.233631
v 0.357180 3.698651 -0.600231
v 0.025741 2.915008 -0.233631
v -0.059499 2.837109 -0.233631
v -0.093454 2.728536 -0.233631
v -0.065479 2.616705 -0.233631
v 0.020411 2.533357 -0.233631
v 0.341409 3.601465 -0.572915
v 0.298445 3.530330 -0.498500
v 0.040820 2.915411 -0.290828
v -0.033478 2.837544 -0.333723
v -0.060969 2.728536 -0.349596
v -0.035426 2.618302 -0.334848
v 0.037395 2.535200 -0.292805
v 0.082526 2.915950 -0.332984
v 0.039369 2.838009 -0.407735
v 0.023579 2.728536 -0.435084
v 0.038941 2.618597 -0.408475
v 0.081016 2.536189 -0.335599
v 0.239765 3.529767 -0.514616
v 0.139888 2.946310 -0.233631
v 0.139888 2.916489 -0.348684
v 0.239765 3.601105 -0.600904
v 0.239765 3.698651 -0.632054
v 0.239765 3.795949 -0.600384
v 0.344593 3.872256 -0.336340
v 0.423285 3.799959 -0.290907
v 0.449934 3.698651 -0.275521
v 0.417385 3.600600 -0.294313
v 0.341032 3.530944 -0.338396
v 0.300603 3.873162 -0.291487
v 0.345734 3.799973 -0.213319
v 0.360212 3.698651 -0.188242
v 0.342001 3.600899 -0.219784
v 0.298432 3.530369 -0.295248
v 0.239765 3.873087 -0.275238
v 0.239765 3.798853 -0.187266
v 0.239765 3.698651 -0.159955
v 0.239765 3.601281 -0.193189
v 0.239765 3.529449 -0.278887
v 0.179011 3.872920 -0.291633
v 0.135476 3.798366 -0.216228
v 0.121725 3.698651 -0.192411
v 0.137567 3.600935 -0.219850
v 0.180535 3.528756 -0.294274
v 0.134524 3.872938 -0.336102
v 0.058540 3.798692 -0.292233
v 0.033571 3.698651 -0.277816
v 0.061910 3.600470 -0.294178
v 0.137257 3.528890 -0.337680
v 0.239765 3.503545 -0.396862
v 0.118564 3.872478 -0.396863
v 0.028870 3.799474 -0.396863
v -0.000938 3.698651 -0.396863
v 0.034441 3.600492 -0.396863
v 0.121815 3.529485 -0.396863
v 0.135652 3.871071 -0.456972
v 0.057819 3.799091 -0.501909
v 0.031538 3.698651 -0.517082
v 0.062718 3.600916 -0.499081
v 0.137848 3.529869 -0.455704
v 0.180340 3.869106 -0.499789
v 0.136630 3.797263 -0.575498
v 0.120911 3.698651 -0.602724
v 0.137510 3.600881 -0.573973
v 0.180853 3.529668 -0.498900
v 0.239765 3.897090 -0.396862
v 0.239765 3.867641 -0.514690
vn 0.7742 -0.6329 0.0088
vn 0.5463 -0.6387 -0.5419
vn -0.0013 -0.6399 -0.7685
vn -0.5496 -0.6349 -0.5430
vn -0.7781 -0.6281 0.0084
vn -0.5518 -0.6160 0.5622
vn -0.0009 -0.6125 0.7905
vn 0.5490 -0.6189 0.5617
vn 0.9999 -0.0109 0.0033
vn 0.7078 -0.0356 -0.7055
vn -0.0014 -0.0382 -0.9993
vn -0.7092 -0.0172 -0.7048
vn -0.9999 0.0149 0.0022
vn -0.7064 0.0393 0.7068
vn -0.0015 0.0420 0.9991
vn 0.7049 0.0212 0.7090
vn 0.9997 -0.0234 0.0033
vn 0.7073 -0.0585 -0.7045
vn -0.0012 -0.0590 -0.9983
vn -0.7084 -0.0245 -0.7054
vn -0.9997 0.0246 0.0004
vn -0.7066 0.0595 0.7051
vn -0.0012 0.0600 0.9982
vn 0.7053 0.0257 0.7084
vn 0.9994 -0.0341 0.0036
vn 0.7066 -0.0750 -0.7036
vn -0.0013 -0.0718 -0.9974
vn -0.7079 -0.0263 -0.7058
vn -0.9994 0.0346 -0.0014
vn -0.7068 0.0754 0.7034
vn -0.0013 0.0723 0.9974
vn 0.7055 0.0270 0.7082
vn 0.9991 -0.0422 0.0042
vn 0.7064 -0.0859 -0.7026
vn -0.0010 -0.0780 -0.9970
vn -0.7073 -0.0232 -0.7066
vn -0.9989 0.0462 -0.0029
vn -0.7065 0.0898 0.7020
vn -0.0010 0.0820 0.9966
vn 0.7055 0.0274 0.7081
vn 0.9989 -0.0475 0.0048
vn 0.7062 -0.0930 -0.7018
vn -0.0007 -0.0809 -0.9967
vn -0.7067 -0.0184 -0.7073
vn -0.9983 0.0579 -0.0043
vn -0.7060 0.1032 0.7007
vn -0.0007 0.0913 0.9958
vn 0.7056 0.0289 0.7081
vn 0.9986 -0.0527 0.0056
vn 0.7062 -0.1002 -0.7009
vn -0.0004 -0.0844 -0.9964
vn -0.7062 -0.0147 -0.7079
vn -0.9977 0.0679 -0.0055
vn -0.7054 0.1152 0.6994
vn -0.0005 0.0996 0.9950
vn 0.7054 0.0300 0.7082
vn 0.9982 -0.0600 0.0070
vn 0.7060 -0.1104 -0.6995
vn -0.0004 -0.0916 -0.9958
vn -0.7059 -0.0147 -0.7081
vn -0.9971 0.0752 -0.0065
vn -0.7049 0.1254 0.6982
vn -0.0003 0.1067 0.9943
vn 0.7051 0.0300 0.7085
vn 0.9976 -0.0683 0.0088
vn 0.7058 -0.1236 -0.6976
vn -0.0004 -0.1027 -0.9947
vn -0.7058 -0.0180 -0.7082
vn -0.9967 0.0807 -0.0074
vn -0.7044 0.1357 0.6967
vn -0.0003 0.1149 0.9934
vn 0.7045 0.0305 0.7091
vn 0.9971 -0.0755 0.0110
vn 0.7056 -0.1381 -0.6950
vn -0.0004 -0.1164 -0.9932
vn -0.7057 -0.0231 -0.7082
vn -0.9962 0.0868 -0.0087
vn -0.7038 0.1489 0.6946
vn -0.0003 0.1273 0.9919
vn 0.7039 0.0345 0.7095
vn 0.9966 -0.0812 0.0138
vn 0.7056 -0.1543 -0.6916
vn -0.0003 -0.1333 -0.9911
vn -0.7055 -0.0306 -0.7081
vn -0.9956 0.0932 -0.0106
vn -0.7030 0.1658 0.6916
vn -0.0002 0.1449 0.9894
vn 0.7033 0.0428 0.7096
vn 0.9962 -0.0858 0.0163
vn 0.7055 -0.1709 -0.6878
vn 0.0001 -0.1516 -0.9884
vn -0.7047 -0.0392 -0.7084
vn -0.9949 0.1001 -0.0138
vn -0.7026 0.1846 0.6872
vn -0.0002 0.1653 0.9862
vn 0.7030 0.0535 0.7092
vn 0.9957 -0.0912 0.0161
vn 0.7042 -0.1821 -0.6863
vn 0.0002 -0.1619 -0.9868
vn -0.7032 -0.0424 -0.7097
vn -0.9942 0.1062 -0.0180
vn -0.7030 0.1970 0.6833
vn -0.0000 0.1769 0.9842
vn 0.7037 0.0576 0.7082
vn 0.9949 -0.0991 0.0171
vn 0.7032 -0.1888 -0.6854
vn -0.0003 -0.1640 -0.9865
vn -0.7028 -0.0393 -0.7103
vn -0.9935 0.1120 -0.0195
vn -0.7029 0.2017 0.6822
vn -0.0003 0.1771 0.9842
vn 0.7032 0.0525 0.7090
vn 0.9937 -0.1101 0.0189
vn 0.7022 -0.1968 -0.6842
vn -0.0006 -0.1658 -0.9862
vn -0.7024 -0.0355 -0.7109
vn -0.9928 0.1178 -0.0204
vn -0.7025 0.2046 0.6817
vn -0.0006 0.1739 0.9848
vn 0.7023 0.0436 0.7105
vn 0.9926 -0.1199 0.0205
vn 0.7015 -0.2039 -0.6829
vn -0.0006 -0.1674 -0.9859
vn -0.7019 -0.0320 -0.7116
vn -0.9922 0.1230 -0.0212
vn -0.7019 0.2071 0.6815
vn -0.0005 0.1708 0.9853
vn 0.7016 0.0354 0.7117
vn 0.8503 0.5188 -0.0890
vn 0.6249 0.4546 -0.6347
vn 0.0807 0.4851 -0.8707
vn -0.4637 0.5925 -0.6587
vn -0.6894 0.7140 -0.1226
vn -0.4638 0.7782 0.4234
vn 0.0807 0.7476 0.6593
vn 0.6249 0.6401 0.4469
vn 0.0004 -1.0000 0.0073
vn 0.1287 0.9774 -0.1679
vn -0.0049 0.5341 -0.8454
vn 0.0019 -0.0009 -1.0000
vn 0.0038 -0.5329 -0.8462
vn 0.5024 0.8647 0.0006
vn 0.8673 0.4978 -0.0010
vn 0.9996 -0.0292 0.0005
vn 0.2271 0.8826 -0.4116
vn 0.4155 0.5339 -0.7364
vn 0.4916 -0.0032 -0.8708
vn 0.4152 -0.5338 -0.7367
vn 0.2333 -0.8798 -0.4141
vn 0.8455 -0.5339 0.0041
vn 0.4942 -0.8693 0.0083
vn 0.4029 0.8842 -0.2365
vn 0.7282 0.5375 -0.4252
vn 0.8636 -0.0020 -0.5041
vn 0.7279 -0.5382 -0.4249
vn 0.4076 -0.8824 -0.2348
vn 0.4972 0.8673 -0.0235
vn 0.8616 0.5075 -0.0097
vn 0.4681 0.8837 0.0029
vn 0.8445 0.5355 0.0057
vn 0.9999 -0.0045 0.0110
vn 0.8427 -0.5382 0.0158
vn 0.4715 -0.8817 0.0173
vn 0.4353 -0.8703 -0.2303
vn 0.7398 -0.5315 -0.4126
vn 0.4049 0.8828 0.2382
vn 0.7322 0.5289 0.4291
vn 0.8593 -0.0138 0.5113
vn 0.7194 -0.5375 0.4399
vn 0.4030 -0.8772 0.2611
vn 0.8696 -0.0261 -0.4931
vn 0.7536 0.4979 -0.4292
vn 0.2273 0.8822 0.4124
vn 0.4182 0.5251 0.7412
vn 0.4903 -0.0219 0.8713
vn 0.4071 -0.5396 0.7369
vn 0.2241 -0.8735 0.4322
vn 0.4365 0.8648 -0.2480
vn 1.0000 0.0020 -0.0009
vn -0.0155 0.8792 0.4761
vn -0.0165 0.5231 0.8521
vn -0.0151 -0.0228 0.9996
vn -0.0125 -0.5384 0.8426
vn -0.0125 -0.8706 0.4918
vn 0.8660 -0.5001 0.0024
vn -0.0127 0.9999 0.0012
vn -0.2527 0.8758 0.4113
vn -0.4380 0.5202 0.7332
vn -0.5055 -0.0164 0.8626
vn -0.4215 -0.5320 0.7344
vn -0.2433 -0.8694 0.4301
vn 0.2512 0.8668 -0.4309
vn 0.4389 0.5029 -0.7446
vn -0.4233 0.8746 0.2362
vn -0.7352 0.5251 0.4287
vn -0.8573 -0.0040 0.5148
vn -0.7214 -0.5313 0.4442
vn -0.4136 -0.8721 0.2616
vn -0.0084 -0.9998 0.0174
vn 0.5108 -0.0214 -0.8594
vn -0.4809 0.8768 0.0044
vn -0.8418 0.5395 0.0156
vn -0.9996 0.0071 0.0256
vn -0.8426 -0.5378 0.0282
vn -0.4769 -0.8786 0.0250
vn 0.4383 -0.5318 -0.7246
vn 0.2596 -0.8742 -0.4103
vn -0.4166 0.8803 -0.2271
vn -0.7301 0.5469 -0.4096
vn -0.8702 0.0108 -0.4925
vn -0.7327 -0.5416 -0.4120
vn -0.4136 -0.8828 -0.2226
vn 0.5150 -0.8572 0.0011
vn 0.4617 0.8862 -0.0383
vn -0.2453 0.8814 -0.4037
vn -0.4218 0.5418 -0.7270
vn -0.4938 0.0066 -0.8695
vn -0.4146 -0.5385 -0.7335
vn -0.2398 -0.8814 -0.4069
vn 0.8393 0.5428 -0.0301
vn 0.4447 -0.8575 -0.2587
vn -0.0128 0.8812 -0.4726
vn 0.7494 -0.5004 -0.4336
vn 0.8652 0.0058 -0.5013
vn 0.7396 0.5134 -0.4352
vn -0.0047 -0.8790 -0.4769
vn 0.4221 0.8662 -0.2673
vn 0.4340 0.8650 0.2518
vn 0.7497 0.4969 0.4370
vn 0.8622 -0.0325 0.5055
vn 0.7283 -0.5348 0.4285
vn 0.4290 -0.8680 0.2502
vn 0.9996 -0.0210 -0.0187
vn 0.8245 -0.5658 -0.0085
vn 0.2507 0.8631 0.4383
vn 0.4293 0.4920 0.7574
vn 0.4940 -0.0320 0.8689
vn 0.4244 -0.5282 0.7355
vn 0.2580 -0.8665 0.4273
vn 0.2360 0.8654 -0.4420
vn 0.4209 0.5166 -0.7456
vn -0.0001 0.8622 0.5066
vn 0.0028 0.4923 0.8704
vn 0.0107 -0.0251 0.9996
vn 0.0166 -0.5253 0.8507
vn 0.0147 -0.8683 0.4958
vn 0.4942 0.0077 -0.8693
vn 0.4264 -0.5000 -0.7538
vn -0.2526 0.8640 0.4355
vn -0.4246 0.5014 0.7538
vn -0.4831 -0.0165 0.8754
vn -0.4045 -0.5308 0.7448
vn -0.2304 -0.8730 0.4299
vn 0.2517 -0.8568 -0.4500
vn 0.4654 -0.8851 -0.0010
vn -0.4378 0.8652 0.2444
vn -0.7456 0.5113 0.4274
vn -0.8643 -0.0108 0.5028
vn -0.7284 -0.5349 0.4281
vn -0.4123 -0.8770 0.2468
vn 0.0118 -0.9999 0.0089
vn -0.5058 0.8626 -0.0056
vn -0.8604 0.5095 -0.0095
vn -0.9999 -0.0070 -0.0099
vn -0.8486 -0.5290 -0.0048
vn -0.4821 -0.8761 0.0039
vn -0.0077 -0.8532 -0.5215
vn -0.0135 -0.4975 -0.8674
vn -0.4417 0.8622 -0.2481
vn -0.7499 0.5059 -0.4263
vn -0.8671 -0.0068 -0.4980
vn -0.7388 -0.5244 -0.4232
vn -0.4215 -0.8756 -0.2358
vn -0.0131 0.0062 -0.9999
vn -0.0103 0.5150 -0.8572
vn -0.2607 0.8653 -0.4281
vn -0.4427 0.5075 -0.7392
vn -0.5088 -0.0106 -0.8608
vn -0.4293 -0.5273 -0.7333
vn -0.2409 -0.8772 -0.4152
vn -0.0038 1.0000 0.0004
vn -0.0055 0.8678 -0.4968
vn -0.0028 0.5085 -0.8611
vn 0.0018 -0.0159 -0.9999
vn 0.0073 -0.5320 -0.8467
vn 0.0106 -0.8775 -0.4795
vn 0.4094 -0.8826 -0.2311
vn 0.4351 0.8707 0.2293
vn 0.7544 0.5023 0.4226
vn 0.8673 -0.0057 0.4978
vn 0.7480 -0.5013 0.4349
vn 0.4480 -0.8558 0.2585
vn 0.7165 -0.5535 -0.4246
vn 0.8548 -0.0087 -0.5188
vn 0.2390 0.8730 0.4251
vn 0.4286 0.5001 0.7525
vn 0.4974 -0.0096 0.8675
vn 0.4340 -0.5002 0.7493
vn 0.2682 -0.8544 0.4449
vn 0.7126 0.5436 -0.4436
vn 0.3964 0.8792 -0.2643
vn -0.0383 0.8682 0.4947
vn -0.0252 0.5028 0.8641
vn -0.0035 0.0027 1.0000
vn 0.0169 -0.4919 0.8705
vn 0.0265 -0.8562 0.5160
vn -0.2921 0.8605 0.4174
vn -0.4481 0.5151 0.7306
vn -0.4987 0.0287 0.8663
vn -0.4203 -0.4857 0.7664
vn -0.2330 -0.8636 0.4472
vn 0.2363 0.8754 -0.4217
vn 0.4132 0.5403 -0.7330
vn -0.4571 0.8572 0.2372
vn -0.7444 0.5223 0.4160
vn -0.8715 0.0404 0.4888
vn -0.7652 -0.4827 0.4260
vn -0.4397 -0.8649 0.2421
vn 0.0097 -0.9999 -0.0106
vn 0.4932 -0.0008 -0.8699
vn -0.5129 0.8584 0.0003
vn -0.8565 0.5161 0.0009
vn -0.9995 0.0279 -0.0154
vn -0.8771 -0.4794 -0.0298
vn -0.5138 -0.8574 -0.0299
vn 0.4211 -0.5417 -0.7275
vn 0.2451 -0.8815 -0.4035
vn -0.4452 0.8609 -0.2463
vn -0.7489 0.5102 -0.4230
vn -0.8650 0.0115 -0.5016
vn -0.7504 -0.4828 -0.4515
vn -0.4410 -0.8509 -0.2856
vn -0.2616 0.8628 -0.4325
vn -0.4380 0.5105 -0.7400
vn -0.5088 0.0049 -0.8609
vn -0.4402 -0.4908 -0.7519
vn -0.2580 -0.8495 -0.4601
vn 0.0059 -0.8830 -0.4693
vn -0.0229 0.9996 -0.0165
vn -0.0119 0.8643 -0.5028
vn 0.0059 -0.5397 -0.8419
vn 0.0110 -0.0005 -0.9999
vn 0.0160 0.5397 -0.8417
vn 0.4051 0.8903 0.2080
vn 0.7352 0.5385 0.4117
vn 0.8659 -0.0317 0.4991
vn 0.7104 -0.5707 0.4119
vn 0.4047 -0.8853 0.2290
vn 0.2331 0.8888 0.3945
vn 0.4143 0.5297 0.7401
vn 0.4833 -0.0363 0.8747
vn 0.4049 -0.5628 0.7207
vn 0.2440 -0.8827 0.4016
vn -0.0034 0.8846 0.4664
vn -0.0149 0.5182 0.8551
vn -0.0149 -0.0313 0.9994
vn -0.0007 -0.5455 0.8381
vn 0.0160 -0.8815 0.4719
vn -0.2361 0.8828 0.4061
vn -0.4292 0.5159 0.7414
vn -0.4961 -0.0225 0.8680
vn -0.4144 -0.5394 0.7330
vn -0.2309 -0.8830 0.4086
vn -0.4066 0.8839 0.2310
vn -0.7323 0.5233 0.4356
vn -0.8585 -0.0216 0.5123
vn -0.7231 -0.5460 0.4230
vn -0.4070 -0.8843 0.2290
vn 0.0083 -1.0000 -0.0023
vn -0.4619 0.8868 -0.0140
vn -0.8457 0.5337 0.0034
vn -0.9996 -0.0279 0.0071
vn -0.8309 -0.5564 -0.0012
vn -0.4660 -0.8847 -0.0079
vn -0.3854 0.8866 -0.2559
vn -0.7194 0.5374 -0.4400
vn -0.8590 -0.0262 -0.5113
vn -0.7159 -0.5573 -0.4206
vn -0.4042 -0.8837 -0.2361
vn -0.2072 0.8809 -0.4255
vn -0.3968 0.5390 -0.7430
vn -0.4852 -0.0115 -0.8744
vn -0.4149 -0.5472 -0.7269
vn -0.2346 -0.8836 -0.4052
vn 0.0091 0.9996 -0.0256
vn 0.0179 0.8762 -0.4816
s 1
usemtl cable_stalk
f 2//2 9//9 1//1
f 3//3 10//10 2//2
f 3//3 12//12 11//11
f 4//4 13//13 12//12
f 5//5 14//14 13//13
f 7//7 14//14 6//6
f 8//8 15//15 7//7
f 1//1 16//16 8//8
f 10//10 17//17 9//9
f 10//10 19//19 18//18
f 11//11 20//20 19//19
f 12//12 21//21 20//20
f 13//13 22//22 21//21
f 14//14 23//23 22//22
f 16//16 23//23 15//15
f 9//9 24//24 16//16
f 18//18 25//25 17//17
f 19//19 26//26 18//18
f 19//19 28//28 27//27
f 20//20 29//29 28//28
f 21//21 30//30 29//29
f 22//22 31//31 30//30
f 23//23 32//32 31//31
f 17//17 32//32 24//24
f 26//26 33//33 25//25
f 26//26 35//35 34//34
f 27//27 36//36 35//35
f 28//28 37//37 36//36
f 29//29 38//38 37//37
f 31//31 38//38 30//30
f 32//32 39//39 31//31
f 25//25 40//40 32//32
f 34//34 41//41 33//33
f 34//34 43//43 42//42
f 35//35 44//44 43//43
f 36//36 45//45 44//44
f 37//37 46//46 45//45
f 38//38 47//47 46//46
f 40//40 47//47 39//39
f 33//33 48//48 40//40
f 41//41 50//50 49//49
f 42//42 51//51 50//50
f 43//43 52//52 51//51
f 45//45 52//52 44//44
f 46//46 53//53 45//45
f 47//47 54//54 46//46
f 47//47 56//56 55//55
f 48//48 49//49 56//56
f 49//49 58//58 57//57
f 50//50 59//59 58//58
f 51//51 60//60 59//59
f 53//53 60//60 52//52
f 54//54 61//61 53//53
f 55//55 62//62 54//54
f 55//55 64//64 63//63
f 56//56 57//57 64//64
f 57//57 66//66 65//65
f 58//58 67//67 66//66
f 59//59 68//68 67//67
f 61//61 68//68 60//60
f 62//62 69//69 61//61
f 62//62 71//71 70//70
f 63//63 72//72 71//71
f 64//64 65//65 72//72
f 65//65 74//74 73//73
f 66//66 75//75 74//74
f 67//67 76//76 75//75
f 68//68 77//77 76//76
f 70//70 77//77 69//69
f 70//70 79//79 78//78
f 71//71 80//80 79//79
f 72//72 73//73 80//80
f 73//73 82//82 81//81
f 74//74 83//83 82//82
f 75//75 84//84 83//83
f 77//77 84//84 76//76
f 78//78 85//85 77//77
f 78//78 87//87 86//86
f 79//79 88//88 87//87
f 80//80 81//81 88//88
f 81//81 90//90 89//89
f 82//82 91//91 90//90
f 83//83 92//92 91//91
f 84//84 93//93 92//92
f 85//85 94//94 93//93
f 86//86 95//95 94//94
f 87//87 96//96 95//95
f 88//88 89//89 96//96
f 90//90 97//97 89//89
f 91//91 98//98 90//90
f 91//91 100//100 99//99
f 92//92 101//101 100//100
f 93//93 102//102 101//101
f 94//94 103//103 102//102
f 96//96 103//103 95//95
f 89//89 104//104 96//96
f 98//98 105//105 97//97
f 99//99 106//106 98//98
f 100//100 107//107 99//99
f 100//100 109//109 108//108
f 101//101 110//110 109//109
f 102//102 111//111 110//110
f 103//103 112//112 111//111
f 97//97 112//112 104//104
f 105//105 114//114 113//113
f 106//106 115//115 114//114
f 107//107 116//116 115//115
f 108//108 117//117 116//116
f 110//110 117//117 109//109
f 111//111 118//118 110//110
f 112//112 119//119 111//111
f 105//105 120//120 112//112
f 113//113 122//122 121//121
f 114//114 123//123 122//122
f 115//115 124//124 123//123
f 116//116 125//125 124//124
f 118//118 125//125 117//117
f 119//119 126//126 118//118
f 120//120 127//127 119//119
f 113//113 128//128 120//120
f 121//121 130//130 129//129
f 122//122 131//131 130//130
f 123//123 132//132 131//131
f 125//125 132//132 124//124
f 126//126 133//133 125//125
f 127//127 134//134 126//126
f 128//128 135//135 127//127
f 128//128 129//129 136//136
f 1//1 137//137 2//2
f 2//2 137//137 3//3
f 3//3 137//137 4//4
f 4//4 137//137 5//5
f 5//5 137//137 6//6
f 6//6 137//137 7//7
f 7//7 137//137 8//8
f 8//8 137//137 1//1
f 129//129 130//130 138//138
f 130//130 131//131 138//138
f 131//131 132//132 138//138
f 132//132 133//133 138//138
f 133//133 134//134 138//138
f 134//134 135//135 138//138
f 135//135 136//136 138//138
f 136//136 129//129 138//138
f 140//140 146//146 147//147
f 222//222 186//186 145//145
f 199//199 226//226 149//149
f 140//140 148//148 141//141
f 139//139 145//145 146//146
f 141//141 149//149 226//226
f 199//199 149//149 156//156
f 147//147 155//155 148//148
f 146//146 152//152 153//153
f 148//148 156//156 149//149
f 147//147 153//153 154//154
f 145//145 186//186 152//152
f 199//199 156//156 163//163
f 155//155 161//161 162//162
f 152//152 160//160 153//153
f 156//156 162//162 163//163
f 153//153 161//161 154//154
f 152//152 186//186 159//159
f 161//161 169//169 162//162
f 159//159 167//167 160//160
f 163//163 169//169 170//170
f 160//160 168//168 161//161
f 159//159 186//186 166//166
f 199//199 163//163 170//170
f 166//166 174//174 167//167
f 170//170 176//176 177//177
f 167//167 175//175 168//168
f 166//166 186//186 173//173
f 199//199 170//170 177//177
f 168//168 176//176 169//169
f 177//177 183//183 184//184
f 174//174 182//182 175//175
f 173//173 186//186 180//180
f 199//199 177//177 184//184
f 176//176 182//182 183//183
f 173//173 181//181 174//174
f 184//184 190//190 191//191
f 181//181 189//189 182//182
f 180//180 186//186 187//187
f 199//199 184//184 191//191
f 183//183 189//189 190//190
f 180//180 188//188 181//181
f 190//190 198//198 191//191
f 189//189 195//195 196//196
f 187//187 186//186 194//194
f 199//199 191//191 198//198
f 190//190 196//196 197//197
f 187//187 195//195 188//188
f 197//197 205//205 198//198
f 196//196 202//202 203//203
f 194//194 186//186 201//201
f 199//199 198//198 205//205
f 196//196 204//204 197//197
f 195//195 201//201 202//202
f 203//203 209//209 210//210
f 201//201 186//186 208//208
f 199//199 205//205 212//212
f 203//203 211//211 204//204
f 202//202 208//208 209//209
f 204//204 212//212 205//205
f 208//208 186//186 215//215
f 199//199 212//212 219//219
f 211//211 217//217 218//218
f 209//209 215//215 216//216
f 212//212 218//218 219//219
f 209//209 217//217 210//210
f 199//199 219//219 226//226
f 218//218 140//140 141//141
f 215//215 139//139 216//216
f 219//219 141//141 226//226
f 216//216 140//140 217//217
f 215//215 186//186 222//222
f 261//261 286//286 207//207
f 282//282 281//281 192//192
f 282//282 193//193 283//283
f 284//284 206//206 285//285
f 286//286 206//206 207//207
f 283//283 200//200 284//284
f 207//207 165//165 164//164
f 193//193 171//171 200//200
f 192//192 281//281 178//178
f 261//261 207//207 164//164
f 206//206 171//171 165//165
f 192//192 172//172 193//193
f 172//172 142//142 143//143
f 171//171 150//150 165//165
f 261//261 164//164 151//151
f 171//171 143//143 144//144
f 178//178 281//281 142//142
f 165//165 151//151 164//164
f 142//142 281//281 228//228
f 261//261 151//151 232//232
f 143//143 228//228 229//229
f 144//144 231//231 150//150
f 143//143 230//230 144//144
f 151//151 231//231 232//232
f 229//229 237//237 230//230
f 228//228 281//281 235//235
f 261//261 232//232 239//239
f 228//228 236//236 229//229
f 231//231 237//237 238//238
f 232//232 238//238 239//239
f 261//261 239//239 246//246
f 235//235 243//243 236//236
f 238//238 244//244 245//245
f 235//235 281//281 242//242
f 237//237 243//243 244//244
f 238//238 246//246 239//239
f 243//243 249//249 250//250
f 244//244 252//252 245//245
f 261//261 246//246 253//253
f 242//242 281//281 249//249
f 244//244 250//250 251//251
f 245//245 253//253 246//246
f 250//250 256//256 257//257
f 251//251 259//259 252//252
f 261//261 253//253 260//260
f 249//249 281//281 256//256
f 251//251 257//257 258//258
f 252//252 260//260 253//253
f 256//256 263//263 257//257
f 259//259 264//264 265//265
f 261//261 260//260 266//266
f 256//256 281//281 262//262
f 258//258 263//263 264//264
f 260//260 265//265 266//266
f 265//265 271//271 272//272
f 261//261 266//266 273//273
f 262//262 281//281 269//269
f 263//263 271//271 264//264
f 266//266 272//272 273//273
f 262//262 270//270 263//263
f 261//261 273//273 280//280
f 269//269 281//281 276//276
f 270//270 278//278 271//271
f 272//272 280//280 273//273
f 270//270 276//276 277//277
f 271//271 279//279 272//272
f 276//276 281//281 282//282
f 277//277 284//284 278//278
f 279//279 286//286 280//280
f 277//277 282//282 283//283
f 278//278 285//285 279//279
f 261//261 280//280 286//286
f 340//340 241//241 275//275
f 268//268 247//247 248//248
f 319//319 267//267 254//254
f 340//340 339//339 240//240
f 268//268 254//254 267//267
f 274//274 241//241 247//247
f 254//254 223//223 221//221
f 240//240 225//225 241//241
f 241//241 224//224 247//247
f 240//240 339//339 227//227
f 247//247 223//223 248//248
f 319//319 254//254 221//221
f 221//221 185//185 213//213
f 225//225 179//179 224//224
f 227//227 158//158 225//225
f 319//319 221//221 213//213
f 227//227 339//339 157//157
f 223//223 179//179 185//185
f 157//157 339//339 288//288
f 179//179 291//291 185//185
f 319//319 213//213 292//292
f 213//213 291//291 292//292
f 157//157 289//289 158//158
f 158//158 290//290 179//179
f 292//292 298//298 299//299
f 288//288 339//339 295//295
f 289//289 295//295 296//296
f 319//319 292//292 299//299
f 290//290 298//298 291//291
f 289//289 297//297 290//290
f 295//295 303//303 296//296
f 298//298 304//304 305//305
f 319//319 299//299 306//306
f 295//295 339//339 302//302
f 297//297 303//303 304//304
f 299//299 305//305 306//306
f 303//303 307//307 308//308
f 305//305 309//309 310//310
f 319//319 306//306 311//311
f 302//302 339//339 307//307
f 304//304 308//308 309//309
f 305//305 311//311 306//306
f 308//308 314//314 315//315
f 310//310 316//316 317//317
f 319//319 311//311 318//318
f 307//307 339//339 314//314
f 309//309 315//315 316//316
f 310//310 318//318 311//311
f 315//315 321//321 322//322
f 316//316 324//324 317//317
f 319//319 318//318 325//325
f 314//314 339//339 321//321
f 315//315 323//323 316//316
f 318//318 324//324 325//325
f 323//323 331//331 324//324
f 319//319 325//325 332//332
f 321//321 339//339 328//328
f 322//322 330//330 323//323
f 325//325 331//331 332//332
f 322//322 328//328 329//329
f 319//319 332//332 337//337
f 328//328 339//339 333//333
f 329//329 335//335 330//330
f 331//331 337//337 332//332
f 329//329 333//333 334//334
f 330//330 336//336 331//331
f 333//333 339//339 340//340
f 335//335 275//275 274//274
f 336//336 267//267 337//337
f 334//334 340//340 275//275
f 335//335 268//268 336//336
f 319//319 337//337 267//267
f 369//369 338//338 327//327
f 386//386 385//385 312//312
f 342//342 313//313 320//320
f 338//338 326//326 327//327
f 386//386 313//313 343//343
f 342//342 326//326 341//341
f 312//312 385//385 301//301
f 326//326 287//287 327//327
f 320//320 300//300 294//294
f 369//369 327//327 287//287
f 320//320 293//293 326//326
f 313//313 301//301 300//300
f 294//294 234//234 293//293
f 300//300 233//233 294//294
f 301//301 385//385 214//214
f 300//300 214//214 220//220
f 293//293 255//255 287//287
f 369//369 287//287 255//255
f 234//234 348//348 255//255
f 214//214 385//385 344//344
f 233//233 347//347 234//234
f 220//220 346//346 233//233
f 369//369 255//255 348//348
f 220//220 344//344 345//345
f 347//347 351//351 352//352
f 369//369 348//348 353//353
f 345//345 351//351 346//346
f 344//344 385//385 349//349
f 344//344 350//350 345//345
f 348//348 352//352 353//353
f 349//349 355//355 350//350
f 352//352 356//356 357//357
f 369//369 353//353 358//358
f 349//349 385//385 354//354
f 350//350 356//356 351//351
f 353//353 357//357 358//358
f 354//354 360//360 355//355
f 357//357 361//361 362//362
f 369//369 358//358 363//363
f 354//354 385//385 359//359
f 356//356 360//360 361//361
f 357//357 363//363 358//358
f 360//360 364//364 365//365
f 361//361 367//367 362//362
f 369//369 363//363 368//368
f 359//359 385//385 364//364
f 361//361 365//365 366//366
f 362//362 368//368 363//363
f 365//365 370//370 371//371
f 366//366 373//373 367//367
f 369//369 368//368 374//374
f 364//364 385//385 370//370
f 366//366 371//371 372//372
f 367//367 374//374 368//368
f 372//372 378//378 373//373
f 369//369 374//374 379//379
f 370//370 385//385 375//375
f 372//372 376//376 377//377
f 374//374 378//378 379//379
f 371//371 375//375 376//376
f 369//369 379//379 384//384
f 375//375 385//385 380//380
f 377//377 381//381 382//382
f 379//379 383//383 384//384
f 375//375 381//381 376//376
f 378//378 382//382 383//383
f 380//380 385//385 386//386
f 381//381 342//342 382//382
f 384//384 341//341 338//338
f 380//380 343//343 381//381
f 383//383 342//342 341//341
f 369//369 384//384 338//338
f 2//2 10//10 9//9
f 3//3 11//11 10//10
f 3//3 4//4 12//12
f 4//4 5//5 13//13
f 5//5 6//6 14//14
f 7//7 15//15 14//14
f 8//8 16//16 15//15
f 1//1 9//9 16//16
f 10//10 18//18 17//17
f 10//10 11//11 19//19
f 11//11 12//12 20//20
f 12//12 13//13 21//21
f 13//13 14//14 22//22
f 14//14 15//15 23//23
f 16//16 24//24 23//23
f 9//9 17//17 24//24
f 18//18 26//26 25//25
f 19//19 27//27 26//26
f 19//19 20//20 28//28
f 20//20 21//21 29//29
f 21//21 22//22 30//30
f 22//22 23//23 31//31
f 23//23 24//24 32//32
f 17//17 25//25 32//32
f 26//26 34//34 33//33
f 26//26 27//27 35//35
f 27//27 28//28 36//36
f 28//28 29//29 37//37
f 29//29 30//30 38//38
f 31//31 39//39 38//38
f 32//32 40//40 39//39
f 25//25 33//33 40//40
f 34//34 42//42 41//41
f 34//34 35//35 43//43
f 35//35 36//36 44//44
f 36//36 37//37 45//45
f 37//37 38//38 46//46
f 38//38 39//39 47//47
f 40//40 48//48 47//47
f 33//33 41//41 48//48
f 41//41 42//42 50//50
f 42//42 43//43 51//51
f 43//43 44//44 52//52
f 45//45 53//53 52//52
f 46//46 54//54 53//53
f 47//47 55//55 54//54
f 47//47 48//48 56//56
f 48//48 41//41 49//49
f 49//49 50//50 58//58
f 50//50 51//51 59//59
f 51//51 52//52 60//60
f 53//53 61//61 60//60
f 54//54 62//62 61//61
f 55//55 63//63 62//62
f 55//55 56//56 64//64
f 56//56 49//49 57//57
f 57//57 58//58 66//66
f 58//58 59//59 67//67
f 59//59 60//60 68//68
f 61//61 69//69 68//68
f 62//62 70//70 69//69
f 62//62 63//63 71//71
f 63//63 64//64 72//72
f 64//64 57//57 65//65
f 65//65 66//66 74//74
f 66//66 67//67 75//75
f 67//67 68//68 76//76
f 68//68 69//69 77//77
f 70//70 78//78 77//77
f 70//70 71//71 79//79
f 71//71 72//72 80//80
f 72//72 65//65 73//73
f 73//73 74//74 82//82
f 74//74 75//75 83//83
f 75//75 76//76 84//84
f 77//77 85//85 84//84
f 78//78 86//86 85//85
f 78//78 79//79 87//87
f 79//79 80//80 88//88
f 80//80 73//73 81//81
f 81//81 82//82 90//90
f 82//82 83//83 91//91
f 83//83 84//84 92//92
f 84//84 85//85 93//93
f 85//85 86//86 94//94
f 86//86 87//87 95//95
f 87//87 88//88 96//96
f 88//88 81//81 89//89
f 90//90 98//98 97//97
f 91//91 99//99 98//98
f 91//91 92//92 100//100
f 92//92 93//93 101//101
f 93//93 94//94 102//102
f 94//94 95//95 103//103
f 96//96 104//104 103//103
f 89//89 97//97 104//104
f 98//98 106//106 105//105
f 99//99 107//107 106//106
f 100//100 108//108 107//107
f 100//100 101//101 109//109
f 101//101 102//102 110//110
f 102//102 103//103 111//111
f 103//103 104//104 112//112
f 97//97 105//105 112//112
f 105//105 106//106 114//114
f 106//106 107//107 115//115
f 107//107 108//108 116//116
f 108//108 109//109 117//117
f 110//110 118//118 117//117
f 111//111 119//119 118//118
f 112//112 120//120 119//119
f 105//105 113//113 120//120
f 113//113 114//114 122//122
f 114//114 115//115 123//123
f 115//115 116//116 124//124
f 116//116 117//117 125//125
f 118//118 126//126 125//125
f 119//119 127//127 126//126
f 120//120 128//128 127//127
f 113//113 121//121 128//128
f 121//121 122//122 130//130
f 122//122 123//123 131//131
f 123//123 124//124 132//132
f 125//125 133//133 132//132
f 126//126 134//134 133//133
f 127//127 135//135 134//134
f 128//128 136//136 135//135
f 128//128 121//121 129//129
f 140//140 139//139 146//146
f 140//140 147//147 148//148
f 139//139 222//222 145//145
f 141//141 148//148 149//149
f 147//147 154//154 155//155
f 146//146 145//145 152//152
f 148//148 155//155 156//156
f 147//147 146//146 153//153
f 155//155 154//154 161//161
f 152//152 159//159 160//160
f 156//156 155//155 162//162
f 153//153 160//160 161//161
f 161//161 168//168 169//169
f 159//159 166//166 167//167
f 163//163 162//162 169//169
f 160//160 167//167 168//168
f 166//166 173//173 174//174
f 170//170 169//169 176//176
f 167//167 174//174 175//175
f 168//168 175//175 176//176
f 177//177 176//176 183//183
f 174//174 181//181 182//182
f 176//176 175//175 182//182
f 173//173 180//180 181//181
f 184//184 183//183 190//190
f 181//181 188//188 189//189
f 183//183 182//182 189//189
f 180//180 187//187 188//188
f 190//190 197//197 198//198
f 189//189 188//188 195//195
f 190//190 189//189 196//196
f 187//187 194//194 195//195
f 197//197 204//204 205//205
f 196//196 195//195 202//202
f 196//196 203//203 204//204
f 195//195 194//194 201//201
f 203//203 202//202 209//209
f 203//203 210//210 211//211
f 202//202 201//201 208//208
f 204//204 211//211 212//212
f 211//211 210//210 217//217
f 209//209 208//208 215//215
f 212//212 211//211 218//218
f 209//209 216//216 217//217
f 218//218 217//217 140//140
f 215//215 222//222 139//139
f 219//219 218//218 141//141
f 216//216 139//139 140//140
f 282//282 192//192 193//193
f 284//284 200//200 206//206
f 286//286 285//285 206//206
f 283//283 193//193 200//200
f 207//207 206//206 165//165
f 193//193 172//172 171//171
f 206//206 200//200 171//171
f 192//192 178//178 172//172
f 172//172 178//178 142//142
f 171//171 144//144 150//150
f 171//171 172//172 143//143
f 165//165 150//150 151//151
f 143//143 142//142 228//228
f 144//144 230//230 231//231
f 143//143 229//229 230//230
f 151//151 150//150 231//231
f 229//229 236//236 237//237
f 228//228 235//235 236//236
f 231//231 230//230 237//237
f 232//232 231//231 238//238
f 235//235 242//242 243//243
f 238//238 237//237 244//244
f 237//237 236//236 243//243
f 238//238 245//245 246//246
f 243//243 242//242 249//249
f 244//244 251//251 252//252
f 244//244 243//243 250//250
f 245//245 252//252 253//253
f 250//250 249//249 256//256
f 251//251 258//258 259//259
f 251//251 250//250 257//257
f 252//252 259//259 260//260
f 256//256 262//262 263//263
f 259//259 258//258 264//264
f 258//258 257//257 263//263
f 260//260 259//259 265//265
f 265//265 264//264 271//271
f 263//263 270//270 271//271
f 266//266 265//265 272//272
f 262//262 269//269 270//270
f 270//270 277//277 278//278
f 272//272 279//279 280//280
f 270//270 269//269 276//276
f 271//271 278//278 279//279
f 277//277 283//283 284//284
f 279//279 285//285 286//286
f 277//277 276//276 282//282
f 278//278 284//284 285//285
f 340//340 240//240 241//241
f 268//268 274//274 247//247
f 268//268 248//248 254//254
f 274//274 275//275 241//241
f 254//254 248//248 223//223
f 240//240 227//227 225//225
f 241//241 225//225 224//224
f 247//247 224//224 223//223
f 221//221 223//223 185//185
f 225//225 158//158 179//179
f 227//227 157//157 158//158
f 223//223 224//224 179//179
f 179//179 290//290 291//291
f 213//213 185//185 291//291
f 157//157 288//288 289//289
f 158//158 289//289 290//290
f 292//292 291//291 298//298
f 289//289 288//288 295//295
f 290//290 297//297 298//298
f 289//289 296//296 297//297
f 295//295 302//302 303//303
f 298//298 297//297 304//304
f 297//297 296//296 303//303
f 299//299 298//298 305//305
f 303//303 302//302 307//307
f 305//305 304//304 309//309
f 304//304 303//303 308//308
f 305//305 310//310 311//311
f 308//308 307//307 314//314
f 310//310 309//309 316//316
f 309//309 308//308 315//315
f 310//310 317//317 318//318
f 315//315 314//314 321//321
f 316//316 323//323 324//324
f 315//315 322//322 323//323
f 318//318 317//317 324//324
f 323//323 330//330 331//331
f 322//322 329//329 330//330
f 325//325 324//324 331//331
f 322//322 321//321 328//328
f 329//329 334//334 335//335
f 331//331 336//336 337//337
f 329//329 328//328 333//333
f 330//330 335//335 336//336
f 335//335 334//334 275//275
f 336//336 268//268 267//267
f 334//334 333//333 340//340
f 335//335 274//274 268//268
f 342//342 343//343 313//313
f 338//338 341//341 326//326
f 386//386 312//312 313//313
f 342//342 320//320 326//326
f 326//326 293//293 287//287
f 320//320 313//313 300//300
f 320//320 294//294 293//293
f 313//313 312//312 301//301
f 294//294 233//233 234//234
f 300//300 220//220 233//233
f 300//300 301//301 214//214
f 293//293 234//234 255//255
f 234//234 347//347 348//348
f 233//233 346//346 347//347
f 220//220 345//345 346//346
f 220//220 214//214 344//344
f 347//347 346//346 351//351
f 345//345 350//350 351//351
f 344//344 349//349 350//350
f 348//348 347//347 352//352
f 349//349 354//354 355//355
f 352//352 351//351 356//356
f 350//350 355//355 356//356
f 353//353 352//352 357//357
f 354//354 359//359 360//360
f 357//357 356//356 361//361
f 356//356 355//355 360//360
f 357//357 362//362 363//363
f 360//360 359//359 364//364
f 361//361 366//366 367//367
f 361//361 360//360 365//365
f 362//362 367//367 368//368
f 365//365 364//364 370//370
f 366//366 372//372 373//373
f 366//366 365//365 371//371
f 367//367 373//373 374//374
f 372//372 377//377 378//378
f 372//372 371//371 376//376
f 374//374 373//373 378//378
f 371//371 370//370 375//375
f 377//377 376//376 381//381
f 379//379 378//378 383//383
f 375//375 380//380 381//381
f 378//378 377//377 382//382
f 381//381 343//343 342//342
f 384//384 383//383 341//341
f 380//380 386//386 343//343
f 383//383 382//382 342//342
o bead_reed_head
v 0.407878 4.634521 -0.655762
v 0.468803 4.526209 -0.761287
v 0.493652 4.376557 -0.804327
v 0.470035 4.225617 -0.763422
v 0.407218 4.120663 -0.654619
v 0.468936 4.636003 -0.595995
v 0.575986 4.527623 -0.657801
v 0.617627 4.376557 -0.681842
v 0.579028 4.223656 -0.659557
v 0.468204 4.118437 -0.595572
v 0.492512 4.638198 -0.513234
v 0.618149 4.529414 -0.513234
v 0.661748 4.376557 -0.513234
v 0.617547 4.224016 -0.513234
v 0.491133 4.117078 -0.513234
v 0.470162 4.638223 -0.429765
v 0.578081 4.528888 -0.367458
v 0.613666 4.376557 -0.346913
v 0.577491 4.224584 -0.367799
v 0.469449 4.116184 -0.430177
v 0.408450 4.636314 -0.369715
v 0.468451 4.525841 -0.265791
v 0.489881 4.376557 -0.228673
v 0.469757 4.225908 -0.263528
v 0.408832 4.115601 -0.369053
v 0.325589 4.635375 -0.348112
v 0.325589 4.525746 -0.227694
v 0.325589 4.376557 -0.181900
v 0.325589 4.226636 -0.226292
v 0.325589 4.115307 -0.346560
v 0.242486 4.637076 -0.369294
v 0.179742 4.528961 -0.260620
v 0.155231 4.376557 -0.218164
v 0.179895 4.224313 -0.260884
v 0.242021 4.114583 -0.368490
v 0.325589 4.080587 -0.513234
v 0.325589 4.676605 -0.513234
v 0.180625 4.638931 -0.429539
v 0.072048 4.529521 -0.366852
v 0.026997 4.376557 -0.340842
v 0.068714 4.221582 -0.364927
v 0.180624 4.114183 -0.429538
v 0.158346 4.638701 -0.513234
v 0.035057 4.528355 -0.513234
v -0.017159 4.376557 -0.513234
v 0.028014 4.221080 -0.513234
v 0.158944 4.115351 -0.513234
v 0.181326 4.637662 -0.596524
v 0.074832 4.527841 -0.658009
v 0.033050 4.376557 -0.682132
v 0.071953 4.223537 -0.659671
v 0.182360 4.117325 -0.595927
v 0.242422 4.637275 -0.657284
v 0.180936 4.527714 -0.763781
v 0.159616 4.376557 -0.800709
v 0.182113 4.226630 -0.761743
v 0.243651 4.119690 -0.655156
v 0.325589 4.635664 -0.678540
v 0.325589 4.526520 -0.800256
v 0.325589 4.376557 -0.843550
v 0.325589 4.227704 -0.798133
v 0.325589 4.121307 -0.676080
vn 0.2464 0.8660 -0.4352
vn 0.4157 0.5255 -0.7423
vn 0.4840 0.0083 -0.8750
vn 0.4017 -0.5319 -0.7455
vn 0.2210 -0.8757 -0.4293
vn 0.4131 0.8705 -0.2676
vn 0.7286 0.5243 -0.4407
vn 0.8639 0.0108 -0.5036
vn 0.7295 -0.5291 -0.4335
vn 0.3996 -0.8808 -0.2540
vn 0.4837 0.8751 -0.0130
vn 0.8567 0.5158 -0.0067
vn 1.0000 0.0015 0.0086
vn 0.8519 -0.5236 0.0067
vn 0.4768 -0.8789 -0.0123
vn 0.4153 0.8725 0.2576
vn 0.7335 0.5086 0.4509
vn 0.8559 0.0001 0.5172
vn 0.7371 -0.5131 0.4398
vn 0.4202 -0.8762 0.2358
vn 0.2344 0.8642 0.4452
vn 0.4155 0.5058 0.7560
vn 0.4931 0.0074 0.8699
vn 0.4213 -0.5030 0.7546
vn 0.2477 -0.8723 0.4216
vn 0.0071 0.8638 0.5037
vn 0.0228 0.5161 0.8562
vn 0.0296 0.0033 0.9996
vn 0.0144 -0.5085 0.8609
vn 0.0070 -0.8706 0.4920
vn -0.2232 0.8718 0.4362
vn -0.4002 0.5320 0.7463
vn -0.4706 0.0006 0.8824
vn -0.3962 -0.5271 0.7517
vn -0.2309 -0.8764 0.4225
vn 0.0059 -0.9998 -0.0192
vn 0.0047 1.0000 -0.0031
vn -0.4156 0.8744 0.2504
vn -0.7308 0.5374 0.4209
vn -0.8627 0.0114 0.5056
vn -0.7231 -0.5345 0.4376
vn -0.4044 -0.8843 0.2333
vn -0.4903 0.8715 -0.0087
vn -0.8459 0.5332 -0.0133
vn -0.9997 0.0203 -0.0169
vn -0.8466 -0.5321 -0.0130
vn -0.4622 -0.8866 -0.0187
vn -0.4228 0.8699 -0.2540
vn -0.7340 0.5219 -0.4345
vn -0.8518 0.0120 -0.5237
vn -0.7174 -0.5269 -0.4557
vn -0.3932 -0.8809 -0.2633
vn -0.2356 0.8703 -0.4325
vn -0.4221 0.5105 -0.7492
vn -0.4842 -0.0042 -0.8749
vn -0.4036 -0.5218 -0.7515
vn -0.2202 -0.8734 -0.4343
vn 0.0190 0.8670 -0.4980
vn 0.0101 0.5115 -0.8592
vn -0.0067 -0.0033 -1.0000
vn -0.0063 -0.5242 -0.8516
vn 0.0068 -0.8705 -0.4921
s 1
usemtl lamp_node
f 446//446 388//388 389//389
f 444//444 423//423 387//387
f 422//422 448//448 391//391
f 446//446 390//390 447//447
f 445//445 387//387 388//388
f 447//447 391//391 448//448
f 422//422 391//391 396//396
f 390//390 394//394 395//395
f 388//388 392//392 393//393
f 390//390 396//396 391//391
f 388//388 394//394 389//389
f 387//387 423//423 392//392
f 422//422 396//396 401//401
f 395//395 399//399 400//400
f 393//393 397//397 398//398
f 396//396 400//400 401//401
f 393//393 399//399 394//394
f 392//392 423//423 397//397
f 400//400 404//404 405//405
f 397//397 403//403 398//398
f 401//401 405//405 406//406
f 398//398 404//404 399//399
f 397//397 423//423 402//402
f 422//422 401//401 406//406
f 402//402 408//408 403//403
f 406//406 410//410 411//411
f 404//404 408//408 409//409
f 402//402 423//423 407//407
f 422//422 406//406 411//411
f 405//405 409//409 410//410
f 411//411 415//415 416//416
f 409//409 413//413 414//414
f 407//407 423//423 412//412
f 422//422 411//411 416//416
f 409//409 415//415 410//410
f 408//408 412//412 413//413
f 415//415 421//421 416//416
f 414//414 418//418 419//419
f 412//412 423//423 417//417
f 422//422 416//416 421//421
f 414//414 420//420 415//415
f 413//413 417//417 418//418
f 420//420 428//428 421//421
f 419//419 425//425 426//426
f 417//417 423//423 424//424
f 422//422 421//421 428//428
f 420//420 426//426 427//427
f 417//417 425//425 418//418
f 427//427 433//433 428//428
f 426//426 430//430 431//431
f 424//424 423//423 429//429
f 422//422 428//428 433//433
f 427//427 431//431 432//432
f 424//424 430//430 425//425
f 430//430 436//436 431//431
f 429//429 423//423 434//434
f 422//422 433//433 438//438
f 431//431 437//437 432//432
f 430//430 434//434 435//435
f 433//433 437//437 438//438
f 434//434 423//423 439//439
f 422//422 438//438 443//443
f 436//436 442//442 437//437
f 435//435 439//439 440//440
f 438//438 442//442 443//443
f 435//435 441//441 436//436
f 422//422 443//443 448//448
f 441//441 447//447 442//442
f 439//439 445//445 440//440
f 443//443 447//447 448//448
f 441//441 445//445 446//446
f 439//439 423//423 444//444
f 446//446 445//445 388//388
f 446//446 389//389 390//390
f 445//445 444//444 387//387
f 447//447 390//390 391//391
f 390//390 389//389 394//394
f 388//388 387//387 392//392
f 390//390 395//395 396//396
f 388//388 393//393 394//394
f 395//395 394//394 399//399
f 393//393 392//392 397//397
f 396//396 395//395 400//400
f 393//393 398//398 399//399
f 400//400 399//399 404//404
f 397//397 402//402 403//403
f 401//401 400//400 405//405
f 398//398 403//403 404//404
f 402//402 407//407 408//408
f 406//406 405//405 410//410
f 404//404 403//403 408//408
f 405//405 404//404 409//409
f 411//411 410//410 415//415
f 409//409 408//408 413//413
f 409//409 414//414 415//415
f 408//408 407//407 412//412
f 415//415 420//420 421//421
f 414//414 413//413 418//418
f 414//414 419//419 420//420
f 413//413 412//412 417//417
f 420//420 427//427 428//428
f 419//419 418//418 425//425
f 420//420 419//419 426//426
f 417//417 424//424 425//425
f 427//427 432//432 433//433
f 426//426 425//425 430//430
f 427//427 426//426 431//431
f 424//424 429//429 430//430
f 430//430 435//435 436//436
f 431//431 436//436 437//437
f 430//430 429//429 434//434
f 433//433 432//432 437//437
f 436//436 441//441 442//442
f 435//435 434//434 439//439
f 438//438 437//437 442//442
f 435//435 440//440 441//441
f 441//441 446//446 447//447
f 439//439 444//444 445//445
f 443//443 442//442 447//447
f 441//441 440//440 445//445
