# Blender 4.4.3
# www.blender.org
mtllib lily_pad.mtl
o lily_pad_pad
v 0.000000 0.208872 0.000000
v 0.000000 0.000000 0.000000
v -0.311638 0.194256 -0.190571
v -0.311638 0.000000 -0.190571
v -0.572456 0.174188 -0.350065
v -0.572456 0.000000 -0.350065
v -0.813306 0.151864 -0.497348
v -0.813306 0.000000 -0.497348
v -0.960333 0.176621 -0.587257
v -0.960333 0.031250 -0.587257
v -1.044491 0.258734 -0.638721
v -1.044491 0.108747 -0.638721
v -0.335736 0.194220 -0.144862
v -0.335736 0.000000 -0.144862
v -0.617234 0.174514 -0.266321
v -0.617234 0.000000 -0.266321
v -0.877591 0.148871 -0.378659
v -0.877591 0.000000 -0.378659
v -1.036716 0.172564 -0.447317
v -1.036716 0.028010 -0.447317
v -1.127865 0.254823 -0.486646
v -1.127865 0.105725 -0.486646
v -0.359405 0.193984 -0.072758
v -0.359405 0.000000 -0.072758
v -0.662301 0.174125 -0.134076
v -0.662301 0.000000 -0.134076
v -0.943689 0.146139 -0.191040
v -0.943689 0.000000 -0.191040
v -1.116246 0.169721 -0.225973
v -1.116246 0.026188 -0.225973
v -1.215285 0.252359 -0.246022
v -1.215285 0.104371 -0.246022
v -0.366369 0.193066 0.005114
v -0.366369 0.000000 0.005114
v -0.674695 0.172938 0.009417
v -0.674695 0.000000 0.009417
v -0.960777 0.145808 0.013411
v -0.960777 0.000000 0.013411
v -1.136050 0.170664 0.015857
v -1.136050 0.027920 0.015857
v -1.236593 0.253032 0.017260
v -1.236593 0.105902 0.017260
v -0.362303 0.192341 0.047118
v -0.362303 0.000000 0.047118
v -0.665622 0.172089 0.086566
v -0.665622 0.000000 0.086566
v -0.945799 0.145511 0.123003
v -0.945799 0.000000 0.123003
v -1.116870 0.169697 0.145251
v -1.116870 0.027255 0.145251
v -1.214803 0.251335 0.157988
v -1.214803 0.104532 0.157988
v -0.345635 0.191200 0.113038
v -0.345635 0.000000 0.113038
v -0.632533 0.170538 0.206866
v -0.632533 0.000000 0.206866
v -0.895569 0.145374 0.292891
v -0.895569 0.000000 0.292891
v -1.055252 0.168249 0.345114
v -1.055252 0.026098 0.345114
v -1.146354 0.248136 0.374909
v -1.146354 0.101650 0.374909
v -0.313572 0.190135 0.183703
v -0.313572 0.000000 0.183703
v -0.573551 0.168099 0.336010
v -0.573551 0.000000 0.336010
v -0.811664 0.144643 0.475506
v -0.811664 0.000000 0.475506
v -0.956100 0.169380 0.560122
v -0.956100 0.027254 0.560122
v -1.038465 0.250030 0.608375
v -1.038465 0.103571 0.608375
v -0.270377 0.189570 0.245070
v -0.270377 0.000000 0.245070
v -0.496239 0.166219 0.449793
v -0.496239 0.000000 0.449793
v -0.704474 0.141323 0.638537
v -0.704474 0.000000 0.638537
v -0.831432 0.166253 0.753613
v -0.831432 0.023837 0.753613
v -0.904050 0.246887 0.819434
v -0.904050 0.100113 0.819434
v -0.233279 0.189503 0.282928
v -0.233279 0.000000 0.282928
v -0.429883 0.166382 0.521375
v -0.429883 0.000000 0.521375
v -0.612529 0.138897 0.742892
v -0.612529 0.000000 0.742892
v -0.724535 0.162846 0.878736
v -0.724535 0.020048 0.878736
v -0.788820 0.243254 0.956704
v -0.788820 0.096066 0.956704
v -0.185388 0.189698 0.318115
v -0.185388 0.000000 0.318115
v -0.342772 0.168188 0.588177
v -0.342772 0.000000 0.588177
v -0.489889 0.141110 0.840621
v -0.489889 0.000000 0.840621
v -0.580529 0.165592 0.996154
v -0.580529 0.022205 0.996154
v -0.632694 0.246782 1.085666
v -0.632694 0.098953 1.085666
v -0.108143 0.190135 0.351850
v -0.108143 0.000000 0.351850
v -0.199907 0.171540 0.650411
v -0.199907 0.000000 0.650411
v -0.285650 0.147515 0.929383
v -0.285650 0.000000 0.929383
v -0.338461 0.174218 1.101208
v -0.338461 0.029732 1.101208
v -0.368850 0.256569 1.200079
v -0.368850 0.107546 1.200079
v -0.074008 0.190271 0.359587
v -0.074008 0.000000 0.359587
v -0.136511 0.172383 0.663273
v -0.136511 0.000000 0.663273
v -0.194681 0.148343 0.945902
v -0.194681 0.000000 0.945902
v -0.230400 0.174790 1.119455
v -0.230400 0.029770 1.119455
v -0.250918 0.257678 1.219144
v -0.250918 0.108073 1.219144
v 0.017170 0.190440 0.363897
v 0.017170 0.000000 0.363897
v 0.031469 0.171868 0.666950
v 0.031469 0.000000 0.666950
v 0.044617 0.148196 0.945601
v 0.044617 0.000000 0.945601
v 0.052616 0.173946 1.115142
v 0.052616 0.027345 1.115142
v 0.057186 0.257031 1.211997
v 0.057186 0.105708 1.211997
v 0.063095 0.190689 0.357995
v 0.063095 0.000000 0.357995
v 0.115431 0.171353 0.654944
v 0.115431 0.000000 0.654944
v 0.163385 0.150683 0.927028
v 0.163385 0.000000 0.927028
v 0.192483 0.177649 1.092125
v 0.192483 0.030170 1.092125
v 0.209079 0.260291 1.186289
v 0.209079 0.108013 1.186289
v 0.120815 0.191476 0.342156
v 0.120815 0.000000 0.342156
v 0.220695 0.171593 0.625022
v 0.220695 0.000000 0.625022
v 0.311943 0.155576 0.883442
v 0.311943 0.000000 0.883442
v 0.367184 0.184199 1.039889
v 0.367184 0.035538 1.039889
v 0.398648 0.266383 1.128998
v 0.398648 0.112821 1.128998
v 0.178691 0.193004 0.315749
v 0.178691 0.000000 0.315749
v 0.326377 0.172982 0.576714
v 0.326377 0.000000 0.576714
v 0.461267 0.159875 0.815068
v 0.461267 0.001749 0.815068
v 0.542914 0.189699 0.959339
v 0.542914 0.039761 0.959339
v 0.589413 0.271728 1.041503
v 0.589413 0.116777 1.041503
v 0.236892 0.195515 0.275686
v 0.236892 0.000000 0.275686
v 0.433360 0.175658 0.504328
v 0.433360 0.000000 0.504328
v 0.613355 0.160421 0.713798
v 0.613355 0.001111 0.713798
v 0.722562 0.191089 0.840889
v 0.722562 0.039754 0.840889
v 0.784845 0.274259 0.913372
v 0.784845 0.117790 0.913372
v 0.292533 0.199175 0.216838
v 0.292533 0.001393 0.216838
v 0.535949 0.178892 0.397268
v 0.535949 0.000000 0.397268
v 0.759602 0.162544 0.563048
v 0.759602 0.001958 0.563048
v 0.895602 0.194359 0.663857
v 0.895602 0.041519 0.663857
v 0.973269 0.278763 0.721428
v 0.973269 0.120658 0.721428
v 0.316507 0.201322 0.179745
v 0.316507 0.003295 0.179745
v 0.579670 0.180647 0.329197
v 0.579670 0.000000 0.329197
v 0.821306 0.163963 0.466423
v 0.821306 0.002739 0.466423
v 0.968166 0.195600 0.549825
v 0.968166 0.042008 0.549825
v 1.052010 0.279888 0.597441
v 1.052010 0.120966 0.597441
v 0.346165 0.205039 0.108189
v 0.346165 0.006632 0.108189
v 0.632079 0.184595 0.197547
v 0.632079 0.002836 0.197547
v 0.893068 0.164217 0.279116
v 0.893068 0.002005 0.279116
v 1.050968 0.194628 0.328465
v 1.050968 0.039870 0.328465
v 1.140869 0.278982 0.356563
v 1.140869 0.118793 0.356563
v 0.358536 0.207670 0.043200
v 0.358536 0.008999 0.043200
v 0.652311 0.188260 0.078596
v 0.652311 0.006019 0.078596
v 0.918564 0.164875 0.110677
v 0.918564 0.001980 0.110677
v 1.078745 0.195413 0.129977
v 1.078745 0.039849 0.129977
v 1.169636 0.281428 0.140928
v 1.169636 0.120362 0.140928
v 0.360284 0.209089 -0.012359
v 0.360284 0.010249 -0.012359
v 0.654514 0.190516 -0.022452
v 0.654514 0.007964 -0.022452
v 0.920383 0.166176 -0.031572
v 0.920383 0.002840 -0.031572
v 1.079953 0.196371 -0.037046
v 1.079953 0.040286 -0.037046
v 1.170367 0.282826 -0.040147
v 1.170367 0.121195 -0.040147
v 0.350100 0.209789 -0.081160
v 0.350100 0.010810 -0.081160
v 0.634339 0.191231 -0.147052
v 0.634339 0.008424 -0.147052
v 0.889809 0.168015 -0.206275
v 0.889809 0.004317 -0.206275
v 1.042482 0.196348 -0.241668
v 1.042482 0.039837 -0.241668
v 1.128763 0.281011 -0.261670
v 1.128763 0.118916 -0.261670
v 0.335544 0.209753 -0.127283
v 0.335544 0.010728 -0.127283
v 0.607227 0.190599 -0.230342
v 0.607227 0.007708 -0.230342
v 0.850803 0.169840 -0.322739
v 0.850803 0.006022 -0.322739
v 0.996077 0.198161 -0.377846
v 0.996077 0.041509 -0.377846
v 1.078074 0.282005 -0.408951
v 1.078074 0.119758 -0.408951
v 0.308319 0.209268 -0.184895
v 0.308319 0.010248 -0.184895
v 0.558804 0.188849 -0.335108
v 0.558804 0.005968 -0.335108
v 0.784074 0.171779 -0.470200
v 0.784074 0.007975 -0.470200
v 0.918766 0.201791 -0.550973
v 0.918766 0.045155 -0.550973
v 0.994908 0.285782 -0.596635
v 0.994908 0.123552 -0.596635
v 0.268971 0.208401 -0.241249
v 0.268971 0.009470 -0.241249
v 0.489567 0.187365 -0.439109
v 0.489567 0.004646 -0.439109
v 0.689668 0.172616 -0.618586
v 0.689668 0.009042 -0.618586
v 0.810133 0.205191 -0.726634
v 0.810133 0.048828 -0.726634
v 0.878516 0.290200 -0.787969
v 0.878516 0.128265 -0.787969
v 0.211098 0.207133 -0.295965
v 0.211098 0.008406 -0.295965
v 0.386219 0.186789 -0.541488
v 0.386219 0.004444 -0.541488
v 0.546693 0.174906 -0.766476
v 0.546693 0.011864 -0.766476
v 0.644073 0.207029 -0.903005
v 0.644073 0.051292 -0.903005
v 0.699617 0.290822 -0.980880
v 0.699617 0.129568 -0.980880
v 0.163331 0.206070 -0.326255
v 0.163331 0.007549 -0.326255
v 0.299731 0.186720 -0.598714
v 0.299731 0.004752 -0.598714
v 0.425452 0.173611 -0.849843
v 0.425452 0.011103 -0.849843
v 0.502087 0.203640 -1.002923
v 0.502087 0.048533 -1.002923
v 0.545916 0.286218 -1.090471
v 0.545916 0.125649 -1.090471
v 0.106924 0.204729 -0.350204
v 0.106924 0.006479 -0.350204
v 0.196801 0.185649 -0.644574
v 0.196801 0.004180 -0.644574
v 0.280108 0.167800 -0.917428
v 0.280108 0.005999 -0.917428
v 0.331108 0.195633 -1.084467
v 0.331108 0.041360 -1.084467
v 0.360350 0.278510 -1.180242
v 0.360350 0.118848 -1.180242
v 0.034584 0.202810 -0.365742
v 0.034584 0.004946 -0.365742
v 0.063827 0.182445 -0.675005
v 0.063827 0.001684 -0.675005
v 0.091071 0.160416 -0.963122
v 0.091071 0.000000 -0.963122
v 0.107814 0.188968 -1.140185
v 0.107814 0.035879 -1.140185
v 0.117435 0.273476 -1.241936
v 0.117435 0.115101 -1.241936
v -0.026389 0.200993 -0.366615
v -0.026389 0.003485 -0.366615
v -0.048723 0.179156 -0.676903
v -0.048723 0.000000 -0.676903
v -0.069546 0.157762 -0.966201
v -0.069546 0.000000 -0.966201
v -0.082351 0.187510 -1.144094
v -0.082351 0.035510 -1.144094
v -0.089712 0.272046 -1.246359
v -0.089712 0.114854 -1.246359
v -0.086081 0.198907 -0.357769
v -0.086081 0.001773 -0.357769
v -0.159083 0.175444 -0.661182
v -0.159083 0.000000 -0.661182
v -0.227264 0.155966 -0.944555
v -0.227264 0.000000 -0.944555
v -0.269243 0.186021 -1.119029
v -0.269243 0.035168 -1.119029
v -0.293394 0.270224 -1.219404
v -0.293394 0.114280 -1.219404
v -0.154225 0.196660 -0.334656
v -0.154225 0.000000 -0.334656
v -0.285336 0.172479 -0.619159
v -0.285336 0.000000 -0.619159
v -0.408040 0.154121 -0.885416
v -0.408040 0.000000 -0.885416
v -0.483706 0.181340 -1.049605
v -0.483706 0.031904 -1.049605
v -0.527275 0.263940 -1.144147
v -0.527275 0.109535 -1.144147
vn -0.1228 0.9878 -0.0957
vn -0.0925 -0.9877 -0.1258
vn 0.3343 0.7104 -0.6193
vn 0.3689 -0.7071 -0.6033
vn 0.3243 0.7071 -0.6284
vn 0.3982 0.6865 -0.6085
vn 0.3003 -0.7247 -0.6202
vn 0.6275 0.5771 -0.5226
vn 0.0748 -0.6883 -0.7215
vn -0.0392 0.7587 -0.6502
vn -0.2956 -0.3399 -0.8928
vn -0.0495 0.9986 -0.0192
vn -0.0000 -1.0000 -0.0000
vn -0.0699 0.9971 -0.0285
vn 0.0186 0.9994 0.0278
vn -0.0781 -0.9962 -0.0377
vn 0.3698 0.9105 0.1848
vn -0.3688 -0.9122 -0.1784
vn -0.4260 0.8869 -0.1784
vn -0.8202 -0.4310 -0.3761
vn -0.0533 0.9986 -0.0037
vn -0.0794 0.9968 -0.0106
vn 0.0261 0.9996 0.0124
vn -0.0802 -0.9966 -0.0175
vn 0.4061 0.9092 0.0922
vn -0.4000 -0.9123 -0.0874
vn -0.4778 0.8725 -0.1019
vn -0.8834 -0.4275 -0.1921
vn -0.0543 0.9984 0.0145
vn -0.0802 0.9967 0.0105
vn 0.0305 0.9995 0.0020
vn -0.0840 -0.9965 0.0019
vn 0.4178 0.9085 -0.0118
vn -0.4119 -0.9111 0.0139
vn -0.4776 0.8783 0.0219
vn -0.9043 -0.4257 0.0319
vn -0.0529 0.9983 0.0263
vn -0.0769 0.9967 0.0260
vn 0.0271 0.9996 -0.0035
vn -0.0800 -0.9967 0.0169
vn 0.4060 0.9098 -0.0865
vn -0.4008 -0.9120 0.0869
vn -0.4445 0.8880 0.1181
vn -0.8809 -0.4289 0.1999
vn -0.0511 0.9981 0.0344
vn -0.0697 0.9968 0.0396
vn 0.0265 0.9996 -0.0088
vn -0.0758 -0.9967 0.0296
vn 0.3863 0.9104 -0.1484
vn -0.3817 -0.9125 0.1473
vn -0.4233 0.8903 0.1680
vn -0.8419 -0.4314 0.3242
vn -0.0492 0.9980 0.0404
vn -0.0614 0.9968 0.0519
vn 0.0365 0.9993 -0.0074
vn -0.0739 -0.9964 0.0409
vn 0.3723 0.9067 -0.1981
vn -0.3641 -0.9105 0.1961
vn -0.3943 0.8929 0.2172
vn -0.7951 -0.4244 0.4332
vn -0.0466 0.9979 0.0450
vn -0.0602 0.9966 0.0560
vn 0.0365 0.9993 -0.0071
vn -0.0615 -0.9972 0.0430
vn 0.3440 0.9089 -0.2356
vn -0.3297 -0.9168 0.2253
vn -0.3610 0.8903 0.2774
vn -0.7314 -0.4302 0.5291
vn -0.0433 0.9979 0.0480
vn -0.0618 0.9965 0.0570
vn 0.0209 0.9996 -0.0177
vn -0.0466 -0.9980 0.0434
vn 0.2871 0.9138 -0.2874
vn -0.2752 -0.9228 0.2698
vn -0.3393 0.8779 0.3379
vn -0.6323 -0.4400 0.6377
vn -0.0359 0.9982 0.0491
vn -0.0580 0.9966 0.0593
vn -0.0024 0.9993 -0.0373
vn -0.0298 -0.9976 0.0628
vn 0.1951 0.9127 -0.3592
vn -0.1875 -0.9209 0.3417
vn -0.2796 0.8656 0.4155
vn -0.4623 -0.4361 0.7721
vn -0.0218 0.9985 0.0509
vn -0.0376 0.9972 0.0645
vn -0.0067 0.9990 -0.0436
vn -0.0253 -0.9961 0.0844
vn 0.1007 0.9088 -0.4048
vn -0.1050 -0.9133 0.3935
vn -0.1529 0.8740 0.4612
vn -0.2472 -0.4301 0.8683
vn -0.0096 0.9985 0.0541
vn -0.0126 0.9975 0.0701
vn -0.0015 0.9992 -0.0405
vn -0.0084 -0.9962 0.0870
vn 0.0278 0.9072 -0.4197
vn -0.0325 -0.9101 0.4132
vn -0.0294 0.8837 0.4671
vn -0.0652 -0.4297 0.9006
vn -0.0007 0.9984 0.0570
vn 0.0067 0.9975 0.0707
vn -0.0141 0.9991 -0.0388
vn 0.0095 -0.9963 0.0859
vn -0.0486 0.9044 -0.4239
vn 0.0434 -0.9086 0.4155
vn 0.0390 0.8907 0.4528
vn 0.0859 -0.4264 0.9004
vn 0.0030 0.9983 0.0585
vn 0.0128 0.9978 0.0650
vn -0.0358 0.9985 -0.0407
vn 0.0257 -0.9953 0.0936
vn -0.1235 0.9017 -0.4144
vn 0.1151 -0.9053 0.4089
vn 0.0810 0.8950 0.4387
vn 0.2144 -0.4231 0.8804
vn 0.0031 0.9981 0.0608
vn 0.0125 0.9982 0.0593
vn 0.0014 -1.0000 0.0007
vn -0.0466 0.9978 -0.0464
vn 0.0436 -0.9939 0.1013
vn -0.1809 0.8981 -0.4008
vn 0.1725 -0.8977 0.4055
vn 0.1341 0.8949 0.4257
vn 0.3297 -0.4205 0.8453
vn 0.0015 0.9980 0.0632
vn 0.0129 0.9982 0.0580
vn 0.0016 -1.0000 0.0029
vn -0.0463 0.9976 -0.0519
vn 0.0619 -0.9929 0.1012
vn -0.2280 0.8961 -0.3808
vn 0.2257 -0.8933 0.3886
vn 0.2034 0.8941 0.3991
vn 0.4433 -0.4193 0.7923
vn 0.0032 0.9979 0.0644
vn 0.0066 -1.0000 -0.0056
vn 0.0229 0.9980 0.0585
vn 0.0012 -1.0000 0.0011
vn -0.0502 0.9976 -0.0485
vn 0.0785 -0.9925 0.0940
vn -0.2915 0.8941 -0.3401
vn 0.2901 -0.8919 0.3469
vn 0.2851 0.8859 0.3660
vn 0.5788 -0.4182 0.7000
vn 0.0111 0.9979 0.0644
vn 0.0147 -0.9996 -0.0224
vn 0.0368 0.9979 0.0542
vn 0.0019 -1.0000 0.0002
vn -0.0620 0.9975 -0.0349
vn 0.1007 -0.9922 0.0730
vn -0.3587 0.8929 -0.2722
vn 0.3583 -0.8911 0.2783
vn 0.3537 0.8875 0.2953
vn 0.7139 -0.4164 0.5629
vn 0.0192 0.9978 0.0627
vn 0.0172 -0.9991 -0.0376
vn 0.0480 0.9976 0.0495
vn 0.0028 -1.0000 -0.0077
vn -0.0663 0.9975 -0.0257
vn 0.1122 -0.9921 0.0554
vn -0.4066 0.8919 -0.1981
vn 0.4069 -0.8905 0.2036
vn 0.4124 0.8879 0.2040
vn 0.8142 -0.4158 0.4053
vn 0.0274 0.9982 0.0533
vn 0.0126 -0.9992 -0.0368
vn 0.0627 0.9970 0.0455
vn -0.0026 -0.9997 -0.0228
vn -0.0645 0.9978 -0.0117
vn 0.1171 -0.9927 0.0304
vn -0.4441 0.8893 -0.1094
vn 0.4454 -0.8880 0.1139
vn 0.4472 0.8876 0.1102
vn 0.8832 -0.4138 0.2210
vn 0.0321 0.9988 0.0362
vn 0.0097 -0.9996 -0.0281
vn 0.0741 0.9967 0.0326
vn -0.0109 -0.9997 -0.0231
vn -0.0587 0.9983 0.0033
vn 0.1149 -0.9934 0.0049
vn -0.4625 0.8862 -0.0289
vn 0.4655 -0.8844 0.0323
vn 0.4271 0.9036 0.0325
vn 0.9115 -0.4065 0.0623
vn 0.0340 0.9993 0.0155
vn 0.0084 -0.9998 -0.0155
vn 0.0777 0.9969 0.0091
vn -0.0136 -0.9998 -0.0111
vn -0.0552 0.9984 0.0138
vn 0.1119 -0.9936 -0.0158
vn -0.4690 0.8821 0.0437
vn 0.4719 -0.8807 -0.0416
vn 0.4342 0.8998 -0.0428
vn 0.9138 -0.3980 -0.0808
vn 0.0327 0.9995 -0.0031
vn 0.0087 -1.0000 -0.0049
vn 0.0724 0.9972 -0.0165
vn -0.0095 -1.0000 0.0027
vn -0.0468 0.9986 0.0246
vn 0.1028 -0.9940 -0.0371
vn -0.4481 0.8855 0.1233
vn 0.4513 -0.8839 -0.1227
vn 0.4148 0.9032 -0.1103
vn 0.8850 -0.4029 -0.2332
vn 0.0294 0.9994 -0.0160
vn 0.0099 -1.0000 0.0011
vn 0.0641 0.9973 -0.0367
vn -0.0039 -0.9999 0.0136
vn -0.0477 0.9984 0.0303
vn 0.1017 -0.9935 -0.0509
vn -0.4247 0.8870 0.1812
vn 0.4280 -0.8852 -0.1821
vn 0.3910 0.9097 -0.1400
vn 0.8486 -0.4060 -0.3392
vn 0.0254 0.9993 -0.0270
vn 0.0106 -0.9999 0.0053
vn 0.0556 0.9975 -0.0435
vn 0.0001 -0.9999 0.0116
vn -0.0560 0.9977 0.0393
vn 0.1059 -0.9921 -0.0671
vn -0.4059 0.8844 0.2302
vn 0.4080 -0.8830 -0.2321
vn 0.3872 0.9041 -0.1808
vn 0.8059 -0.4054 -0.4314
vn 0.0198 0.9992 -0.0357
vn 0.0109 -0.9999 0.0069
vn 0.0448 0.9980 -0.0453
vn 0.0030 -1.0000 0.0036
vn -0.0577 0.9968 0.0555
vn 0.1001 -0.9908 -0.0913
vn -0.3662 0.8831 0.2933
vn 0.3665 -0.8821 -0.2959
vn 0.3656 0.8947 -0.2565
vn 0.7246 -0.4052 -0.5574
vn 0.0110 0.9991 -0.0404
vn 0.0124 -0.9999 0.0055
vn 0.0345 0.9985 -0.0437
vn 0.0028 -1.0000 -0.0067
vn -0.0526 0.9967 0.0618
vn 0.0854 -0.9908 -0.1053
vn -0.3036 0.8905 0.3389
vn 0.3023 -0.8898 -0.3419
vn 0.2985 0.8899 -0.3449
vn 0.6012 -0.4148 -0.6830
vn 0.0007 0.9991 -0.0426
vn 0.0153 -0.9999 0.0036
vn 0.0202 0.9986 -0.0495
vn 0.0063 -1.0000 -0.0069
vn -0.0552 0.9972 0.0496
vn 0.0785 -0.9920 -0.0988
vn -0.2458 0.8988 0.3631
vn 0.2435 -0.8980 -0.3665
vn 0.2122 0.8889 -0.4059
vn 0.4701 -0.4252 -0.7734
vn -0.0103 0.9990 -0.0441
vn 0.0186 -0.9998 0.0021
vn 0.0005 0.9981 -0.0619
vn 0.0147 -0.9999 0.0016
vn -0.0542 0.9977 0.0405
vn 0.0666 -0.9934 -0.0935
vn -0.1759 0.9034 0.3912
vn 0.1721 -0.9027 -0.3944
vn 0.1395 0.8813 -0.4515
vn 0.3183 -0.4304 -0.8447
vn -0.0227 0.9987 -0.0451
vn 0.0222 -0.9998 0.0016
vn -0.0195 0.9972 -0.0715
vn 0.0176 -0.9998 0.0079
vn -0.0331 0.9984 0.0465
vn 0.0287 -0.9944 -0.1014
vn -0.0733 0.9036 0.4219
vn 0.0674 -0.9035 -0.4233
vn 0.0548 0.8784 -0.4748
vn 0.1241 -0.4293 -0.8946
vn -0.0352 0.9984 -0.0446
vn 0.0257 -0.9997 0.0002
vn -0.0346 0.9969 -0.0708
vn 0.0072 -1.0000 0.0052
vn -0.0108 0.9985 0.0530
vn -0.0057 -0.9947 -0.1031
vn 0.0166 0.9050 0.4250
vn -0.0223 -0.9058 -0.4231
vn -0.0311 0.8873 -0.4601
vn -0.0493 -0.4322 -0.9004
vn -0.0443 0.9981 -0.0433
vn 0.0248 -0.9997 -0.0030
vn -0.0419 0.9970 -0.0643
vn 0.0011 -1.0000 0.0013
vn 0.0021 0.9983 0.0579
vn -0.0226 -0.9947 -0.0999
vn 0.0821 0.9056 0.4161
vn -0.0872 -0.9071 -0.4118
vn -0.1148 0.8837 -0.4537
vn -0.1947 -0.4315 -0.8808
vn -0.6626 0.7023 0.2603
vn -0.6341 -0.7145 0.2955
vn -0.6686 0.6994 0.2525
vn -0.6422 -0.7071 0.2959
vn -0.6552 0.6734 0.3424
vn -0.6495 -0.7276 0.2206
vn -0.6124 0.5564 0.5616
vn -0.7095 -0.7044 -0.0233
vn -0.6614 0.7340 -0.1544
vn -0.8294 -0.3597 -0.4273
s 1
usemtl leaf_pad
f 1//1 3//3 13//12
f 2//2 14//13 4//4
f 5//5 13//12 3//3
f 14//13 6//4 4//4
f 7//6 15//14 5//5
f 16//13 8//7 6//4
f 9//8 17//15 7//6
f 18//16 10//9 8//7
f 11//10 19//17 9//8
f 20//18 12//11 10//9
f 12//11 21//19 11//10
f 1//1 13//12 23//21
f 2//2 24//13 14//13
f 15//14 23//21 13//12
f 24//13 16//13 14//13
f 17//15 25//22 15//14
f 26//13 18//16 16//13
f 19//17 27//23 17//15
f 28//24 20//18 18//16
f 21//19 29//25 19//17
f 30//26 22//20 20//18
f 22//20 31//27 21//19
f 1//1 23//21 33//29
f 2//2 34//13 24//13
f 23//21 35//30 33//29
f 24//13 36//13 26//13
f 25//22 37//31 35//30
f 26//13 38//32 28//24
f 27//23 39//33 37//31
f 28//24 40//34 30//26
f 29//25 41//35 39//33
f 30//26 42//36 32//28
f 31//27 42//36 41//35
f 1//1 33//29 43//37
f 2//2 44//13 34//13
f 33//29 45//38 43//37
f 34//13 46//13 36//13
f 35//30 47//39 45//38
f 36//13 48//40 38//32
f 37//31 49//41 47//39
f 38//32 50//42 40//34
f 39//33 51//43 49//41
f 40//34 52//44 42//36
f 42//36 51//43 41//35
f 1//1 43//37 53//45
f 2//2 54//13 44//13
f 43//37 55//46 53//45
f 44//13 56//13 46//13
f 45//38 57//47 55//46
f 46//13 58//48 48//40
f 47//39 59//49 57//47
f 48//40 60//50 50//42
f 49//41 61//51 59//49
f 50//42 62//52 52//44
f 52//44 61//51 51//43
f 1//1 53//45 63//53
f 2//2 64//13 54//13
f 53//45 65//54 63//53
f 54//13 66//13 56//13
f 55//46 67//55 65//54
f 56//13 68//56 58//48
f 57//47 69//57 67//55
f 58//48 70//58 60//50
f 59//49 71//59 69//57
f 60//50 72//60 62//52
f 61//51 72//60 71//59
f 1//1 63//53 73//61
f 2//2 74//13 64//13
f 65//54 73//61 63//53
f 74//13 66//13 64//13
f 67//55 75//62 65//54
f 76//13 68//56 66//13
f 69//57 77//63 67//55
f 78//64 70//58 68//56
f 71//59 79//65 69//57
f 80//66 72//60 70//58
f 72//60 81//67 71//59
f 1//1 73//61 83//69
f 2//2 84//13 74//13
f 75//62 83//69 73//61
f 84//13 76//13 74//13
f 77//63 85//70 75//62
f 86//13 78//64 76//13
f 79//65 87//71 77//63
f 88//72 80//66 78//64
f 81//67 89//73 79//65
f 90//74 82//68 80//66
f 82//68 91//75 81//67
f 1//1 83//69 93//77
f 2//2 94//13 84//13
f 85//70 93//77 83//69
f 94//13 86//13 84//13
f 87//71 95//78 85//70
f 96//13 88//72 86//13
f 89//73 97//79 87//71
f 98//80 90//74 88//72
f 91//75 99//81 89//73
f 100//82 92//76 90//74
f 91//75 102//84 101//83
f 1//1 93//77 103//85
f 2//2 104//13 94//13
f 93//77 105//86 103//85
f 94//13 106//13 96//13
f 95//78 107//87 105//86
f 96//13 108//88 98//80
f 99//81 107//87 97//79
f 98//80 110//90 100//82
f 101//83 109//89 99//81
f 110//90 102//84 100//82
f 101//83 112//92 111//91
f 1//1 103//85 113//93
f 2//2 114//13 104//13
f 103//85 115//94 113//93
f 104//13 116//13 106//13
f 105//86 117//95 115//94
f 106//13 118//96 108//88
f 107//87 119//97 117//95
f 108//88 120//98 110//90
f 109//89 121//99 119//97
f 110//90 122//100 112//92
f 111//91 122//100 121//99
f 1//1 113//93 123//101
f 2//2 124//13 114//13
f 113//93 125//102 123//101
f 114//13 126//13 116//13
f 115//94 127//103 125//102
f 116//13 128//104 118//96
f 117//95 129//105 127//103
f 118//96 130//106 120//98
f 119//97 131//107 129//105
f 120//98 132//108 122//100
f 122//100 131//107 121//99
f 1//1 123//101 133//109
f 2//2 134//13 124//13
f 123//101 135//110 133//109
f 124//13 136//13 126//13
f 125//102 137//111 135//110
f 126//13 138//112 128//104
f 127//103 139//113 137//111
f 128//104 140//114 130//106
f 129//105 141//115 139//113
f 130//106 142//116 132//108
f 131//107 142//116 141//115
f 1//1 133//109 143//117
f 2//2 144//13 134//13
f 133//109 145//118 143//117
f 134//13 146//119 136//13
f 135//110 147//120 145//118
f 136//13 148//121 138//112
f 137//111 149//122 147//120
f 138//112 150//123 140//114
f 139//113 151//124 149//122
f 140//114 152//125 142//116
f 141//115 152//125 151//124
f 1//1 143//117 153//126
f 2//2 154//13 144//13
f 143//117 155//127 153//126
f 144//13 156//128 146//119
f 145//118 157//129 155//127
f 146//119 158//130 148//121
f 149//122 157//129 147//120
f 158//130 150//123 148//121
f 151//124 159//131 149//122
f 160//132 152//125 150//123
f 151//124 162//134 161//133
f 1//1 153//126 163//135
f 2//2 164//136 154//13
f 155//127 163//135 153//126
f 164//136 156//128 154//13
f 157//129 165//137 155//127
f 166//138 158//130 156//128
f 159//131 167//139 157//129
f 168//140 160//132 158//130
f 161//133 169//141 159//131
f 170//142 162//134 160//132
f 161//133 172//144 171//143
f 1//1 163//135 173//145
f 2//2 174//146 164//136
f 165//137 173//145 163//135
f 174//146 166//138 164//136
f 167//139 175//147 165//137
f 176//148 168//140 166//138
f 169//141 177//149 167//139
f 178//150 170//142 168//140
f 171//143 179//151 169//141
f 180//152 172//144 170//142
f 171//143 182//154 181//153
f 1//1 173//145 183//155
f 2//2 184//156 174//146
f 173//145 185//157 183//155
f 174//146 186//158 176//148
f 175//147 187//159 185//157
f 176//148 188//160 178//150
f 177//149 189//161 187//159
f 178//150 190//162 180//152
f 179//151 191//163 189//161
f 180//152 192//164 182//154
f 181//153 192//164 191//163
f 1//1 183//155 193//165
f 2//2 194//166 184//156
f 183//155 195//167 193//165
f 184//156 196//168 186//158
f 185//157 197//169 195//167
f 186//158 198//170 188//160
f 187//159 199//171 197//169
f 188//160 200//172 190//162
f 189//161 201//173 199//171
f 190//162 202//174 192//164
f 192//164 201//173 191//163
f 1//1 193//165 203//175
f 2//2 204//176 194//166
f 193//165 205//177 203//175
f 194//166 206//178 196//168
f 195//167 207//179 205//177
f 196//168 208//180 198//170
f 197//169 209//181 207//179
f 198//170 210//182 200//172
f 199//171 211//183 209//181
f 200//172 212//184 202//174
f 201//173 212//184 211//183
f 1//1 203//175 213//185
f 2//2 214//186 204//176
f 203//175 215//187 213//185
f 204//176 216//188 206//178
f 205//177 217//189 215//187
f 206//178 218//190 208//180
f 207//179 219//191 217//189
f 208//180 220//192 210//182
f 209//181 221//193 219//191
f 210//182 222//194 212//184
f 211//183 222//194 221//193
f 1//1 213//185 223//195
f 2//2 224//196 214//186
f 213//185 225//197 223//195
f 214//186 226//198 216//188
f 215//187 227//199 225//197
f 216//188 228//200 218//190
f 217//189 229//201 227//199
f 218//190 230//202 220//192
f 219//191 231//203 229//201
f 220//192 232//204 222//194
f 222//194 231//203 221//193
f 1//1 223//195 233//205
f 2//2 234//206 224//196
f 223//195 235//207 233//205
f 224//196 236//208 226//198
f 225//197 237//209 235//207
f 226//198 238//210 228//200
f 227//199 239//211 237//209
f 228//200 240//212 230//202
f 229//201 241//213 239//211
f 230//202 242//214 232//204
f 231//203 242//214 241//213
f 1//1 233//205 243//215
f 2//2 244//216 234//206
f 235//207 243//215 233//205
f 244//216 236//208 234//206
f 237//209 245//217 235//207
f 246//218 238//210 236//208
f 239//211 247//219 237//209
f 248//220 240//212 238//210
f 241//213 249//221 239//211
f 250//222 242//214 240//212
f 241//213 252//224 251//223
f 1//1 243//215 253//225
f 2//2 254//226 244//216
f 245//217 253//225 243//215
f 254//226 246//218 244//216
f 247//219 255//227 245//217
f 256//228 248//220 246//218
f 249//221 257//229 247//219
f 258//230 250//222 248//220
f 251//223 259//231 249//221
f 260//232 252//224 250//222
f 251//223 262//234 261//233
f 1//1 253//225 263//235
f 2//2 264//236 254//226
f 255//227 263//235 253//225
f 264//236 256//228 254//226
f 257//229 265//237 255//227
f 266//238 258//230 256//228
f 259//231 267//239 257//229
f 268//240 260//232 258//230
f 261//233 269//241 259//231
f 270//242 262//234 260//232
f 261//233 272//244 271//243
f 1//1 263//235 273//245
f 2//2 274//246 264//236
f 265//237 273//245 263//235
f 274//246 266//238 264//236
f 267//239 275//247 265//237
f 276//248 268//240 266//238
f 269//241 277//249 267//239
f 278//250 270//242 268//240
f 271//243 279//251 269//241
f 280//252 272//244 270//242
f 272//244 281//253 271//243
f 1//1 273//245 283//255
f 2//2 284//256 274//246
f 275//247 283//255 273//245
f 284//256 276//248 274//246
f 277//249 285//257 275//247
f 286//258 278//250 276//248
f 279//251 287//259 277//249
f 288//260 280//252 278//250
f 281//253 289//261 279//251
f 290//262 282//254 280//252
f 282//254 291//263 281//253
f 1//1 283//255 293//265
f 2//2 294//266 284//256
f 285//257 293//265 283//255
f 294//266 286//258 284//256
f 287//259 295//267 285//257
f 296//268 288//260 286//258
f 289//261 297//269 287//259
f 298//270 290//262 288//260
f 291//263 299//271 289//261
f 300//272 292//264 290//262
f 292//264 301//273 291//263
f 1//1 293//265 303//275
f 2//2 304//276 294//266
f 295//267 303//275 293//265
f 304//276 296//268 294//266
f 297//269 305//277 295//267
f 306//278 298//270 296//268
f 299//271 307//279 297//269
f 308//280 300//272 298//270
f 301//273 309//281 299//271
f 310//282 302//274 300//272
f 302//274 311//283 301//273
f 1//1 303//275 313//285
f 2//2 314//286 304//276
f 305//277 313//285 303//275
f 314//286 306//278 304//276
f 307//279 315//287 305//277
f 316//288 308//280 306//278
f 309//281 317//289 307//279
f 318//290 310//282 308//280
f 311//283 319//291 309//281
f 320//292 312//284 310//282
f 312//284 321//293 311//283
f 1//1 313//285 323//295
f 2//2 324//296 314//286
f 315//287 323//295 313//285
f 324//296 316//288 314//286
f 317//289 325//297 315//287
f 326//298 318//290 316//288
f 319//291 327//299 317//289
f 328//300 320//292 318//290
f 321//293 329//301 319//291
f 330//302 322//294 320//292
f 322//294 331//303 321//293
f 2//2 3//3 1//1
f 4//4 5//5 3//3
f 6//4 7//6 5//5
f 7//6 10//9 9//8
f 9//8 12//11 11//10
f 323//295 2//2 1//1
f 325//297 324//296 323//295
f 327//299 326//298 325//297
f 327//299 330//302 328//300
f 329//301 332//304 330//302
f 5//5 15//14 13//12
f 14//13 16//13 6//4
f 7//6 17//15 15//14
f 16//13 18//16 8//7
f 9//8 19//17 17//15
f 18//16 20//18 10//9
f 11//10 21//19 19//17
f 20//18 22//20 12//11
f 12//11 22//20 21//19
f 15//14 25//22 23//21
f 24//13 26//13 16//13
f 17//15 27//23 25//22
f 26//13 28//24 18//16
f 19//17 29//25 27//23
f 28//24 30//26 20//18
f 21//19 31//27 29//25
f 30//26 32//28 22//20
f 22//20 32//28 31//27
f 23//21 25//22 35//30
f 24//13 34//13 36//13
f 25//22 27//23 37//31
f 26//13 36//13 38//32
f 27//23 29//25 39//33
f 28//24 38//32 40//34
f 29//25 31//27 41//35
f 30//26 40//34 42//36
f 31//27 32//28 42//36
f 33//29 35//30 45//38
f 34//13 44//13 46//13
f 35//30 37//31 47//39
f 36//13 46//13 48//40
f 37//31 39//33 49//41
f 38//32 48//40 50//42
f 39//33 41//35 51//43
f 40//34 50//42 52//44
f 42//36 52//44 51//43
f 43//37 45//38 55//46
f 44//13 54//13 56//13
f 45//38 47//39 57//47
f 46//13 56//13 58//48
f 47//39 49//41 59//49
f 48//40 58//48 60//50
f 49//41 51//43 61//51
f 50//42 60//50 62//52
f 52//44 62//52 61//51
f 53//45 55//46 65//54
f 54//13 64//13 66//13
f 55//46 57//47 67//55
f 56//13 66//13 68//56
f 57//47 59//49 69//57
f 58//48 68//56 70//58
f 59//49 61//51 71//59
f 60//50 70//58 72//60
f 61//51 62//52 72//60
f 65//54 75//62 73//61
f 74//13 76//13 66//13
f 67//55 77//63 75//62
f 76//13 78//64 68//56
f 69//57 79//65 77//63
f 78//64 80//66 70//58
f 71//59 81//67 79//65
f 80//66 82//68 72//60
f 72//60 82//68 81//67
f 75//62 85//70 83//69
f 84//13 86//13 76//13
f 77//63 87//71 85//70
f 86//13 88//72 78//64
f 79//65 89//73 87//71
f 88//72 90//74 80//66
f 81//67 91//75 89//73
f 90//74 92//76 82//68
f 82//68 92//76 91//75
f 85//70 95//78 93//77
f 94//13 96//13 86//13
f 87//71 97//79 95//78
f 96//13 98//80 88//72
f 89//73 99//81 97//79
f 98//80 100//82 90//74
f 91//75 101//83 99//81
f 100//82 102//84 92//76
f 91//75 92//76 102//84
f 93//77 95//78 105//86
f 94//13 104//13 106//13
f 95//78 97//79 107//87
f 96//13 106//13 108//88
f 99//81 109//89 107//87
f 98//80 108//88 110//90
f 101//83 111//91 109//89
f 110//90 112//92 102//84
f 101//83 102//84 112//92
f 103//85 105//86 115//94
f 104//13 114//13 116//13
f 105//86 107//87 117//95
f 106//13 116//13 118//96
f 107//87 109//89 119//97
f 108//88 118//96 120//98
f 109//89 111//91 121//99
f 110//90 120//98 122//100
f 111//91 112//92 122//100
f 113//93 115//94 125//102
f 114//13 124//13 126//13
f 115//94 117//95 127//103
f 116//13 126//13 128//104
f 117//95 119//97 129//105
f 118//96 128//104 130//106
f 119//97 121//99 131//107
f 120//98 130//106 132//108
f 122//100 132//108 131//107
f 123//101 125//102 135//110
f 124//13 134//13 136//13
f 125//102 127//103 137//111
f 126//13 136//13 138//112
f 127//103 129//105 139//113
f 128//104 138//112 140//114
f 129//105 131//107 141//115
f 130//106 140//114 142//116
f 131//107 132//108 142//116
f 133//109 135//110 145//118
f 134//13 144//13 146//119
f 135//110 137//111 147//120
f 136//13 146//119 148//121
f 137//111 139//113 149//122
f 138//112 148//121 150//123
f 139//113 141//115 151//124
f 140//114 150//123 152//125
f 141//115 142//116 152//125
f 143//117 145//118 155//127
f 144//13 154//13 156//128
f 145//118 147//120 157//129
f 146//119 156//128 158//130
f 149//122 159//131 157//129
f 158//130 160//132 150//123
f 151//124 161//133 159//131
f 160//132 162//134 152//125
f 151//124 152//125 162//134
f 155//127 165//137 163//135
f 164//136 166//138 156//128
f 157//129 167//139 165//137
f 166//138 168//140 158//130
f 159//131 169//141 167//139
f 168//140 170//142 160//132
f 161//133 171//143 169//141
f 170//142 172//144 162//134
f 161//133 162//134 172//144
f 165//137 175//147 173//145
f 174//146 176//148 166//138
f 167//139 177//149 175//147
f 176//148 178//150 168//140
f 169//141 179//151 177//149
f 178//150 180//152 170//142
f 171//143 181//153 179//151
f 180//152 182//154 172//144
f 171//143 172//144 182//154
f 173//145 175//147 185//157
f 174//146 184//156 186//158
f 175//147 177//149 187//159
f 176//148 186//158 188//160
f 177//149 179//151 189//161
f 178//150 188//160 190//162
f 179//151 181//153 191//163
f 180//152 190//162 192//164
f 181//153 182//154 192//164
f 183//155 185//157 195//167
f 184//156 194//166 196//168
f 185//157 187//159 197//169
f 186//158 196//168 198//170
f 187//159 189//161 199//171
f 188//160 198//170 200//172
f 189//161 191//163 201//173
f 190//162 200//172 202//174
f 192//164 202//174 201//173
f 193//165 195//167 205//177
f 194//166 204//176 206//178
f 195//167 197//169 207//179
f 196//168 206//178 208//180
f 197//169 199//171 209//181
f 198//170 208//180 210//182
f 199//171 201//173 211//183
f 200//172 210//182 212//184
f 201//173 202//174 212//184
f 203//175 205//177 215//187
f 204//176 214//186 216//188
f 205//177 207//179 217//189
f 206//178 216//188 218//190
f 207//179 209//181 219//191
f 208//180 218//190 220//192
f 209//181 211//183 221//193
f 210//182 220//192 222//194
f 211//183 212//184 222//194
f 213//185 215//187 225//197
f 214//186 224//196 226//198
f 215//187 217//189 227//199
f 216//188 226//198 228//200
f 217//189 219//191 229//201
f 218//190 228//200 230//202
f 219//191 221//193 231//203
f 220//192 230//202 232//204
f 222//194 232//204 231//203
f 223//195 225//197 235//207
f 224//196 234//206 236//208
f 225//197 227//199 237//209
f 226//198 236//208 238//210
f 227//199 229//201 239//211
f 228//200 238//210 240//212
f 229//201 231//203 241//213
f 230//202 240//212 242//214
f 231//203 232//204 242//214
f 235//207 245//217 243//215
f 244//216 246//218 236//208
f 237//209 247//219 245//217
f 246//218 248//220 238//210
f 239//211 249//221 247//219
f 248//220 250//222 240//212
f 241//213 251//223 249//221
f 250//222 252//224 242//214
f 241//213 242//214 252//224
f 245//217 255//227 253//225
f 254//226 256//228 246//218
f 247//219 257//229 255//227
f 256//228 258//230 248//220
f 249//221 259//231 257//229
f 258//230 260//232 250//222
f 251//223 261//233 259//231
f 260//232 262//234 252//224
f 251//223 252//224 262//234
f 255//227 265//237 263//235
f 264//236 266//238 256//228
f 257//229 267//239 265//237
f 266//238 268//240 258//230
f 259//231 269//241 267//239
f 268//240 270//242 260//232
f 261//233 271//243 269//241
f 270//242 272//244 262//234
f 261//233 262//234 272//244
f 265//237 275//247 273//245
f 274//246 276//248 266//238
f 267//239 277//249 275//247
f 276//248 278//250 268//240
f 269//241 279//251 277//249
f 278//250 280//252 270//242
f 271//243 281//253 279//251
f 280//252 282//254 272//244
f 272//244 282//254 281//253
f 275//247 285//257 283//255
f 284//256 286//258 276//248
f 277//249 287//259 285//257
f 286//258 288//260 278//250
f 279//251 289//261 287//259
f 288//260 290//262 280//252
f 281//253 291//263 289//261
f 290//262 292//264 282//254
f 282//254 292//264 291//263
f 285//257 295//267 293//265
f 294//266 296//268 286//258
f 287//259 297//269 295//267
f 296//268 298//270 288//260
f 289//261 299//271 297//269
f 298//270 300//272 290//262
f 291//263 301//273 299//271
f 300//272 302//274 292//264
f 292//264 302//274 301//273
f 295//267 305//277 303//275
f 304//276 306//278 296//268
f 297//269 307//279 305//277
f 306//278 308//280 298//270
f 299//271 309//281 307//279
f 308//280 310//282 300//272
f 301//273 311//283 309//281
f 310//282 312//284 302//274
f 302//274 312//284 311//283
f 305//277 315//287 313//285
f 314//286 316//288 306//278
f 307//279 317//289 315//287
f 316//288 318//290 308//280
f 309//281 319//291 317//289
f 318//290 320//292 310//282
f 311//283 321//293 319//291
f 320//292 322//294 312//284
f 312//284 322//294 321//293
f 315//287 325//297 323//295
f 324//296 326//298 316//288
f 317//289 327//299 325//297
f 326//298 328//300 318//290
f 319//291 329//301 327//299
f 328//300 330//302 320//292
f 321//293 331//303 329//301
f 330//302 332//304 322//294
f 322//294 332//304 331//303
f 2//2 4//4 3//3
f 4//4 6//4 5//5
f 6//4 8//7 7//6
f 7//6 8//7 10//9
f 9//8 10//9 12//11
f 323//295 324//296 2//2
f 325//297 326//298 324//296
f 327//299 328//300 326//298
f 327//299 329//301 330//302
f 329//301 331//303 332//304
