# Blender 4.4.3
# www.blender.org
mtllib puff_shrub.mtl
o puff_shrub_main
v 0.000000 0.070392 0.000000
v 0.597724 0.323415 0.434267
v -0.205804 0.349066 0.633411
v -0.671250 0.347222 0.000000
v -0.195925 0.360328 -0.603004
v 0.594896 0.324647 -0.432212
v 0.218924 0.833231 0.673789
v -0.600846 0.845285 0.436535
v -0.561224 0.828033 -0.407748
v 0.197880 0.809242 -0.609023
v 0.672832 0.820677 0.000000
v 0.000000 1.127927 0.000000
v -0.196884 0.287542 0.605955
v -0.183917 0.217748 0.566049
v -0.161112 0.153610 0.495859
v -0.124423 0.124683 0.382942
v -0.090786 0.094496 0.279414
v -0.061272 0.045284 0.188578
v -0.029184 0.029681 0.089820
v 0.072033 0.061386 0.052334
v 0.157142 0.056266 0.114169
v 0.255263 0.058317 0.185458
v 0.353858 0.085080 0.257090
v 0.390400 0.185629 0.283639
v 0.453601 0.238959 0.329557
v 0.537048 0.275139 0.390183
v 0.522340 0.308747 0.494184
v 0.403036 0.315553 0.516513
v 0.309378 0.304061 0.574697
v 0.193859 0.310524 0.596624
v 0.085086 0.311815 0.628849
v -0.022380 0.316471 0.652525
v -0.127334 0.318667 0.681323
v 0.560739 0.339519 -0.305547
v 0.642076 0.304104 -0.233245
v 0.645953 0.302416 -0.117327
v 0.630108 0.309315 0.000000
v 0.608960 0.318523 0.110608
v 0.652548 0.299544 0.237049
v 0.635552 0.306945 0.346312
v 0.070763 0.070595 -0.051412
v 0.158463 0.051834 -0.115129
v 0.251428 0.066211 -0.182671
v 0.326931 0.123020 -0.237527
v 0.417896 0.157595 -0.303616
v 0.485923 0.214396 -0.353039
v 0.509363 0.291043 -0.370070
v -0.618539 0.296190 0.000000
v -0.544178 0.249108 0.000000
v -0.521065 0.153872 0.000000
v -0.386262 0.143368 0.000000
v -0.308689 0.069700 0.000000
v -0.208747 0.016878 0.000000
v -0.093037 0.037929 0.000000
v -0.299862 0.316519 0.631124
v -0.403300 0.288785 0.597123
v -0.468492 0.293197 0.490158
v -0.532619 0.297017 0.386969
v -0.559587 0.317614 0.269373
v -0.615583 0.321550 0.176926
v -0.644108 0.335332 0.083811
v -0.185817 0.304187 -0.571895
v -0.180592 0.224365 -0.555814
v -0.162083 0.151018 -0.498849
v -0.132149 0.096183 -0.406720
v -0.090301 0.097108 -0.277922
v -0.062264 0.036564 -0.191632
v -0.029902 0.016042 -0.092031
v -0.670861 0.325018 -0.087292
v -0.654006 0.305189 -0.187969
v -0.581972 0.306971 -0.280149
v -0.497281 0.316036 -0.361294
v -0.442405 0.309371 -0.462864
v -0.378582 0.306858 -0.560526
v -0.291895 0.323617 -0.614355
v -0.123700 0.326229 -0.661880
v -0.025243 0.282286 -0.736007
v 0.088689 0.300305 -0.655474
v 0.200736 0.300833 -0.617791
v 0.322085 0.292577 -0.598300
v 0.433421 0.295340 -0.555453
v 0.507933 0.316330 -0.480554
v 0.675105 0.766388 0.050814
v 0.719141 0.716681 0.110972
v 0.701885 0.650249 0.166641
v 0.733378 0.583671 0.238285
v 0.733762 0.510295 0.306092
v 0.637564 0.452605 0.328048
v 0.656572 0.375408 0.405430
v 0.634852 0.382297 -0.392018
v 0.638107 0.452493 -0.328327
v 0.679204 0.515750 -0.283333
v 0.713520 0.583671 -0.231833
v 0.752794 0.655078 -0.178728
v 0.742263 0.720957 -0.114540
v 0.708130 0.775326 -0.053300
v 0.171973 0.779710 0.705718
v 0.116292 0.716237 0.715834
v 0.061223 0.653462 0.753716
v -0.000000 0.583671 0.762379
v -0.058883 0.516548 0.724901
v -0.111380 0.456704 0.685596
v -0.169869 0.390030 0.697083
v 0.587122 0.375889 0.497991
v 0.533680 0.446253 0.529453
v 0.491631 0.514011 0.572704
v 0.482248 0.583671 0.663756
v 0.401546 0.654890 0.658975
v 0.338814 0.721165 0.671547
v 0.259007 0.767857 0.631389
v -0.624713 0.781828 0.385757
v -0.668530 0.721102 0.343981
v -0.686422 0.652313 0.286343
v -0.716488 0.583671 0.232797
v -0.756565 0.511905 0.179623
v -0.704053 0.453451 0.108644
v -0.675941 0.400727 0.050877
v -0.256672 0.401145 0.625697
v -0.321676 0.453131 0.637578
v -0.393901 0.513807 0.646429
v -0.455897 0.583671 0.627488
v -0.496714 0.654051 0.578626
v -0.582701 0.733710 0.578085
v -0.509650 0.764035 0.432280
v -0.580749 0.789196 -0.492585
v -0.511163 0.715290 -0.507114
v -0.481073 0.651835 -0.560405
v -0.445370 0.583671 -0.612999
v -0.426298 0.508061 -0.699596
v -0.319958 0.453828 -0.634173
v -0.264925 0.395277 -0.645814
v -0.670746 0.402133 -0.050486
v -0.725878 0.449414 -0.112011
v -0.755995 0.511960 -0.179488
v -0.703467 0.583671 -0.228567
v -0.710422 0.654713 -0.296355
v -0.689464 0.725405 -0.354752
v -0.648939 0.789512 -0.400717
v 0.279238 0.782243 -0.680705
v 0.320612 0.713779 -0.635469
v 0.401625 0.654904 -0.659104
v 0.429536 0.583671 -0.591206
v 0.478290 0.515901 -0.557164
v 0.524656 0.448577 -0.520500
v 0.594281 0.373356 -0.504063
v -0.168450 0.391647 -0.691260
v -0.122694 0.443806 -0.755242
v -0.068510 0.505573 -0.843423
v 0.000000 0.583671 -0.782784
v 0.059550 0.651554 -0.733118
v 0.110255 0.709355 -0.678671
v 0.161426 0.767687 -0.662435
v 0.668916 0.841573 0.087039
v 0.622892 0.848904 0.179026
v 0.583034 0.860875 0.280660
v 0.517973 0.862442 0.376328
v 0.435069 0.853422 0.455189
v 0.351043 0.840347 0.519752
v 0.282440 0.835301 0.594455
v 0.131561 0.857472 0.703942
v 0.023183 0.860464 0.675953
v -0.083782 0.851359 0.619209
v -0.200282 0.865868 0.616393
v -0.297649 0.852680 0.552909
v -0.385180 0.839910 0.493630
v -0.468466 0.830239 0.443213
v -0.556795 0.826105 0.303398
v -0.664409 0.872961 0.241358
v -0.677256 0.878555 0.123012
v -0.634737 0.860042 -0.000000
v -0.651202 0.867211 -0.118280
v -0.597200 0.843698 -0.216943
v -0.576769 0.834802 -0.314282
v -0.516540 0.855541 -0.488696
v -0.434907 0.872991 -0.557358
v -0.286579 0.842675 -0.532344
v -0.189752 0.851031 -0.583986
v -0.092710 0.879886 -0.685198
v 0.022707 0.854780 -0.662072
v 0.121637 0.836818 -0.650841
v 0.278269 0.831585 -0.585676
v 0.355357 0.843502 -0.526140
v 0.478471 0.880332 -0.500599
v 0.584180 0.898074 -0.424430
v 0.574225 0.856687 -0.276419
v 0.629070 0.851534 -0.180802
v 0.635909 0.828847 -0.082744
v 0.028071 1.116540 0.086396
v 0.057324 1.087366 0.176427
v 0.096303 1.102572 0.296394
v 0.130552 1.065268 0.401806
v 0.151113 0.987041 0.465086
v 0.178311 0.938438 0.548793
v 0.201124 0.886177 0.619006
v 0.618845 0.871294 0.000000
v 0.612592 0.960295 0.000000
v 0.501438 0.997280 0.000000
v 0.407798 1.048523 0.000000
v 0.305530 1.092382 0.000000
v 0.190148 1.099963 0.000000
v 0.091583 1.120881 0.000000
v -0.074353 1.122781 0.054020
v -0.148903 1.083422 0.108183
v -0.241232 1.080146 0.175263
v -0.310137 1.020658 0.225325
v -0.412664 1.004411 0.299814
v -0.447582 0.923808 0.325184
v -0.491658 0.866127 0.357206
v -0.073898 1.119481 -0.053690
v -0.152207 1.094512 -0.110584
v -0.248398 1.094894 -0.180470
v -0.306088 1.014953 -0.222383
v -0.394938 0.986338 -0.286936
v -0.442208 0.919724 -0.321279
v -0.518856 0.881751 -0.376966
v 0.028835 1.131041 -0.088747
v 0.059094 1.102922 -0.181875
v 0.093122 1.085432 -0.286603
v 0.127721 1.054824 -0.393092
v 0.154553 0.996224 -0.475674
v 0.184726 0.951202 -0.568539
v 0.209438 0.898682 -0.644595
v 0.128969 1.118700 -0.093701
v 0.247411 1.118890 -0.101905
v 0.162416 1.085072 -0.190932
v 0.363278 1.084248 -0.104410
v 0.270773 1.055258 -0.196728
v 0.191659 1.037164 -0.283769
v 0.477218 1.040425 -0.105328
v 0.402123 1.042056 -0.211408
v 0.306333 1.015299 -0.298601
v 0.238038 1.022718 -0.404977
v 0.537673 0.957259 -0.096319
v 0.489173 0.974417 -0.201484
v 0.424065 0.982014 -0.308102
v 0.340953 0.972331 -0.400816
v 0.250659 0.946980 -0.468340
v 0.575095 0.880235 -0.086693
v 0.602394 0.932521 -0.203954
v 0.517583 0.925442 -0.299724
v 0.462986 0.939260 -0.415789
v 0.389870 0.941470 -0.522965
v 0.289349 0.913509 -0.578515
v -0.048180 1.106944 -0.148280
v -0.020365 1.116277 -0.265487
v -0.133799 1.094232 -0.217367
v 0.012220 1.055817 -0.356304
v -0.103761 1.056781 -0.319338
v -0.241696 1.103989 -0.309748
v 0.044894 1.017262 -0.461739
v -0.074108 1.025988 -0.432071
v -0.191766 1.020862 -0.388554
v -0.309308 1.019489 -0.348946
v 0.074451 0.956800 -0.540453
v -0.037841 0.949096 -0.493307
v -0.162519 0.983338 -0.500173
v -0.292617 0.995970 -0.475379
v -0.394206 0.972893 -0.410441
v 0.107277 0.917645 -0.646106
v -0.007749 0.929120 -0.629734
v -0.121495 0.915556 -0.567948
v -0.232760 0.911631 -0.524613
v -0.377272 0.941829 -0.532927
v -0.468073 0.918724 -0.461135
v -0.150448 1.088606 0.000000
v -0.253434 1.105259 -0.061376
v -0.258143 1.114950 0.062517
v -0.324498 1.040893 -0.117879
v -0.332194 1.051737 0.000000
v -0.326778 1.044105 0.118708
v -0.441024 1.033326 -0.192251
v -0.468396 1.061234 -0.068061
v -0.464191 1.056947 0.067450
v -0.401800 0.993335 0.175153
v -0.465922 0.937746 -0.225672
v -0.510539 0.971652 -0.123641
v -0.547686 0.999881 0.000000
v -0.546939 0.999314 0.132457
v -0.494218 0.959249 0.239378
v -0.529833 0.888058 -0.274959
v -0.560796 0.905846 -0.174616
v -0.592060 0.923807 -0.061450
v -0.579009 0.916309 0.060096
v -0.652677 0.958631 0.203225
v -0.571794 0.912164 0.296734
v -0.046523 1.088954 0.143182
v -0.126926 1.068004 0.206201
v -0.019797 1.101410 0.258077
v -0.215135 1.046809 0.275708
v -0.105138 1.063059 0.323575
v 0.012597 1.070354 0.367275
v -0.283890 0.983675 0.320271
v -0.205533 1.052248 0.416450
v -0.075253 1.032817 0.438742
v 0.043580 1.004575 0.448228
v -0.372477 0.951439 0.387817
v -0.287080 0.988169 0.466384
v -0.170944 1.004056 0.526101
v -0.038955 0.959855 0.507831
v 0.071909 0.944060 0.522000
v -0.426629 0.889058 0.420306
v -0.343830 0.910082 0.485687
v -0.252098 0.938879 0.568198
v -0.126266 0.928587 0.590249
v -0.006857 0.889372 0.557275
v 0.104311 0.908413 0.628245
v 0.124789 1.101362 0.090665
v 0.162065 1.083988 0.190519
v 0.224612 1.069571 0.092515
v 0.206256 1.071705 0.305382
v 0.274013 1.060902 0.199082
v 0.333621 1.043382 0.095887
v 0.240749 1.027718 0.409590
v 0.311132 1.022062 0.303279
v 0.400177 1.039839 0.210385
v 0.442141 1.006852 0.097586
v 0.261842 0.963188 0.489234
v 0.338725 0.969791 0.398197
v 0.437615 0.994742 0.317947
v 0.479046 0.966328 0.197313
v 0.580511 0.987024 0.103992
v 0.263020 0.883496 0.525874
v 0.349350 0.904283 0.468611
v 0.436552 0.918958 0.392049
v 0.501016 0.914503 0.290130
v 0.593172 0.927179 0.200832
v 0.639070 0.913226 0.096337
v 0.684303 0.786857 -0.147937
v 0.746062 0.735425 -0.229041
v 0.697481 0.813035 -0.270208
v 0.715455 0.658498 -0.288301
v 0.747378 0.752537 -0.368850
v 0.572230 0.794516 -0.343268
v 0.683937 0.583671 -0.345063
v 0.690317 0.664122 -0.418573
v 0.634191 0.744820 -0.460764
v 0.509071 0.796935 -0.443172
v 0.644481 0.512214 -0.394547
v 0.599257 0.583671 -0.435382
v 0.572460 0.658997 -0.493595
v 0.533309 0.738476 -0.547117
v 0.428852 0.791840 -0.526258
v 0.654948 0.433936 -0.475843
v 0.603478 0.508596 -0.515871
v 0.522439 0.583671 -0.526604
v 0.466872 0.654206 -0.557426
v 0.420393 0.725954 -0.598900
v 0.353429 0.787592 -0.607280
v 0.069614 0.783567 -0.685243
v 0.012130 0.728498 -0.744702
v -0.040069 0.805369 -0.721876
v -0.049066 0.652804 -0.710968
v -0.104351 0.730701 -0.718120
v -0.147344 0.791278 -0.640310
v -0.120919 0.583670 -0.783589
v -0.177875 0.661119 -0.756544
v -0.219029 0.729379 -0.674098
v -0.276904 0.807212 -0.651033
v -0.183867 0.509055 -0.767342
v -0.231029 0.583670 -0.711036
v -0.295270 0.659699 -0.703474
v -0.325023 0.725189 -0.618227
v -0.366250 0.790861 -0.567799
v -0.227961 0.447226 -0.701599
v -0.293479 0.511227 -0.707649
v -0.357777 0.583670 -0.695333
v -0.391870 0.655302 -0.625851
v -0.433911 0.724087 -0.577211
v -0.491335 0.797603 -0.549504
v -0.704877 0.807256 -0.310899
v -0.717295 0.731127 -0.246048
v -0.692465 0.803319 -0.183255
v -0.734149 0.657085 -0.183752
v -0.682523 0.723978 -0.117060
v -0.686395 0.801393 -0.060549
v -0.708460 0.583671 -0.115094
v -0.713912 0.655062 -0.059562
v -0.753333 0.738535 0.000000
v -0.695352 0.804234 0.061340
v -0.724127 0.514983 -0.057307
v -0.823052 0.583671 0.000000
v -0.762375 0.659908 0.063606
v -0.712000 0.730039 0.122116
v -0.692480 0.803324 0.183259
v -0.697318 0.454697 0.000000
v -0.738947 0.513577 0.058481
v -0.792772 0.583672 0.128792
v -0.727706 0.656442 0.182140
v -0.704840 0.728567 0.241776
v -0.627344 0.782663 0.276702
v -0.473241 0.789724 0.529267
v -0.487662 0.741481 0.648714
v -0.373467 0.794943 0.578987
v -0.391243 0.655187 0.624849
v -0.351258 0.736611 0.668127
v -0.266237 0.798601 0.625954
v -0.327386 0.583670 0.636268
v -0.283053 0.656553 0.674365
v -0.230153 0.736778 0.708332
v -0.163614 0.814201 0.711011
v -0.286248 0.513012 0.690212
v -0.229460 0.583670 0.706205
v -0.165589 0.655769 0.704288
v -0.107625 0.735313 0.740648
v -0.037950 0.793644 0.683696
v -0.220241 0.451847 0.677838
v -0.170362 0.514536 0.710979
v -0.113732 0.583670 0.737015
v -0.052384 0.657479 0.759051
v 0.011346 0.719137 0.696566
v 0.074053 0.796315 0.728943
v 0.340082 0.779891 0.584345
v 0.434164 0.730615 0.618519
v 0.448526 0.801390 0.550402
v 0.482387 0.656550 0.575951
v 0.507533 0.730994 0.520674
v 0.517290 0.800377 0.450327
v 0.516583 0.583670 0.520702
v 0.578363 0.659773 0.498687
v 0.595260 0.734927 0.432480
v 0.590797 0.801356 0.354406
v 0.553082 0.514865 0.472791
v 0.627302 0.583670 0.455759
v 0.652740 0.659741 0.395790
v 0.662013 0.733249 0.326721
v 0.624999 0.789199 0.242129
v 0.615865 0.442871 0.447448
v 0.606615 0.516412 0.371367
v 0.703125 0.583669 0.354745
v 0.706914 0.657604 0.284861
v 0.686472 0.723303 0.210747
v 0.667813 0.781960 0.144373
v 0.216212 0.713083 -0.665439
v 0.327018 0.664393 -0.788519
v 0.174851 0.654627 -0.729716
v 0.384362 0.583671 -0.747001
v 0.259568 0.583671 -0.798869
v 0.110634 0.583671 -0.716942
v 0.397044 0.511093 -0.634114
v 0.307936 0.504380 -0.733649
v 0.171485 0.509005 -0.729364
v 0.054490 0.506894 -0.789568
v 0.428146 0.445119 -0.569543
v 0.345643 0.433174 -0.657446
v 0.223777 0.434804 -0.688707
v 0.105222 0.435413 -0.724117
v -0.012317 0.436614 -0.756165
v 0.480068 0.374644 -0.536903
v 0.390365 0.362838 -0.605185
v 0.280987 0.356833 -0.660632
v 0.151388 0.370365 -0.657883
v 0.037686 0.375158 -0.678940
v -0.069602 0.383810 -0.685121
v -0.595970 0.719922 -0.432993
v -0.558899 0.653199 -0.477764
v -0.648596 0.655583 -0.397067
v -0.514262 0.583671 -0.518363
v -0.608314 0.583671 -0.441964
v -0.666750 0.583671 -0.336393
v -0.484175 0.510521 -0.578086
v -0.543345 0.512176 -0.468493
v -0.645379 0.508457 -0.391327
v -0.678958 0.512660 -0.273595
v -0.429336 0.438360 -0.611643
v -0.488386 0.441905 -0.501033
v -0.576838 0.437095 -0.419097
v -0.673182 0.431568 -0.332234
v -0.685872 0.444159 -0.210564
v -0.368513 0.371046 -0.633199
v -0.473481 0.353837 -0.581027
v -0.554326 0.351448 -0.482571
v -0.594719 0.364539 -0.356761
v -0.661570 0.366115 -0.256298
v -0.688132 0.379348 -0.148766
v -0.596277 0.719992 0.433217
v -0.719067 0.663397 0.440209
v -0.624114 0.661312 0.533512
v -0.667617 0.583671 0.336830
v -0.650440 0.583671 0.472570
v -0.518345 0.583671 0.522479
v -0.738830 0.506398 0.297721
v -0.654377 0.507408 0.396783
v -0.560253 0.509951 0.483072
v -0.551939 0.500283 0.658994
v -0.719803 0.437258 0.220980
v -0.663966 0.433650 0.327686
v -0.566252 0.439785 0.411406
v -0.516669 0.433695 0.530049
v -0.451761 0.430770 0.643589
v -0.638746 0.394011 0.138089
v -0.609429 0.383261 0.236098
v -0.595306 0.364323 0.357113
v -0.506485 0.371489 0.440923
v -0.480964 0.350205 0.590210
v -0.367899 0.371400 0.632143
v 0.218610 0.714519 0.672819
v 0.176833 0.655432 0.737988
v 0.304677 0.658878 0.734651
v 0.112045 0.583671 0.726082
v 0.246017 0.583671 0.757161
v 0.343268 0.583671 0.667134
v 0.049539 0.513871 0.717823
v 0.161018 0.513562 0.684847
v 0.283631 0.510639 0.675742
v 0.416856 0.507472 0.665756
v -0.011414 0.447391 0.700747
v 0.104496 0.436437 0.719116
v 0.232192 0.429206 0.714606
v 0.336894 0.436984 0.640805
v 0.436949 0.442271 0.581253
v -0.072288 0.376095 0.711568
v 0.038910 0.368384 0.700997
v 0.145995 0.377963 0.634449
v 0.263160 0.371224 0.618720
v 0.367314 0.375879 0.569448
v 0.495249 0.368034 0.553881
v 0.751755 0.722713 0.000000
v 0.754848 0.655273 0.059739
v 0.843677 0.663699 -0.066768
v 0.748446 0.583671 0.121591
v 0.809532 0.583671 0.000000
v 0.843527 0.583671 -0.137037
v 0.766249 0.507046 0.191786
v 0.810054 0.502666 0.067583
v 0.821107 0.501560 -0.068506
v 0.779906 0.505680 -0.195204
v 0.671243 0.445682 0.230251
v 0.690154 0.441794 0.118369
v 0.714975 0.436692 -0.000000
v 0.688709 0.442091 -0.118121
v 0.685304 0.442791 -0.235074
v 0.651243 0.377098 0.287242
v 0.677444 0.368787 0.179279
v 0.689602 0.364931 0.060832
v 0.694259 0.363454 -0.061243
v 0.686214 0.366005 -0.181600
v 0.650997 0.377176 -0.287134
v 0.451247 0.260662 -0.444558
v 0.395045 0.193619 -0.411315
v 0.359009 0.242850 -0.507128
v 0.306736 0.151476 -0.346046
v 0.275290 0.195785 -0.447231
v 0.230735 0.258564 -0.520049
v 0.213132 0.124845 -0.273142
v 0.184271 0.163567 -0.373369
v 0.163661 0.181195 -0.503689
v 0.129145 0.230889 -0.603709
v 0.130437 0.085938 -0.211907
v 0.102664 0.115564 -0.315963
v 0.077318 0.122194 -0.450788
v 0.043465 0.163932 -0.566629
v 0.007836 0.234333 -0.636822
v 0.049337 0.047827 -0.151843
v 0.019070 0.084919 -0.248614
v -0.012674 0.094013 -0.369521
v -0.048412 0.116114 -0.497912
v -0.071960 0.223026 -0.522371
v -0.103502 0.261451 -0.623367
v -0.267014 0.279294 -0.533857
v -0.261535 0.204598 -0.488660
v -0.340921 0.270795 -0.457303
v -0.237229 0.146116 -0.403600
v -0.361180 0.171955 -0.424592
v -0.461078 0.229548 -0.414072
v -0.199898 0.110684 -0.295966
v -0.325618 0.124871 -0.317398
v -0.442528 0.167986 -0.321514
v -0.518009 0.241619 -0.299968
v -0.168067 0.064827 -0.197574
v -0.290220 0.078213 -0.210856
v -0.379467 0.151112 -0.199496
v -0.472037 0.206613 -0.194425
v -0.571363 0.252792 -0.193446
v -0.140694 0.000000 -0.102220
v -0.253551 0.035169 -0.104434
v -0.345599 0.107454 -0.099329
v -0.451797 0.151249 -0.099716
v -0.534015 0.212625 -0.095663
v -0.601013 0.273742 -0.090599
v -0.616597 0.265705 0.092949
v -0.503312 0.233958 0.090163
v -0.563384 0.257413 0.190745
v -0.418851 0.182782 0.092446
v -0.470369 0.207945 0.193739
v -0.511621 0.245837 0.296270
v -0.364818 0.080972 0.104853
v -0.377487 0.153369 0.198456
v -0.395052 0.212583 0.287021
v -0.446546 0.240709 0.401023
v -0.247841 0.047522 0.102083
v -0.279708 0.096522 0.203220
v -0.340878 0.103369 0.332275
v -0.344315 0.191180 0.404767
v -0.369915 0.244187 0.496195
v -0.134932 0.023905 0.098034
v -0.164789 0.074947 0.193722
v -0.195921 0.120095 0.290080
v -0.244693 0.132351 0.416300
v -0.256310 0.212172 0.478898
v -0.278767 0.265896 0.557357
v 0.525613 0.281708 -0.272768
v 0.585807 0.247127 -0.182404
v 0.516897 0.190858 -0.250362
v 0.588398 0.245638 -0.061070
v 0.510352 0.195831 -0.123596
v 0.398207 0.177670 -0.173586
v 0.582699 0.248913 0.060479
v 0.538657 0.174322 0.000000
v 0.470646 0.103814 -0.068388
v 0.360232 0.076099 -0.130860
v 0.604000 0.236675 0.188069
v 0.485272 0.214892 0.117523
v 0.457676 0.117039 0.066504
v 0.360940 0.075102 0.000001
v 0.268738 0.030587 -0.065082
v 0.564973 0.259096 0.293195
v 0.471898 0.225055 0.228567
v 0.421645 0.153776 0.183804
v 0.336636 0.109348 0.122289
v 0.236767 0.096386 0.057340
v 0.170690 0.010800 0.000000
v -0.105631 0.254820 0.636194
v -0.075283 0.206366 0.546500
v 0.007407 0.253486 0.601907
v -0.044738 0.151587 0.460134
v 0.039708 0.200223 0.517637
v 0.123113 0.247367 0.575511
v -0.013065 0.078859 0.380956
v 0.081005 0.100199 0.472273
v 0.154182 0.204509 0.474512
v 0.245023 0.238433 0.552250
v 0.020543 0.046442 0.267792
v 0.108323 0.089764 0.333376
v 0.184390 0.163299 0.373608
v 0.292768 0.171161 0.475623
v 0.342979 0.258069 0.484484
v 0.049510 0.045962 0.152371
v 0.139439 0.051594 0.226528
v 0.227532 0.093850 0.291594
v 0.302615 0.157285 0.341395
v 0.361675 0.226569 0.376570
v 0.419553 0.283349 0.413335
v -0.083777 0.774304 0.265513
v -0.393264 0.605091 -0.011598
v -0.069596 0.822794 0.220570
v -0.018066 0.789288 0.270976
v -0.380900 0.651571 -0.074366
v -0.057346 0.735075 0.313832
v -0.286850 0.756030 0.128882
v -0.133152 0.735075 0.289914
v -0.381053 0.584304 -0.074396
v -0.140723 0.789288 0.232274
v -0.207558 1.174112 0.657814
v -0.274840 0.794384 0.060584
v -0.388753 0.529885 -0.035615
v 0.018627 0.832574 -0.186551
v -0.373600 0.529885 -0.113226
v -0.312194 0.738878 0.068818
v -0.368747 0.605091 -0.137176
v -1.007653 0.585784 -0.196733
v 0.060588 0.858756 -0.112020
v -0.333885 0.693972 0.114174
v -0.078308 0.697643 -0.350938
v -0.350944 0.693972 0.036786
v 0.091979 0.820865 -0.170059
v -0.314452 0.756030 0.003666
v -0.938085 1.180555 0.206786
v -0.027779 0.731264 -0.341955
v 0.078036 0.790211 -0.238290
v 0.038707 0.812011 0.221072
v 0.156713 0.790211 -0.195736
v -0.029307 0.682607 -0.360771
v 0.145930 0.832574 -0.117697
v 0.272665 1.482261 -0.504127
v -0.006024 0.831770 0.193086
v -0.061120 0.643243 -0.373510
v 0.071067 0.715561 0.342257
v 0.000032 0.643243 -0.378478
v -0.007224 0.803175 0.231530
v 0.020638 0.697643 -0.358976
v -0.078325 0.917495 -0.964184
v 0.011627 0.754383 0.326462
v 0.019963 0.780041 0.263510
v 0.195601 0.694534 -0.307165
v -0.036352 0.780041 0.261753
v 0.012549 0.698199 0.352351
v -0.052413 0.812011 0.218229
v -0.021989 1.440036 0.704779
v 0.231139 0.736745 -0.254532
v 0.049637 0.652746 0.372001
v -0.023047 0.652746 0.374590
v 0.245804 0.675656 -0.270682
v -0.046538 0.715561 0.346445
v 0.042394 1.084806 1.190290
v 0.229443 0.626235 -0.309380
v 0.285895 0.626235 -0.258116
v 0.286944 0.694534 -0.224218
v 0.682696 0.907730 -0.751792
vn 0.1517 -0.9179 -0.3667
vn 0.4224 -0.8406 0.3391
vn 0.3137 -0.8990 -0.3056
vn 0.3004 -0.8608 0.4108
vn 0.3008 -0.8608 0.4106
vn 0.7083 -0.5732 0.4120
vn -0.5846 -0.4911 0.6459
vn -0.9141 -0.3186 0.2508
vn 0.2795 -0.4722 -0.8360
vn 0.3651 -0.7691 -0.5245
vn 0.6937 -0.4951 0.5231
vn -0.5923 -0.4829 0.6450
vn -0.9979 -0.0384 -0.0517
vn -0.2153 -0.8973 -0.3854
vn 0.8693 -0.4056 -0.2824
vn 0.5657 0.6771 0.4706
vn 0.0871 0.9275 0.3635
vn -0.7245 0.6682 -0.1689
vn 0.3327 -0.3853 -0.8607
vn 0.6661 0.7104 -0.2271
vn 0.0766 0.9953 0.0598
vn 0.2072 0.9765 0.0599
vn 0.0640 0.9741 0.2169
vn 0.3900 0.9094 0.1448
vn 0.4658 0.8513 0.2416
vn 0.3044 0.9148 -0.2656
vn 0.8936 0.0628 -0.4445
vn 0.1236 0.9920 0.0262
vn 0.1058 0.9609 -0.2558
vn 0.0115 0.9819 0.1888
vn -0.0247 0.9421 -0.3343
vn 0.1395 0.9497 -0.2805
vn 0.1596 0.9808 -0.1119
vn 0.2871 0.9542 0.0845
vn 0.2381 0.8326 -0.5001
vn 0.2026 0.8355 -0.5108
vn 0.2248 0.8930 -0.3900
vn 0.4260 0.8517 -0.3053
vn 0.4397 0.8910 -0.1132
vn 0.3553 0.9204 0.1634
vn 0.3475 0.9085 -0.2321
vn 0.0550 0.9355 -0.3489
vn 0.0552 0.9359 -0.3478
vn 0.1374 0.9375 -0.3198
vn 0.1811 0.9823 -0.0478
vn 0.2787 0.9604 -0.0078
vn 0.1843 0.8288 -0.5283
vn 0.8046 0.5911 0.0571
vn 0.7914 0.5454 -0.2760
vn 0.5891 0.6985 -0.4063
vn 0.6042 0.7311 -0.3169
vn 0.2019 0.8519 -0.4832
vn 0.2358 0.9218 -0.3076
vn 0.4362 0.8728 -0.2192
vn 0.3395 0.6362 -0.6928
vn 0.3751 0.6308 -0.6793
vn 0.4557 0.8501 -0.2641
vn 0.7508 0.2906 -0.5932
vn 0.8101 0.4417 0.3856
vn 0.3469 0.9379 -0.0070
vn 0.3187 0.8819 -0.3475
vn 0.5169 0.8164 -0.2575
vn 0.5216 0.8407 -0.1453
vn 0.2167 0.9317 -0.2916
vn 0.2421 0.9593 -0.1454
vn -0.0679 0.9605 -0.2699
vn -0.0872 0.9442 -0.3175
vn 0.3195 0.9320 -0.1710
vn 0.2530 0.8326 -0.4927
vn 0.6350 0.7327 -0.2449
vn 0.6348 0.7614 0.1319
vn 0.8466 0.3842 0.3684
vn 0.8616 0.1447 -0.4864
vn 0.6879 0.3514 -0.6351
vn 0.7102 0.6642 0.2335
vn 0.3191 0.9470 -0.0374
vn 0.2403 0.8172 -0.5239
vn 0.5879 0.7106 -0.3864
vn 0.2156 -0.0444 -0.9755
vn 0.5101 -0.1523 -0.8465
vn 0.6125 -0.0138 -0.7903
vn 0.6393 -0.0193 -0.7687
vn 0.3544 -0.3848 -0.8523
vn -0.1124 0.9937 -0.0016
vn -0.0603 0.9500 -0.3064
vn 0.2474 0.9655 -0.0809
vn -0.0878 0.9494 -0.3014
vn 0.0876 0.8256 -0.5574
vn -0.0704 0.8884 -0.4536
vn 0.1629 0.8358 -0.5243
vn -0.1687 0.9701 -0.1744
vn -0.1798 0.9676 -0.1771
vn 0.0670 0.9932 0.0950
vn -0.1756 0.9838 0.0367
vn -0.1274 0.9915 -0.0246
vn 0.0052 1.0000 -0.0017
vn 0.1342 0.8464 -0.5154
vn -0.1813 0.7874 -0.5892
vn -0.3387 0.8465 -0.4107
vn 0.2978 0.9211 -0.2506
vn 0.0288 0.9970 0.0716
vn -0.8107 0.5855 -0.0008
vn -0.1103 0.9219 -0.3713
vn -0.0181 0.9372 -0.3483
vn -0.0821 0.9557 -0.2827
vn -0.1510 0.9428 -0.2972
vn 0.2069 0.7357 -0.6449
vn -0.2676 0.5734 -0.7744
vn -0.7895 0.6122 0.0420
vn -0.3340 0.9416 0.0422
vn 0.0796 0.8048 -0.5882
vn -0.3201 0.6894 -0.6498
vn -0.1597 0.5678 -0.8075
vn 0.2229 0.6695 -0.7086
vn -0.1710 0.9195 -0.3539
vn 0.0330 0.9499 -0.3107
vn -0.0761 0.9784 -0.1921
vn -0.3452 0.9134 -0.2155
vn -0.4217 0.9011 -0.1006
vn -0.7961 0.6011 -0.0702
vn -0.0442 0.9322 -0.3592
vn 0.0463 0.9413 -0.3345
vn -0.1398 0.9749 -0.1736
vn -0.2164 0.9580 -0.1880
vn 0.2410 0.7553 -0.6095
vn -0.3159 0.5684 -0.7597
vn -0.1285 0.4304 -0.8935
vn 0.1676 0.5830 -0.7950
vn -0.3774 0.8839 -0.2763
vn -0.4370 0.8556 -0.2774
vn -0.6366 0.7630 0.1123
vn -0.4910 0.8670 0.0846
vn 0.0265 0.0631 -0.9977
vn 0.1269 0.0805 -0.9887
vn -0.0956 0.3639 -0.9265
vn 0.2711 0.4752 -0.8371
vn -0.2929 0.8923 -0.3434
vn -0.5932 0.7180 -0.3641
vn -0.3228 0.5355 -0.7804
vn -0.4519 0.4397 -0.7762
vn 0.0693 0.0576 -0.9959
vn 0.1986 0.1759 -0.9642
vn -0.5652 0.6524 -0.5049
vn -0.5643 0.6531 -0.5049
vn -0.7459 0.6449 -0.1667
vn -0.7232 0.6689 -0.1719
vn -0.0913 0.9953 -0.0309
vn -0.3397 0.9389 0.0555
vn 0.0648 0.9944 -0.0838
vn -0.6997 0.6548 -0.2858
vn 0.0256 0.9004 -0.4344
vn -0.7003 0.6496 -0.2961
vn -0.3837 0.9182 -0.0981
vn -0.3918 0.9196 -0.0298
vn -0.4381 0.8976 0.0493
vn 0.1298 0.9902 0.0508
vn 0.1991 0.9775 -0.0689
vn 0.2606 0.9645 0.0425
vn 0.1616 0.9495 0.2689
vn -0.6263 0.7739 -0.0938
vn -0.6167 0.7792 -0.1119
vn -0.6045 0.7921 -0.0849
vn -0.6845 0.7249 0.0778
vn -0.5401 0.7779 0.3211
vn -0.5158 0.8163 0.2600
vn 0.0816 0.9706 -0.2265
vn 0.0672 0.9765 -0.2046
vn 0.1110 0.9903 -0.0839
vn 0.0547 0.9981 0.0299
vn 0.0704 0.9957 0.0608
vn -0.1324 0.8180 0.5598
vn -0.4022 0.8790 0.2561
vn -0.2303 0.9673 -0.1060
vn -0.7398 0.3855 -0.5514
vn -0.7981 0.3733 -0.4730
vn -0.7805 0.5507 -0.2958
vn -0.7430 0.5686 -0.3530
vn -0.5876 0.8080 0.0438
vn -0.5680 0.8230 0.0067
vn -0.1308 0.8186 0.5593
vn -0.0744 0.9212 0.3819
vn -0.4138 0.9029 -0.1163
vn -0.6785 0.4713 0.5634
vn -0.4510 0.8500 -0.2721
vn -0.4404 0.8508 -0.2867
vn -0.4957 0.7359 -0.4613
vn -0.6391 0.7125 -0.2896
vn -0.6582 0.6666 -0.3499
vn -0.8972 0.4244 0.1225
vn -0.9348 0.3552 0.0068
vn -0.5789 0.6513 -0.4906
vn -0.0923 0.9166 0.3890
vn -0.1230 0.8422 0.5249
vn -0.1867 0.8680 0.4600
vn -0.2315 0.6014 0.7647
vn -0.6997 0.7044 -0.1189
vn -0.6548 0.7277 -0.2040
vn -0.7002 0.6339 -0.3284
vn -0.5791 0.6627 -0.4749
vn -0.5163 0.8122 -0.2715
vn -0.7528 0.6424 0.1437
vn -0.7670 0.6301 0.1212
vn -0.5018 0.8129 -0.2958
vn -0.5674 0.6631 -0.4881
vn -0.9761 0.1847 0.1147
vn -0.5888 0.3946 0.7054
vn -0.5063 -0.0215 0.8621
vn -0.6188 -0.0471 0.7841
vn -0.3514 0.9032 -0.2464
vn 0.0213 0.9921 0.1238
vn -0.1848 0.8984 0.3985
vn 0.0669 0.9878 0.1404
vn -0.4284 0.8184 0.3829
vn 0.0971 0.9362 0.3378
vn -0.6608 0.4704 0.5849
vn -0.6168 0.6858 0.3864
vn -0.0607 0.9268 0.3706
vn -0.0926 0.9380 0.3340
vn -0.1141 0.9772 0.1793
vn -0.2803 0.9591 -0.0388
vn 0.0535 0.9913 -0.1199
vn 0.0353 0.9900 -0.1369
vn 0.0168 0.9503 0.3110
vn -0.1773 0.9814 0.0743
vn -0.3411 0.9344 0.1027
vn -0.1755 0.9320 0.3171
vn -0.1091 0.9471 0.3017
vn -0.0624 0.9343 0.3509
vn -0.4441 0.7865 0.4291
vn -0.6702 0.7419 0.0171
vn -0.1336 0.9906 -0.0292
vn 0.1056 0.9682 0.2268
vn -0.1662 0.9423 0.2906
vn 0.1415 0.7941 0.5911
vn -0.1612 0.7348 0.6588
vn -0.0203 0.6256 0.7799
vn 0.0612 0.8672 0.4941
vn -0.3662 0.9298 -0.0366
vn -0.6316 0.7744 -0.0376
vn -0.3513 0.8113 0.4674
vn 0.0720 0.9213 0.3822
vn 0.3276 0.7304 0.5993
vn 0.1140 0.7124 0.6924
vn 0.0308 0.7786 0.6268
vn 0.0285 0.7782 0.6274
vn -0.0863 0.8491 0.5211
vn -0.5858 0.7111 0.3888
vn -0.5402 0.7068 0.4568
vn -0.6674 0.5956 0.4470
vn -0.6357 0.5862 0.5022
vn -0.3663 0.7819 0.5044
vn -0.0871 0.6148 0.7839
vn 0.3254 0.7168 0.6167
vn 0.3926 0.6413 0.6592
vn -0.0245 0.5666 0.8236
vn -0.3960 0.8273 0.3984
vn -0.0324 0.9445 0.3268
vn 0.2376 0.8146 0.5291
vn -0.6445 0.6282 0.4359
vn -0.4674 0.5891 0.6591
vn -0.6226 0.4401 0.6470
vn -0.5521 0.4076 0.7274
vn -0.6898 0.2436 0.6818
vn -0.5541 0.1475 0.8193
vn -0.1112 0.4913 0.8639
vn 0.0225 0.3619 0.9320
vn 0.3793 0.5005 0.7783
vn -0.2304 0.9304 0.2850
vn -0.3460 0.8877 0.3038
vn -0.1290 0.8006 0.5852
vn 0.2396 0.8432 0.4812
vn 0.3962 0.7212 0.5683
vn 0.0763 0.9914 0.1059
vn 0.1381 0.9545 0.2644
vn 0.0510 0.9886 -0.1419
vn 0.2423 0.9367 0.2528
vn 0.1676 0.6463 0.7445
vn 0.0835 0.8733 0.4800
vn 0.5743 0.7350 0.3605
vn 0.1464 0.9767 0.1567
vn 0.2058 0.9695 0.1334
vn 0.0092 0.9857 0.1681
vn 0.3021 0.9518 0.0528
vn 0.2941 0.9351 0.1976
vn 0.0627 0.9549 0.2903
vn 0.2704 0.9628 -0.0011
vn 0.1998 0.9794 0.0279
vn 0.2030 0.9791 -0.0145
vn 0.2344 0.9717 -0.0296
vn 0.2027 0.8948 0.3979
vn 0.3715 0.8663 0.3339
vn 0.2904 0.9122 0.2889
vn 0.4200 0.8775 0.2314
vn 0.4238 0.8877 0.1799
vn 0.1301 0.9433 0.3053
vn 0.1703 0.9830 -0.0685
vn 0.3173 0.9355 -0.1555
vn 0.3021 0.9105 0.2825
vn 0.4702 0.8593 0.2014
vn 0.0321 0.7807 0.6241
vn 0.4897 0.7363 0.4669
vn 0.5114 0.8069 0.2957
vn 0.1392 0.8840 0.4463
vn 0.1620 0.9289 0.3331
vn 0.6861 0.7246 0.0650
vn 0.6849 0.7274 0.0421
vn 0.1183 0.9344 0.3359
vn 0.1423 0.9898 -0.0106
vn 0.3124 0.9388 -0.1449
vn 0.4614 0.3762 0.8035
vn 0.4463 0.3793 0.8105
vn 0.5582 0.6478 0.5184
vn 0.4009 0.7001 0.5908
vn 0.3769 0.6449 0.6649
vn 0.7659 0.4440 0.4650
vn 0.7998 0.5844 0.1370
vn 0.2837 0.8643 0.4154
vn 0.2714 0.8342 0.4800
vn 0.7694 0.5835 0.2600
vn 0.7848 0.6140 0.0843
vn 0.9700 0.0682 -0.2333
vn 0.5705 0.7392 0.3579
vn 0.4199 0.7942 0.4392
vn 0.3412 0.5926 0.7296
vn 0.4448 0.5666 0.6936
vn 0.4625 0.6097 0.6437
vn 0.5251 0.5843 0.6188
vn 0.5801 0.7427 0.3345
vn 0.5400 0.7632 0.3547
vn 0.4873 0.6404 0.5937
vn 0.9101 0.2545 0.3270
vn 0.9001 0.2406 0.3632
vn 0.8610 0.3059 0.4064
vn 0.8472 0.3985 -0.3513
vn 0.6770 0.7220 -0.1429
vn 0.6360 0.7424 -0.2105
vn 0.7747 0.6209 -0.1194
vn 0.9925 0.1127 0.0472
vn 0.9105 -0.2639 -0.3185
vn 0.9274 -0.2849 -0.2423
vn 0.8837 -0.3866 -0.2636
vn 0.9773 -0.1654 0.1324
vn 0.6093 0.7909 -0.0571
vn 0.7291 0.6763 0.1056
vn 0.7178 0.6874 0.1107
vn 0.7742 0.5966 0.2112
vn 0.6826 0.6960 0.2226
vn 0.3368 0.9306 -0.1430
vn 0.9381 -0.1240 -0.3235
vn 0.9373 -0.3470 -0.0337
vn 0.8265 0.5577 0.0760
vn 0.1417 0.8742 -0.4645
vn 0.2806 0.6987 -0.6581
vn 0.9958 -0.0799 0.0446
vn 0.9458 -0.2109 -0.2471
vn 0.9480 -0.2523 -0.1938
vn 0.8700 -0.4560 -0.1876
vn 0.6288 0.0311 -0.7769
vn 0.1805 0.9364 -0.3009
vn 0.3525 0.9140 -0.2007
vn 0.7440 -0.4633 -0.4816
vn 0.5903 -0.2995 -0.7495
vn 0.9095 -0.3125 -0.2740
vn 0.7277 0.0707 -0.6823
vn 0.6025 -0.5639 -0.5649
vn 0.5025 -0.4097 -0.7614
vn 0.5379 -0.0654 -0.8405
vn 0.6461 -0.1811 -0.7415
vn 0.2999 0.8597 -0.4135
vn 0.3545 0.8479 -0.3942
vn 0.7106 -0.2031 -0.6736
vn 0.1406 0.2022 -0.9692
vn 0.9936 0.0173 0.1113
vn 0.8529 0.4266 -0.3010
vn 0.8737 0.3778 -0.3065
vn 0.6168 0.5915 -0.5194
vn 0.7461 -0.2201 -0.6283
vn 0.5160 0.0325 -0.8560
vn 0.5037 -0.2979 -0.8109
vn 0.4266 -0.2293 -0.8749
vn 0.2281 0.7078 -0.6686
vn 0.5902 0.5625 -0.5789
vn 0.4974 0.7088 -0.5002
vn 0.3008 0.7820 -0.5460
vn 0.7384 -0.6387 -0.2164
vn 0.3329 0.1033 -0.9373
vn 0.2796 -0.2968 -0.9131
vn 0.2828 -0.3012 -0.9107
vn 0.3173 0.2103 -0.9247
vn 0.5709 -0.0017 -0.8210
vn 0.5686 0.0906 -0.8176
vn 0.8268 -0.1830 -0.5318
vn 0.8202 0.2280 -0.5247
vn 0.2100 0.5992 -0.7726
vn 0.3130 0.2142 -0.9253
vn 0.7043 -0.0425 -0.7086
vn 0.3624 0.8287 -0.4266
vn -0.1117 0.8815 -0.4588
vn 0.5489 0.4356 -0.7135
vn 0.2490 0.0507 -0.9672
vn 0.5738 0.2355 -0.7844
vn -0.1423 0.6627 -0.7352
vn 0.0053 0.6104 -0.7921
vn -0.4665 -0.5638 -0.6816
vn -0.3917 -0.5558 -0.7332
vn 0.2796 0.3132 -0.9076
vn 0.1757 0.4073 -0.8962
vn 0.5737 0.2450 -0.7816
vn 0.3623 0.4827 -0.7973
vn 0.3622 0.4954 -0.7895
vn 0.2792 0.5756 -0.7686
vn -0.1957 -0.2628 -0.9448
vn -0.2202 -0.2430 -0.9447
vn -0.2178 0.1389 -0.9660
vn -0.5747 0.4608 -0.6763
vn -0.6022 -0.0328 -0.7977
vn -0.7330 0.1121 -0.6709
vn 0.0046 0.7220 -0.6919
vn 0.3158 0.5113 -0.7992
vn 0.3384 0.1550 -0.9282
vn -0.2729 0.6697 -0.6907
vn -0.2688 0.6824 -0.6798
vn 0.1212 0.3638 -0.9236
vn 0.1451 0.7312 -0.6665
vn -0.2376 0.9252 -0.2958
vn -0.5250 0.2669 -0.8082
vn -0.5295 0.2717 -0.8036
vn -0.5467 -0.1123 -0.8297
vn -0.3967 -0.2472 -0.8840
vn -0.3215 0.6443 -0.6939
vn -0.3660 0.6719 -0.6439
vn -0.4622 -0.0820 -0.8830
vn -0.6883 0.1175 -0.7158
vn -0.4274 0.8561 -0.2906
vn 0.2180 0.3003 -0.9286
vn -0.4019 -0.5170 -0.7558
vn -0.4212 -0.5025 -0.7551
vn -0.4438 0.3439 -0.8275
vn -0.1227 0.0595 -0.9907
vn -0.1229 -0.0052 -0.9924
vn -0.5839 0.4047 -0.7037
vn -0.5287 0.5739 -0.6254
vn -0.3259 0.4049 -0.8543
vn -0.3200 0.4424 -0.8378
vn -0.1258 0.2623 -0.9567
vn -0.1444 0.0050 -0.9895
vn -0.6371 0.4088 -0.6535
vn -0.3749 -0.5414 -0.7526
vn -0.5635 -0.3843 -0.7313
vn -0.5081 -0.5803 -0.6364
vn -0.0189 -0.7846 -0.6197
vn -0.0628 0.1128 -0.9916
vn -0.5712 0.5519 -0.6076
vn -0.6401 0.3559 -0.6809
vn -0.5733 0.2908 -0.7660
vn -0.5848 0.1988 -0.7865
vn -0.6636 0.2710 -0.6973
vn -0.6408 -0.2238 -0.7343
vn -0.4915 -0.3022 -0.8167
vn -0.4934 0.5184 -0.6985
vn -0.7054 0.6918 -0.1543
vn -0.4074 0.9035 -0.1332
vn -0.8289 0.1348 -0.5429
vn -0.9648 0.0786 -0.2511
vn -0.9417 -0.2760 -0.1926
vn -0.8178 0.5744 -0.0360
vn -0.9498 -0.1851 0.2523
vn -0.7663 -0.6023 0.2238
vn -0.2076 0.9270 -0.3124
vn -0.2117 0.9683 -0.1329
vn -0.9681 -0.0509 -0.2452
vn -0.9646 0.2436 0.1013
vn -0.3700 0.9268 0.0646
vn -0.4781 0.7587 -0.4425
vn -0.9772 0.0483 -0.2069
vn -0.8721 0.4157 0.2581
vn -0.9593 0.1002 0.2641
vn -0.9953 -0.0847 0.0479
vn -0.8616 0.5050 0.0505
vn -0.8127 0.5638 0.1473
vn -0.9305 -0.3639 -0.0409
vn -0.9687 -0.1943 0.1547
vn -0.8484 0.5087 0.1465
vn -0.8571 -0.0382 -0.5137
vn -0.7859 0.3384 -0.5175
vn -0.7153 0.6955 -0.0688
vn -0.7124 0.6984 -0.0686
vn -0.8011 0.4855 -0.3500
vn -0.8928 0.3914 0.2232
vn -0.6506 -0.3965 -0.6477
vn -0.6352 0.4434 -0.6324
vn -0.6270 0.7288 -0.2754
vn -0.9176 -0.1808 -0.3539
vn -0.8755 0.3607 0.3214
vn -0.8380 0.4458 0.3147
vn -0.9709 0.2381 0.0246
vn -0.9758 0.2172 0.0246
vn -0.9511 0.2860 0.1168
vn -0.9503 -0.1840 0.2510
vn -0.8618 -0.4938 -0.1163
vn -0.6016 -0.7941 -0.0866
vn -0.6963 -0.6989 0.1637
vn -0.8407 0.5042 0.1976
vn -0.8058 0.5362 0.2514
vn -0.8744 0.4048 0.2676
vn -0.9649 0.2556 0.0609
vn -0.9760 0.2091 0.0610
vn -0.6291 0.5409 0.5582
vn -0.8267 -0.1246 0.5487
vn -0.4370 0.1666 0.8839
vn -0.9106 -0.4100 -0.0524
vn -0.9070 -0.4168 -0.0610
vn -0.8415 -0.5370 -0.0583
vn -0.8090 -0.5743 -0.1256
vn -0.8451 -0.5185 -0.1301
vn -0.8063 0.0121 0.5914
vn -0.7750 0.2762 0.5684
vn -0.9219 0.1153 0.3698
vn -0.9298 -0.0095 0.3680
vn -0.9425 -0.0334 0.3324
vn -0.6308 0.7248 0.2770
vn -0.8185 0.5740 0.0241
vn -0.5295 0.8481 0.0193
vn -0.7638 0.5533 -0.3324
vn -0.0640 -0.1237 0.9903
vn -0.4741 0.8788 -0.0548
vn -0.4831 -0.5167 0.7069
vn -0.3761 0.3713 0.8490
vn -0.0667 0.2055 0.9764
vn -0.3280 -0.5067 0.7973
vn -0.3109 -0.5636 0.7653
vn -0.8477 0.4965 0.1867
vn -0.3337 0.8599 0.3863
vn -0.3130 0.8932 0.3229
vn -0.2185 0.9137 0.3426
vn -0.2813 0.8325 0.4772
vn -0.4288 0.7737 0.4664
vn -0.3244 -0.5710 0.7542
vn -0.1429 -0.4089 0.9013
vn -0.0494 0.8301 0.5555
vn -0.2775 0.7708 0.5735
vn -0.3076 0.6967 0.6481
vn -0.4985 0.5803 0.6440
vn -0.0678 0.0980 0.9929
vn -0.4038 -0.2187 0.8883
vn -0.3978 -0.2706 0.8767
vn -0.3091 -0.1907 0.9317
vn -0.2150 0.7336 0.6447
vn -0.5985 0.4925 0.6318
vn -0.5537 0.6217 0.5540
vn 0.0999 0.8891 0.4467
vn -0.3354 0.4405 0.8327
vn -0.5592 0.2722 0.7830
vn -0.5797 -0.0717 0.8117
vn -0.2384 0.2362 0.9420
vn -0.2412 -0.2392 0.9405
vn -0.2499 -0.2459 0.9365
vn -0.2488 0.1809 0.9515
vn 0.2612 0.4964 0.8279
vn 0.2491 0.8029 0.5416
vn -0.4406 0.4903 0.7520
vn -0.3229 -0.5098 0.7974
vn -0.1601 -0.3588 0.9196
vn -0.1748 -0.0816 0.9812
vn -0.2543 -0.1514 0.9552
vn -0.2494 0.2458 0.9367
vn -0.4347 0.0939 0.8957
vn -0.4324 -0.0948 0.8967
vn 0.3634 0.4507 0.8154
vn 0.3661 0.3883 0.8457
vn -0.3714 -0.0861 0.9245
vn -0.3490 0.4166 0.8394
vn -0.1991 0.5254 0.8272
vn -0.6299 -0.2888 0.7210
vn -0.0796 0.2366 0.9683
vn -0.0444 -0.4391 0.8973
vn -0.0999 -0.4835 0.8696
vn -0.1147 -0.2664 0.9570
vn -0.2052 -0.3337 0.9201
vn -0.2164 -0.1098 0.9701
vn 0.0496 0.0801 0.9956
vn 0.0584 0.6802 0.7307
vn -0.1295 0.5931 0.7946
vn -0.1815 -0.2514 0.9507
vn 0.2240 -0.0413 0.9737
vn 0.2526 0.1531 0.9554
vn 0.3712 0.2135 0.9037
vn 0.7777 0.0718 0.6245
vn 0.1984 0.8116 0.5495
vn 0.4489 0.2629 0.8540
vn 0.5395 0.6475 0.5383
vn 0.9580 -0.1715 0.2299
vn 0.8356 0.1895 0.5156
vn 0.6935 0.2200 0.6860
vn 0.4431 0.3073 0.8422
vn 0.6089 0.5249 0.5947
vn 0.2240 0.8069 0.5466
vn 0.0925 0.6807 0.7267
vn 0.0722 0.7220 0.6881
vn 0.2075 0.8705 0.4464
vn 0.7143 0.0646 0.6968
vn 0.7877 0.1730 0.5913
vn 0.7379 0.3842 0.5548
vn 0.7522 0.4140 0.5127
vn 0.5222 0.7773 0.3509
vn 0.4689 0.6746 0.5701
vn 0.9365 0.2690 0.2248
vn 0.6079 -0.2784 0.7436
vn 0.5803 0.3500 0.7354
vn 0.6312 0.4280 0.6469
vn 0.5874 0.5340 0.6081
vn 0.6247 0.6120 0.4850
vn 0.6406 0.5854 0.4969
vn 0.6522 0.6220 0.4333
vn 0.8483 0.0862 0.5225
vn 0.4801 -0.3153 0.8186
vn 0.4995 -0.1591 0.8516
vn 0.7961 0.1874 0.5754
vn 0.7688 0.3166 0.5556
vn 0.7904 0.3636 0.4931
vn 0.7048 0.5597 0.4359
vn 0.7125 0.6870 0.1427
vn 0.8887 0.3980 0.2276
vn 0.8842 0.3537 0.3051
vn 0.6683 0.3521 0.6552
vn 0.7547 0.5152 0.4062
vn 0.6790 -0.6462 0.3485
vn 0.5657 -0.7068 0.4247
vn 0.7833 0.2016 0.5880
vn 0.8472 0.3414 0.4071
vn 0.8641 0.2824 0.4166
vn 0.8843 0.4427 0.1485
vn 0.7513 0.6520 0.1025
vn 0.7647 0.5742 0.2924
vn 0.8523 0.3938 0.3441
vn 0.8446 0.3630 0.3936
vn 0.7954 0.1086 0.5963
vn 0.8888 0.4146 0.1953
vn 0.9279 0.3180 0.1946
vn 0.4107 -0.3673 0.8345
vn 0.4079 -0.3801 0.8301
vn 0.9417 0.2310 0.2446
vn 0.9512 0.1848 0.2471
vn 0.9265 0.3710 -0.0625
vn 0.9695 0.2384 -0.0561
vn 0.9505 0.0132 0.3104
vn 0.8188 0.5245 0.2333
vn 0.7741 0.6315 -0.0448
vn 0.9964 0.0485 0.0696
vn 0.9973 0.0684 0.0285
vn -0.1839 0.8327 -0.5223
vn 0.2527 -0.4224 -0.8705
vn 0.5233 0.8171 -0.2418
vn 0.9546 0.1102 -0.2768
vn 0.6784 0.1244 -0.7241
vn 0.4514 -0.1665 -0.8766
vn 0.2765 0.0462 -0.9599
vn -0.1420 -0.0882 -0.9859
vn 0.1162 0.1704 -0.9785
vn 0.0807 0.9496 -0.3030
vn -0.2636 0.7920 -0.5507
vn 0.0612 0.7185 -0.6928
vn 0.0033 0.6841 -0.7293
vn 0.8214 0.3533 -0.4477
vn 0.3762 -0.1983 -0.9051
vn -0.3523 0.4027 -0.8448
vn -0.4643 0.2683 -0.8441
vn 0.0344 -0.2071 -0.9777
vn 0.5033 0.1772 -0.8457
vn 0.9283 -0.2565 -0.2692
vn 0.5884 -0.6485 -0.4830
vn 0.3398 -0.4651 -0.8174
vn -0.0459 -0.6511 -0.7576
vn -0.4679 -0.2398 -0.8506
vn 0.4002 0.4582 -0.7937
vn 0.4683 0.4019 -0.7869
vn 0.3739 0.3416 -0.8623
vn 0.6556 -0.3472 -0.6705
vn 0.7182 -0.2835 -0.6355
vn 0.7229 -0.2889 -0.6277
vn 0.1749 -0.6747 -0.7170
vn -0.0442 -0.5038 -0.8627
vn 0.2707 -0.3088 -0.9118
vn 0.4185 -0.4337 -0.7980
vn 0.2097 -0.5752 -0.7907
vn 0.3155 -0.6351 -0.7051
vn -0.0572 -0.8009 -0.5961
vn 0.4539 -0.0768 -0.8878
vn 0.5982 0.0711 -0.7982
vn 0.7313 -0.0409 -0.6808
vn 0.4402 -0.3381 -0.8318
vn 0.2430 -0.1659 -0.9557
vn -0.0589 -0.3762 -0.9247
vn 0.2232 -0.6132 -0.7578
vn 0.1076 -0.6708 -0.7338
vn 0.1784 -0.7104 -0.6808
vn -0.0286 -0.7911 -0.6110
vn -0.0560 -0.7792 -0.6243
vn -0.0211 -0.7675 -0.6407
vn 0.2089 -0.6261 -0.7512
vn 0.7191 -0.2736 -0.6387
vn 0.6107 -0.1788 -0.7714
vn 0.3364 -0.4100 -0.8478
vn 0.4173 -0.4811 -0.7710
vn 0.0731 -0.6699 -0.7388
vn -0.0739 -0.5370 -0.8403
vn 0.3050 -0.3040 -0.9026
vn 0.1713 -0.1866 -0.9674
vn 0.5595 0.1244 -0.8194
vn 0.0888 0.4771 -0.8744
vn -0.5407 0.1760 -0.8226
vn 0.0257 -0.3948 -0.9184
vn -0.6462 -0.6333 -0.4259
vn -0.4035 0.8636 -0.3025
vn -0.6048 -0.4388 -0.6646
vn -0.7071 0.2271 -0.6697
vn -0.8081 0.0306 -0.5883
vn -0.8694 0.2611 -0.4194
vn -0.0172 -0.7833 -0.6214
vn -0.1363 0.0683 -0.9883
vn -0.7618 -0.3181 -0.5644
vn -0.6404 -0.1370 -0.7557
vn -0.6468 0.1432 -0.7491
vn -0.6614 0.1284 -0.7390
vn -0.6359 0.0922 -0.7663
vn -0.8380 -0.1778 -0.5160
vn -0.7269 -0.0676 -0.6834
vn -0.6298 0.0484 -0.7753
vn -0.6647 0.0906 -0.7416
vn -0.8599 -0.1845 -0.4760
vn -0.8301 -0.2220 -0.5115
vn -0.8788 -0.3716 -0.2993
vn -0.7998 0.1464 -0.5822
vn -0.8795 0.0263 -0.4752
vn -0.6064 -0.2740 -0.7465
vn -0.5803 -0.2383 -0.7788
vn -0.8701 0.1045 -0.4816
vn -0.9597 -0.0747 -0.2710
vn -0.9396 -0.1214 -0.3200
vn -0.7674 0.1329 -0.6272
vn -0.8133 -0.4421 -0.3784
vn -0.8065 -0.4189 -0.4171
vn -0.7981 -0.4277 -0.4244
vn -0.6629 -0.1821 -0.7263
vn -0.5777 -0.2529 -0.7761
vn -0.6237 -0.3219 -0.7123
vn -0.9520 0.1319 -0.2762
vn -0.9945 0.0045 -0.1042
vn -0.6885 -0.4522 -0.5670
vn -0.7283 -0.6332 -0.2619
vn -0.2160 0.1153 -0.9696
vn -0.4295 -0.1007 -0.8974
vn -0.8446 0.2746 -0.4597
vn -0.7124 0.4019 -0.5752
vn -0.6501 0.3347 -0.6822
vn -0.9526 -0.0257 -0.3032
vn -0.5876 -0.4391 -0.6797
vn -0.6604 -0.6158 -0.4298
vn -0.9636 -0.2567 -0.0739
vn -0.9610 -0.1726 -0.2161
vn -0.8898 -0.2982 -0.3453
vn -0.7821 -0.5623 0.2687
vn -0.0192 -0.3958 -0.9181
vn -0.2728 -0.7020 -0.6578
vn -0.2120 -0.7177 -0.6633
vn -0.3907 -0.8907 -0.2324
vn -0.2977 -0.9167 -0.2667
vn -0.3313 -0.9362 -0.1175
vn -0.4469 -0.8931 -0.0506
vn -0.4031 -0.7626 -0.5059
vn -0.6206 -0.6730 -0.4024
vn -0.6099 -0.6238 -0.4887
vn -0.9262 -0.3265 -0.1886
vn -0.9208 -0.3820 -0.0789
vn -0.9768 -0.0911 0.1939
vn -1.0000 0.0041 -0.0055
vn -0.3916 -0.4806 0.7847
vn -0.7703 0.1257 0.6252
vn -0.8847 0.4123 -0.2174
vn -0.9032 0.0646 0.4243
vn -0.9069 0.3920 0.1545
vn -0.8343 -0.5170 -0.1915
vn -0.7111 -0.6561 0.2527
vn -0.2522 0.5135 0.8202
vn -0.4532 0.8904 -0.0419
vn -0.3815 0.8673 0.3197
vn -0.3666 0.8438 0.3919
vn -0.8770 0.4790 0.0368
vn -0.3303 -0.3506 0.8763
vn -0.9128 -0.3728 -0.1668
vn -0.7735 -0.6261 0.0979
vn -0.6712 -0.3033 0.6763
vn -0.3011 -0.5235 0.7970
vn -0.3092 -0.5332 0.7875
vn -0.8508 -0.1421 0.5059
vn -0.7696 0.5263 0.3615
vn -0.7141 0.3518 0.6052
vn -0.9894 -0.0733 0.1252
vn -0.5431 -0.5776 0.6094
vn -0.3386 -0.2866 0.8962
vn -0.8824 0.4657 0.0673
vn -0.5548 0.7637 0.3300
vn 0.0498 0.3023 0.9519
vn -0.9153 -0.3846 0.1195
vn -0.7205 -0.5945 0.3569
vn -0.6751 -0.4557 0.5802
vn -0.5260 -0.5441 0.6537
vn -0.5436 -0.5765 0.6100
vn -0.8887 -0.2882 0.3566
vn -0.8719 -0.4895 0.0143
vn -0.5190 -0.8091 0.2758
vn 0.0869 -0.0945 0.9917
vn 0.0589 -0.0751 0.9954
vn -0.6102 -0.7676 -0.1962
vn -0.4430 -0.8959 0.0342
vn -0.4527 -0.8672 0.2076
vn -0.7041 -0.7095 -0.0289
vn -0.6113 -0.2934 0.7350
vn -0.6511 -0.2619 0.7124
vn -0.7785 -0.5529 0.2970
vn -0.9406 -0.3192 0.1153
vn -0.8682 -0.0139 0.4960
vn -0.2244 -0.4804 0.8478
vn 0.0634 -0.1019 0.9928
vn 0.0883 -0.1157 0.9894
vn -0.8966 -0.2537 0.3629
vn -0.9502 -0.1604 0.2673
vn -0.9503 -0.1609 0.2666
vn -0.8014 -0.3704 0.4696
vn -0.7960 -0.6053 -0.0018
vn -0.7424 -0.6678 0.0533
vn -0.6451 -0.2867 0.7082
vn -0.8478 -0.0820 0.5239
vn -0.9187 -0.3813 0.1027
vn -0.6023 -0.7236 0.3372
vn -0.2913 -0.2649 0.9192
vn -0.2255 -0.2968 0.9280
vn 0.0472 0.0399 0.9981
vn -0.0562 0.0924 0.9941
vn 0.6377 -0.1041 0.7633
vn 0.3780 -0.1871 0.9067
vn 0.1138 0.4382 0.8916
vn 0.3047 -0.1505 0.9405
vn 0.0431 -0.5156 0.8557
vn -0.1743 -0.4292 0.8862
vn -0.1057 0.2582 0.9603
vn 0.6538 0.0885 0.7515
vn -0.0263 0.6256 0.7797
vn 0.3213 0.5899 0.7408
vn -0.0025 0.7416 0.6708
vn -0.0325 0.7201 0.6932
vn 0.5727 0.4071 0.7116
vn 0.1341 -0.2789 0.9509
vn -0.2258 0.0424 0.9733
vn 0.0177 0.2740 0.9616
vn 0.6488 -0.2963 0.7009
vn 0.5612 -0.3746 0.7381
vn 0.0242 0.0942 0.9953
vn 0.2873 -0.3622 0.8867
vn 0.2654 -0.3443 0.9006
vn -0.1825 -0.5900 0.7865
vn 0.0326 -0.7365 0.6757
vn 0.6152 -0.4240 0.6646
vn 0.0759 0.0553 0.9956
vn 0.0243 0.0054 0.9997
vn 0.6655 -0.5581 0.4956
vn 0.0550 -0.2954 0.9538
vn -0.1650 -0.1007 0.9811
vn 0.2777 0.2127 0.9368
vn 0.0538 0.3723 0.9266
vn 0.0774 0.3892 0.9179
vn 0.5745 0.0275 0.8180
vn 0.0595 -0.3924 0.9179
vn 0.4031 -0.6757 0.6172
vn 0.7029 -0.4724 0.5317
vn 0.4648 -0.2532 0.8485
vn -0.1223 0.2502 0.9605
vn 0.0990 0.0662 0.9929
vn -0.1651 -0.1021 0.9810
vn 0.4563 -0.6118 0.6462
vn -0.0272 -0.8287 0.5590
vn 0.0211 -0.8525 0.5223
vn 0.4491 -0.6929 0.5641
vn 0.3549 -0.6300 0.6908
vn 0.4385 -0.5817 0.6851
vn 0.0995 -0.2745 0.9564
vn 0.4702 0.0443 0.8815
vn 0.5189 0.0120 0.8547
vn -0.1832 -0.3149 0.9313
vn 0.2000 -0.5998 0.7748
vn 0.0201 -0.6949 0.7188
vn 0.1124 -0.7458 0.6566
vn 0.4869 -0.5084 0.7102
vn 0.2655 -0.3214 0.9090
vn 0.0952 -0.4347 0.8955
vn 0.1385 -0.4745 0.8693
vn 0.4210 -0.2765 0.8639
vn 0.5231 -0.3657 0.7698
vn 0.0540 -0.6404 0.7662
vn 0.0963 -0.6840 0.7231
vn 0.4800 -0.5038 0.7182
vn 0.5716 -0.5842 0.5762
vn 0.8918 0.3285 0.3111
vn 0.5872 0.7804 0.2150
vn 0.8842 0.1431 0.4448
vn 0.8478 0.5188 0.1095
vn 0.9346 0.2440 0.2587
vn 0.5391 -0.8065 0.2427
vn 0.9790 0.1997 -0.0413
vn 0.6010 0.7573 0.2556
vn 0.8039 0.5899 -0.0757
vn 0.9127 0.2936 0.2842
vn 0.6958 0.4938 0.5215
vn 0.5106 0.8580 -0.0555
vn 0.5923 0.6088 -0.5277
vn 0.8492 0.2997 0.4348
vn 0.8540 0.2943 0.4290
vn 0.8065 0.1359 0.5754
vn 0.9492 -0.2085 0.2355
vn 0.6539 0.4985 -0.5692
vn 0.5678 0.2668 -0.7787
vn 0.9367 0.3284 0.1210
vn 0.8449 0.4546 0.2820
vn 0.8352 0.3555 0.4196
vn 0.9941 0.0733 0.0801
vn 0.9686 -0.0639 0.2403
vn 0.8359 -0.4678 -0.2870
vn 0.5848 0.1211 -0.8021
vn 0.6550 0.2177 -0.7236
vn 0.5856 -0.7883 0.1888
vn 0.5735 -0.8096 0.1251
vn 0.5118 -0.8330 0.2099
vn 0.4949 -0.8575 0.1407
vn 0.5446 -0.8371 0.0510
vn 0.4489 -0.8825 -0.1402
vn 0.4577 -0.8713 -0.1772
vn 0.5597 -0.8284 -0.0213
vn 0.5744 -0.4177 -0.7040
vn 0.8581 -0.2314 -0.4584
vn 0.9454 -0.0049 0.3259
vn 0.9671 -0.0818 0.2410
vn 0.9853 -0.0317 0.1676
vn 0.9909 -0.0853 0.1045
vn 0.9641 -0.1635 0.2092
vn 0.9522 -0.3028 0.0400
vn 0.9713 -0.0907 -0.2201
vn 0.9976 0.0225 -0.0662
vn 0.9995 -0.0084 -0.0291
vn 0.9184 -0.2187 -0.3296
vn 0.8837 -0.0990 -0.4575
vn 0.9852 0.0880 -0.1473
vn 0.9656 -0.2557 -0.0472
vn 0.9835 -0.0862 0.1588
vn 0.9594 -0.1416 0.2437
vn 0.7548 -0.5584 -0.3440
vn 0.5348 -0.8410 0.0823
vn 0.5703 -0.8024 0.1758
vn 0.6635 -0.7474 0.0344
vn 0.7118 -0.6889 0.1366
vn 0.8113 -0.5809 -0.0665
vn 0.8276 -0.5602 -0.0358
vn 0.8768 -0.3502 -0.3296
vn 0.3875 -0.5773 -0.7187
vn 0.4012 -0.9098 -0.1062
vn 0.6955 -0.6675 0.2659
vn 0.2136 -0.9517 -0.2206
vn 0.8021 -0.3524 -0.4821
vn 0.4245 -0.8277 -0.3669
vn 0.1582 -0.9475 -0.2779
vn 0.1706 -0.7923 -0.5857
vn -0.0793 -0.9472 -0.3108
vn -0.0414 -0.9725 0.2293
vn 0.6280 -0.7568 -0.1813
vn 0.5472 -0.7698 -0.3287
vn 0.4986 -0.6828 -0.5341
vn 0.4961 -0.6822 -0.5371
vn 0.3906 -0.8588 -0.3314
vn 0.2263 -0.8137 -0.5354
vn 0.1829 -0.9200 -0.3466
vn 0.1120 -0.8970 -0.4276
vn 0.1319 -0.8606 -0.4918
vn -0.0291 -0.7658 -0.6424
vn -0.0624 -0.8866 -0.4583
vn 0.0014 -0.9177 -0.3973
vn 0.0674 -0.9619 -0.2648
vn -0.0125 -0.9339 -0.3572
vn -0.0010 -0.9161 -0.4009
vn 0.2087 -0.9642 -0.1634
vn 0.4365 -0.5319 -0.7256
vn 0.5919 -0.6216 -0.5131
vn 0.5691 -0.6766 -0.4673
vn 0.2849 -0.4608 -0.8405
vn -0.0060 -0.8403 -0.5421
vn 0.2009 -0.9267 -0.3175
vn 0.2323 -0.8829 -0.4080
vn 0.4358 -0.8912 -0.1258
vn 0.4713 -0.8610 -0.1910
vn 0.3340 -0.8514 -0.4044
vn 0.3794 -0.7698 -0.5134
vn 0.1839 -0.6458 -0.7410
vn 0.2148 -0.5003 -0.8388
vn 0.4720 -0.7217 -0.5063
vn 0.1576 -0.9162 -0.3685
vn 0.1374 -0.9098 -0.3917
vn 0.1071 -0.9484 -0.2986
vn 0.2426 -0.9606 -0.1359
vn 0.2230 -0.9707 -0.0897
vn 0.1225 -0.9718 -0.2014
vn 0.1865 -0.9056 -0.3808
vn -0.4697 -0.2939 -0.8325
vn -0.5374 -0.7161 -0.4454
vn -0.2586 -0.9269 -0.2719
vn -0.2613 -0.9003 -0.3481
vn -0.6485 -0.5281 -0.5482
vn 0.4395 -0.8917 0.1084
vn 0.1870 -0.9484 -0.2562
vn 0.2355 -0.8806 -0.4112
vn 0.0676 -0.8063 -0.5877
vn -0.0976 -0.9940 -0.0491
vn -0.0227 -0.9996 0.0146
vn 0.0381 -0.9830 -0.1798
vn -0.2619 -0.8643 -0.4294
vn -0.0645 -0.2360 -0.9696
vn 0.2380 -0.5576 -0.7953
vn 0.1064 -0.9178 -0.3824
vn -0.5911 -0.1963 -0.7823
vn -0.6300 -0.5325 -0.5653
vn -0.6827 -0.4444 -0.5801
vn 0.2665 -0.4300 -0.8626
vn -0.3623 -0.2068 -0.9088
vn -0.4040 -0.6225 -0.6702
vn -0.4084 -0.8366 -0.3652
vn -0.1308 -0.9902 0.0496
vn -0.1929 -0.8316 -0.5208
vn 0.1612 -0.9550 -0.2491
vn 0.0370 -0.8705 -0.4907
vn -0.1103 -0.8847 -0.4530
vn -0.4890 -0.4775 -0.7300
vn -0.6218 -0.4383 -0.6490
vn -0.1698 -0.9480 -0.2692
vn -0.3388 -0.9198 -0.1978
vn -0.4651 -0.7859 -0.4074
vn -0.0804 -0.8319 -0.5490
vn -0.4889 -0.1822 -0.8531
vn -0.2473 -0.2584 -0.9339
vn -0.1401 -0.4923 -0.8591
vn -0.8791 -0.0814 -0.4696
vn -0.4282 -0.8920 -0.1451
vn -0.0575 -0.9540 -0.2941
vn -0.1311 -0.9229 -0.3619
vn -0.3223 -0.9014 -0.2890
vn -0.4870 -0.7691 -0.4139
vn -0.7097 -0.6438 -0.2860
vn -0.8940 -0.1091 -0.4345
vn -0.6138 -0.3932 -0.6846
vn -0.0454 -0.9110 -0.4099
vn -0.0557 -0.9118 -0.4069
vn -0.0372 -0.9199 -0.3905
vn -0.6372 -0.7611 -0.1216
vn -0.3471 -0.9365 0.0499
vn -0.5032 -0.8524 0.1422
vn -0.6882 -0.7230 0.0600
vn -0.4197 -0.9003 -0.1158
vn -0.7258 -0.6198 -0.2985
vn -0.5074 -0.7573 -0.4111
vn -0.1946 -0.8362 -0.5127
vn -0.2498 -0.8326 -0.4944
vn -0.0636 -0.9326 -0.3553
vn -0.6179 -0.7796 -0.1024
vn -0.6372 -0.7619 -0.1166
vn -0.3668 -0.8918 -0.2647
vn -0.4946 -0.7922 -0.3574
vn -0.5774 -0.7526 -0.3165
vn -0.4142 -0.8866 -0.2060
vn -0.6751 -0.7364 -0.0446
vn -0.5345 -0.8450 0.0180
vn -0.5888 -0.8060 0.0602
vn 0.1096 -0.9475 0.3005
vn 0.1723 -0.9470 0.2711
vn -0.2966 -0.9542 -0.0399
vn -0.4668 -0.8832 0.0456
vn -0.6185 -0.7828 -0.0677
vn -0.6885 -0.7250 -0.0197
vn -0.3759 -0.9100 0.1751
vn -0.0777 -0.9966 -0.0277
vn -0.5665 -0.7342 -0.3742
vn -0.9717 -0.2358 -0.0133
vn -0.6503 -0.7302 0.2094
vn -0.5320 -0.8402 0.1053
vn -0.5869 -0.8051 0.0859
vn -0.6846 -0.7071 0.1768
vn -0.6903 -0.7131 0.1224
vn -0.5170 -0.8165 -0.2570
vn -0.9020 -0.2189 0.3721
vn -0.0722 -0.9264 0.3695
vn -0.6613 -0.6963 -0.2791
vn -0.4655 -0.8808 0.0861
vn 0.1786 -0.9818 -0.0641
vn -0.9202 -0.3773 -0.1045
vn -0.9148 -0.3311 0.2312
vn -0.2705 -0.9619 -0.0390
vn -0.2678 -0.9613 0.0642
vn -0.7586 -0.5383 0.3671
vn -0.7437 -0.5129 0.4286
vn -0.4065 -0.6419 0.6502
vn -0.5166 -0.8548 -0.0504
vn -0.4665 -0.8815 -0.0730
vn -0.4687 -0.8731 0.1341
vn -0.8320 -0.4204 0.3620
vn -0.8443 -0.5262 0.1015
vn -0.8731 -0.4761 -0.1048
vn -0.8726 -0.4364 0.2194
vn -0.5046 -0.8623 -0.0424
vn -0.4751 -0.7721 0.4220
vn -0.2477 -0.9369 0.2466
vn -0.2638 -0.9574 0.1170
vn -0.5556 -0.7726 0.3073
vn -0.5550 -0.7693 0.3164
vn -0.2756 -0.9602 -0.0443
vn -0.2489 -0.9001 0.3576
vn -0.4516 -0.7343 0.5068
vn -0.4871 -0.8534 -0.1856
vn -0.9069 -0.4106 0.0947
vn -0.8931 -0.3066 0.3291
vn -0.4366 -0.8993 0.0247
vn -0.4166 -0.8322 0.3658
vn -0.4308 -0.8200 0.3768
vn -0.4442 -0.8645 0.2351
vn -0.1927 -0.9577 0.2137
vn -0.1711 -0.8905 0.4216
vn -0.1377 -0.9077 0.3964
vn -0.1398 -0.9132 0.3827
vn 0.1489 -0.9812 0.1226
vn 0.1578 -0.9751 0.1557
vn -0.4258 -0.5859 0.6895
vn -0.4300 -0.5951 0.6790
vn -0.1763 -0.8722 0.4563
vn -0.1551 -0.8353 0.5276
vn -0.0439 -0.9191 0.3916
vn 0.0319 -0.8198 0.5717
vn 0.0446 -0.9914 -0.1228
vn 0.0674 -0.9819 0.1770
vn -0.2341 -0.8863 0.3997
vn -0.2335 -0.8847 0.4034
vn -0.1847 -0.9115 0.3674
vn -0.2112 -0.9547 0.2098
vn -0.0411 -0.9959 0.0808
vn 0.0078 -0.9681 0.2505
vn -0.4765 -0.5844 0.6568
vn -0.5205 -0.7078 0.4776
vn -0.4414 -0.7942 0.4175
vn -0.3333 -0.5139 0.7905
vn -0.1019 -0.8336 0.5429
vn 0.1131 -0.3912 0.9133
vn 0.4972 -0.8360 0.2322
vn 0.3569 -0.6153 -0.7029
vn 0.6959 -0.7173 -0.0337
vn 0.7614 -0.6330 0.1400
vn 0.8587 -0.4704 0.2033
vn 0.8533 -0.3848 -0.3519
vn 0.4850 -0.8642 0.1340
vn 0.7885 -0.5856 -0.1879
vn 0.9273 -0.3249 -0.1860
vn 0.3282 -0.7884 -0.5203
vn 0.7704 -0.2214 -0.5979
vn 0.9324 -0.1683 -0.3199
vn 0.4543 -0.8286 -0.3270
vn 0.6903 -0.7231 -0.0236
vn 0.5503 -0.8347 -0.0220
vn 0.5938 -0.8022 0.0621
vn 0.1397 -0.9891 0.0460
vn 0.2240 -0.9575 0.1817
vn 0.4738 -0.8567 0.2040
vn 0.8109 -0.5827 0.0537
vn 0.8401 -0.5398 0.0539
vn 0.6634 -0.6966 -0.2732
vn 0.8114 -0.5154 -0.2755
vn 0.4061 -0.5926 -0.6957
vn 0.5193 -0.4890 -0.7009
vn 0.7611 -0.4718 -0.4452
vn 0.2953 -0.8371 -0.4604
vn 0.9561 -0.2299 -0.1817
vn 0.2556 -0.9574 -0.1345
vn 0.5265 -0.7010 0.4811
vn 0.7346 -0.4648 0.4942
vn 0.6440 -0.7529 0.1357
vn 0.3223 -0.9386 0.1230
vn 0.2481 -0.9687 -0.0087
vn 0.4400 -0.8979 -0.0092
vn 0.2328 -0.9207 -0.3132
vn -0.0566 -0.9578 -0.2818
vn 0.5742 -0.7309 0.3690
vn 0.1645 -0.9505 0.2638
vn 0.1189 -0.9874 0.1047
vn 0.7615 -0.6307 0.1494
vn 0.8158 -0.4311 0.3856
vn 0.2203 -0.9095 0.3525
vn 0.1978 -0.9330 0.3006
vn -0.0447 -0.9643 0.2612
vn 0.0760 -0.8699 0.4874
vn 0.4819 -0.7131 0.5091
vn -0.0306 -0.9425 -0.3327
vn -0.3867 -0.8809 -0.2729
vn 0.3998 -0.8788 0.2605
vn 0.2444 -0.9429 0.2263
vn 0.2298 -0.9577 0.1735
vn 0.5370 -0.8171 0.2098
vn 0.6059 -0.6832 0.4076
vn 0.8286 -0.4036 0.3881
vn 0.5703 -0.7927 -0.2156
vn 0.3962 -0.8935 -0.2115
vn 0.3190 -0.8949 -0.3120
vn 0.2433 -0.9196 -0.3084
vn 0.6101 -0.7086 0.3546
vn -0.2897 -0.9005 0.3242
vn -0.4848 -0.8717 -0.0714
vn -0.0607 -0.9943 -0.0875
vn -0.5855 -0.3997 0.7053
vn -0.4295 -0.5071 0.7473
vn 0.0463 -0.7299 0.6820
vn 0.0654 -0.9613 0.2675
vn -0.3743 -0.9158 0.1454
vn -0.3375 -0.8692 0.3613
vn 0.0635 -0.9824 0.1758
vn -0.4378 -0.6134 0.6573
vn 0.2171 -0.5131 0.8304
vn -0.0071 -0.8808 0.4734
vn 0.1439 -0.8495 0.5076
vn 0.2390 -0.5371 0.8090
vn 0.1523 -0.5743 0.8043
vn 0.1605 -0.8069 0.5685
vn 0.0958 -0.8249 0.5571
vn 0.0960 -0.8244 0.5578
vn 0.0828 -0.8278 0.5549
vn 0.1530 -0.5750 0.8038
vn 0.2343 -0.5340 0.8123
vn -0.3021 -0.7592 0.5765
vn -0.3612 -0.7542 0.5483
vn -0.2799 -0.4900 0.8256
vn 0.3487 -0.2639 0.8993
vn 0.1963 -0.8795 0.4336
vn 0.0075 -0.9197 0.3926
vn 0.1358 -0.4476 0.8838
vn 0.1432 -0.4431 0.8850
vn -0.3787 -0.9134 0.1492
vn 0.2108 -0.9214 0.3265
vn 0.1276 -0.9869 0.0992
vn 0.6324 -0.7532 0.1810
vn 0.7333 -0.5238 0.4335
vn -0.2248 -0.9238 0.3100
vn -0.1957 -0.7942 0.5753
vn 0.5738 -0.4041 0.7123
vn 0.5052 -0.6780 0.5339
vn 0.4204 -0.7354 0.5315
vn 0.0082 -0.9999 0.0062
vn 0.0490 -0.9987 0.0165
vn 0.1696 -0.9114 0.3750
vn 0.1622 -0.9133 0.3735
vn 0.2683 -0.6610 0.7008
vn 0.1499 -0.7142 0.6837
vn -0.0230 -0.9946 0.1011
vn 0.7234 -0.6793 0.1233
vn 0.8163 -0.5009 0.2876
vn 0.5518 -0.7700 0.3204
vn 0.5564 -0.7637 0.3274
vn 0.0013 -0.9545 0.2981
vn 0.2681 -0.9594 -0.0876
vn 0.0441 -0.9888 -0.1425
vn 0.0854 -0.9960 -0.0280
vn 0.0458 -0.9984 -0.0343
vn 0.1788 -0.9180 0.3540
vn 0.0224 -0.9463 0.3227
vn 0.1398 -0.7085 0.6917
vn 0.5904 -0.3997 0.7012
vn 0.5370 -0.6981 0.4735
vn 0.3479 -0.8135 0.4659
vn 0.3810 -0.7439 0.5490
vn 0.0329 -0.8775 0.4784
vn -0.0061 -0.9518 0.3067
vn 0.4276 -0.8407 0.3322
vn 0.2158 -0.6970 -0.6839
vn 0.9815 -0.0023 0.1916
vn 0.7064 0.6437 -0.2943
vn -0.1937 0.8063 0.5589
vn 0.8179 -0.1544 0.5543
vn 0.8041 -0.5674 -0.1773
vn -0.2293 -0.6477 0.7266
vn -0.9879 -0.1544 -0.0155
vn 0.5172 0.7042 0.4864
vn -0.4096 0.6437 -0.6464
vn -0.2656 -0.3077 0.9136
vn -0.2369 -0.8672 0.4380
vn -0.0856 -0.9962 -0.0167
vn 0.0975 -0.3077 -0.9465
vn -0.8290 0.4713 0.3011
vn 0.0307 0.8063 -0.5907
vn -0.0228 -0.2142 0.9765
vn 0.0755 -0.3617 0.9292
vn -0.6090 -0.7817 0.1342
vn -0.4313 -0.2142 -0.8764
vn -0.5659 0.7761 0.2783
vn 0.2648 0.7042 -0.6588
vn -0.6877 -0.0836 -0.7212
vn 0.0186 -0.8025 -0.5963
vn 0.4303 -0.4266 -0.7955
vn 0.9800 -0.0836 0.1808
vn 0.6061 0.5213 -0.6007
vn 0.2017 0.4713 0.8586
vn -0.9599 -0.2640 -0.0946
vn -0.0323 -0.4187 -0.9075
vn -0.0341 -0.9069 -0.4201
vn 0.9320 -0.2640 -0.2483
vn 0.5763 0.7563 -0.3098
vn 0.6034 0.7761 0.1833
vn 0.9408 -0.1450 0.3063
vn -0.6331 -0.3363 0.6972
vn -0.0259 -0.5568 0.8303
vn -0.9581 -0.1450 0.2471
vn -0.5683 0.7852 -0.2460
vn -0.5675 0.5213 -0.6374
vn 0.9554 -0.2575 0.1444
vn 0.0166 -0.8841 0.4670
vn -0.9427 -0.2575 0.2120
vn -0.5968 0.7563 -0.2680
vn -0.5844 -0.2647 -0.7671
vn 0.2734 -0.9135 -0.3011
vn 0.8197 -0.2647 0.5079
vn 0.2995 0.7852 0.5420
s 0
usemtl shadow_puff
f 1//1 20//1 19//1
f 2//2 26//2 40//2
f 1//3 19//3 54//3
f 1//4 54//4 68//4
f 1//5 68//5 41//5
f 2//6 40//6 89//6
f 3//7 33//7 103//7
f 4//8 61//8 117//8
f 5//9 75//9 131//9
f 6//10 82//10 145//10
f 2//11 89//11 104//11
f 3//12 103//12 118//12
f 4//13 117//13 132//13
f 5//14 131//14 146//14
f 6//15 145//15 90//15
f 7//16 159//16 194//16
f 8//17 166//17 208//17
f 9//18 173//18 215//18
f 10//19 180//19 222//19
f 11//20 187//20 195//20
f 201//21 216//21 12//21
f 200//22 223//22 201//22
f 199//23 224//23 200//23
f 198//24 226//24 199//24
f 197//25 229//25 198//25
f 196//26 233//26 197//26
f 195//27 238//27 196//27
f 201//28 223//28 216//28
f 223//29 217//29 216//29
f 200//30 224//30 223//30
f 224//31 225//31 223//31
f 223//32 225//32 217//32
f 225//33 218//33 217//33
f 199//34 226//34 224//34
f 226//35 227//35 224//35
f 224//36 227//36 225//36
f 227//37 228//37 225//37
f 225//38 228//38 218//38
f 228//39 219//39 218//39
f 198//40 229//40 226//40
f 229//41 230//41 226//41
f 226//42 230//42 227//42
f 230//43 231//43 227//43
f 227//44 231//44 228//44
f 231//45 232//45 228//45
f 228//46 232//46 219//46
f 232//47 220//47 219//47
f 197//48 233//48 229//48
f 233//49 234//49 229//49
f 229//50 234//50 230//50
f 234//51 235//51 230//51
f 230//52 235//52 231//52
f 235//53 236//53 231//53
f 231//54 236//54 232//54
f 236//55 237//55 232//55
f 232//56 237//56 220//56
f 237//57 221//57 220//57
f 196//58 238//58 233//58
f 238//59 239//59 233//59
f 233//60 239//60 234//60
f 239//61 240//61 234//61
f 234//62 240//62 235//62
f 240//63 241//63 235//63
f 235//64 241//64 236//64
f 241//65 242//65 236//65
f 236//66 242//66 237//66
f 242//67 243//67 237//67
f 237//68 243//68 221//68
f 243//69 222//69 221//69
f 195//70 187//70 238//70
f 187//71 186//71 238//71
f 238//72 186//72 239//72
f 186//73 185//73 239//73
f 239//74 185//74 240//74
f 185//75 184//75 240//75
f 240//76 184//76 241//76
f 184//77 183//77 241//77
f 241//78 183//78 242//78
f 183//79 182//79 242//79
f 242//80 182//80 243//80
f 182//81 181//81 243//81
f 243//82 181//82 222//82
f 181//83 10//83 222//83
f 216//84 209//84 12//84
f 217//85 244//85 216//85
f 218//86 245//86 217//86
f 219//87 247//87 218//87
f 220//88 250//88 219//88
f 221//89 254//89 220//89
f 222//90 259//90 221//90
f 216//91 244//91 209//91
f 244//92 210//92 209//92
f 217//93 245//93 244//93
f 245//94 246//94 244//94
f 244//95 246//95 210//95
f 246//96 211//96 210//96
f 218//97 247//97 245//97
f 247//98 248//98 245//98
f 245//99 248//99 246//99
f 248//100 249//100 246//100
f 246//101 249//101 211//101
f 249//102 212//102 211//102
f 219//103 250//103 247//103
f 250//104 251//104 247//104
f 247//105 251//105 248//105
f 251//106 252//106 248//106
f 248//107 252//107 249//107
f 252//108 253//108 249//108
f 249//109 253//109 212//109
f 253//110 213//110 212//110
f 220//111 254//111 250//111
f 254//112 255//112 250//112
f 250//113 255//113 251//113
f 255//114 256//114 251//114
f 251//115 256//115 252//115
f 256//116 257//116 252//116
f 252//117 257//117 253//117
f 257//118 258//118 253//118
f 253//119 258//119 213//119
f 258//120 214//120 213//120
f 221//121 259//121 254//121
f 259//122 260//122 254//122
f 254//123 260//123 255//123
f 260//124 261//124 255//124
f 255//125 261//125 256//125
f 261//126 262//126 256//126
f 256//127 262//127 257//127
f 262//128 263//128 257//128
f 257//129 263//129 258//129
f 263//130 264//130 258//130
f 258//131 264//131 214//131
f 264//132 215//132 214//132
f 222//133 180//133 259//133
f 180//134 179//134 259//134
f 259//135 179//135 260//135
f 179//136 178//136 260//136
f 260//137 178//137 261//137
f 178//138 177//138 261//138
f 261//139 177//139 262//139
f 177//140 176//140 262//140
f 262//141 176//141 263//141
f 176//142 175//142 263//142
f 263//143 175//143 264//143
f 175//144 174//144 264//144
f 264//145 174//145 215//145
f 174//146 9//146 215//146
f 209//147 202//147 12//147
f 210//148 265//148 209//148
f 211//149 266//149 210//149
f 212//150 268//150 211//150
f 213//151 271//151 212//151
f 214//152 275//152 213//152
f 215//153 280//153 214//153
f 209//154 265//154 202//154
f 265//155 203//155 202//155
f 210//156 266//156 265//156
f 266//157 267//157 265//157
f 265//158 267//158 203//158
f 267//159 204//159 203//159
f 211//160 268//160 266//160
f 268//161 269//161 266//161
f 266//162 269//162 267//162
f 269//163 270//163 267//163
f 267//164 270//164 204//164
f 270//165 205//165 204//165
f 212//166 271//166 268//166
f 271//167 272//167 268//167
f 268//168 272//168 269//168
f 272//169 273//169 269//169
f 269//170 273//170 270//170
f 273//171 274//171 270//171
f 270//172 274//172 205//172
f 274//173 206//173 205//173
f 213//174 275//174 271//174
f 275//175 276//175 271//175
f 271//176 276//176 272//176
f 276//177 277//177 272//177
f 272//178 277//178 273//178
f 277//179 278//179 273//179
f 273//180 278//180 274//180
f 278//181 279//181 274//181
f 274//182 279//182 206//182
f 279//183 207//183 206//183
f 214//184 280//184 275//184
f 280//185 281//185 275//185
f 275//186 281//186 276//186
f 281//187 282//187 276//187
f 276//188 282//188 277//188
f 282//189 283//189 277//189
f 277//190 283//190 278//190
f 283//191 284//191 278//191
f 278//192 284//192 279//192
f 284//193 285//193 279//193
f 279//194 285//194 207//194
f 285//195 208//195 207//195
f 215//196 173//196 280//196
f 173//197 172//197 280//197
f 280//198 172//198 281//198
f 172//199 171//199 281//199
f 281//200 171//200 282//200
f 171//201 170//201 282//201
f 282//202 170//202 283//202
f 170//203 169//203 283//203
f 283//204 169//204 284//204
f 169//205 168//205 284//205
f 284//206 168//206 285//206
f 168//207 167//207 285//207
f 285//208 167//208 208//208
f 167//209 8//209 208//209
f 202//210 188//210 12//210
f 203//211 286//211 202//211
f 204//212 287//212 203//212
f 205//213 289//213 204//213
f 206//214 292//214 205//214
f 207//215 296//215 206//215
f 208//216 301//216 207//216
f 202//217 286//217 188//217
f 286//218 189//218 188//218
f 203//219 287//219 286//219
f 287//220 288//220 286//220
f 286//221 288//221 189//221
f 288//222 190//222 189//222
f 204//223 289//223 287//223
f 289//224 290//224 287//224
f 287//225 290//225 288//225
f 290//226 291//226 288//226
f 288//227 291//227 190//227
f 291//228 191//228 190//228
f 205//229 292//229 289//229
f 292//230 293//230 289//230
f 289//231 293//231 290//231
f 293//232 294//232 290//232
f 290//233 294//233 291//233
f 294//234 295//234 291//234
f 291//235 295//235 191//235
f 295//236 192//236 191//236
f 206//237 296//237 292//237
f 296//238 297//238 292//238
f 292//239 297//239 293//239
f 297//240 298//240 293//240
f 293//241 298//241 294//241
f 298//242 299//242 294//242
f 294//243 299//243 295//243
f 299//244 300//244 295//244
f 295//245 300//245 192//245
f 300//246 193//246 192//246
f 207//247 301//247 296//247
f 301//248 302//248 296//248
f 296//249 302//249 297//249
f 302//250 303//250 297//250
f 297//251 303//251 298//251
f 303//252 304//252 298//252
f 298//253 304//253 299//253
f 304//254 305//254 299//254
f 299//255 305//255 300//255
f 305//256 306//256 300//256
f 300//257 306//257 193//257
f 306//258 194//258 193//258
f 208//259 166//259 301//259
f 166//260 165//260 301//260
f 301//261 165//261 302//261
f 165//262 164//262 302//262
f 302//263 164//263 303//263
f 164//264 163//264 303//264
f 303//265 163//265 304//265
f 163//266 162//266 304//266
f 304//267 162//267 305//267
f 162//268 161//268 305//268
f 305//269 161//269 306//269
f 161//270 160//270 306//270
f 306//271 160//271 194//271
f 160//272 7//272 194//272
f 188//273 201//273 12//273
f 189//274 307//274 188//274
f 190//275 308//275 189//275
f 191//276 310//276 190//276
f 192//277 313//277 191//277
f 193//278 317//278 192//278
f 194//279 322//279 193//279
f 188//280 307//280 201//280
f 307//281 200//281 201//281
f 189//282 308//282 307//282
f 308//283 309//283 307//283
f 307//284 309//284 200//284
f 309//285 199//285 200//285
f 190//286 310//286 308//286
f 310//287 311//287 308//287
f 308//288 311//288 309//288
f 311//289 312//289 309//289
f 309//290 312//290 199//290
f 312//291 198//291 199//291
f 191//292 313//292 310//292
f 313//293 314//293 310//293
f 310//294 314//294 311//294
f 314//295 315//295 311//295
f 311//296 315//296 312//296
f 315//297 316//297 312//297
f 312//298 316//298 198//298
f 316//299 197//299 198//299
f 192//300 317//300 313//300
f 317//301 318//301 313//301
f 313//302 318//302 314//302
f 318//303 319//303 314//303
f 314//304 319//304 315//304
f 319//305 320//305 315//305
f 315//306 320//306 316//306
f 320//307 321//307 316//307
f 316//308 321//308 197//308
f 321//309 196//309 197//309
f 193//310 322//310 317//310
f 322//311 323//311 317//311
f 317//312 323//312 318//312
f 323//313 324//313 318//313
f 318//314 324//314 319//314
f 324//315 325//315 319//315
f 319//316 325//316 320//316
f 325//317 326//317 320//317
f 320//318 326//318 321//318
f 326//319 327//319 321//319
f 321//320 327//320 196//320
f 327//321 195//321 196//321
f 194//322 159//322 322//322
f 159//323 158//323 322//323
f 322//324 158//324 323//324
f 158//325 157//325 323//325
f 323//326 157//326 324//326
f 157//327 156//327 324//327
f 324//328 156//328 325//328
f 156//329 155//329 325//329
f 325//330 155//330 326//330
f 155//331 154//331 326//331
f 326//332 154//332 327//332
f 154//333 153//333 327//333
f 327//334 153//334 195//334
f 153//335 11//335 195//335
f 96//336 187//336 11//336
f 95//337 328//337 96//337
f 94//338 329//338 95//338
f 93//339 331//339 94//339
f 92//340 334//340 93//340
f 91//341 338//341 92//341
f 90//342 343//342 91//342
f 96//343 328//343 187//343
f 328//344 186//344 187//344
f 95//345 329//345 328//345
f 329//346 330//346 328//346
f 328//347 330//347 186//347
f 330//348 185//348 186//348
f 94//349 331//349 329//349
f 331//350 332//350 329//350
f 329//351 332//351 330//351
f 332//352 333//352 330//352
f 330//353 333//353 185//353
f 333//354 184//354 185//354
f 93//355 334//355 331//355
f 334//356 335//356 331//356
f 331//357 335//357 332//357
f 335//358 336//358 332//358
f 332//359 336//359 333//359
f 336//360 337//360 333//360
f 333//361 337//361 184//361
f 337//362 183//362 184//362
f 92//363 338//363 334//363
f 338//364 339//364 334//364
f 334//365 339//365 335//365
f 339//366 340//366 335//366
f 335//367 340//367 336//367
f 340//368 341//368 336//368
f 336//369 341//369 337//369
f 341//370 342//370 337//370
f 337//371 342//371 183//371
f 342//372 182//372 183//372
f 91//373 343//373 338//373
f 343//374 344//374 338//374
f 338//375 344//375 339//375
f 344//376 345//376 339//376
f 339//377 345//377 340//377
f 345//378 346//378 340//378
f 340//379 346//379 341//379
f 346//380 347//380 341//380
f 341//381 347//381 342//381
f 347//382 348//382 342//382
f 342//383 348//383 182//383
f 348//384 181//384 182//384
f 90//385 145//385 343//385
f 145//386 144//386 343//386
f 343//387 144//387 344//387
f 144//388 143//388 344//388
f 344//389 143//389 345//389
f 143//390 142//390 345//390
f 345//391 142//391 346//391
f 142//392 141//392 346//392
f 346//393 141//393 347//393
f 141//394 140//394 347//394
f 347//395 140//395 348//395
f 140//396 139//396 348//396
f 348//397 139//397 181//397
f 139//398 10//398 181//398
f 152//399 180//399 10//399
f 151//400 349//400 152//400
f 150//401 350//401 151//401
f 149//402 352//402 150//402
f 148//403 355//403 149//403
f 147//404 359//404 148//404
f 146//405 364//405 147//405
f 152//406 349//406 180//406
f 349//407 179//407 180//407
f 151//408 350//408 349//408
f 350//409 351//409 349//409
f 349//410 351//410 179//410
f 351//411 178//411 179//411
f 150//412 352//412 350//412
f 352//413 353//413 350//413
f 350//414 353//414 351//414
f 353//415 354//415 351//415
f 351//416 354//416 178//416
f 354//417 177//417 178//417
f 149//418 355//418 352//418
f 355//419 356//419 352//419
f 352//420 356//420 353//420
f 356//421 357//421 353//421
f 353//422 357//422 354//422
f 357//423 358//423 354//423
f 354//424 358//424 177//424
f 358//425 176//425 177//425
f 148//426 359//426 355//426
f 359//427 360//427 355//427
f 355//428 360//428 356//428
f 360//429 361//429 356//429
f 356//430 361//430 357//430
f 361//431 362//431 357//431
f 357//432 362//432 358//432
f 362//433 363//433 358//433
f 358//434 363//434 176//434
f 363//435 175//435 176//435
f 147//436 364//436 359//436
f 364//437 365//437 359//437
f 359//438 365//438 360//438
f 365//439 366//439 360//439
f 360//440 366//440 361//440
f 366//441 367//441 361//441
f 361//442 367//442 362//442
f 367//443 368//443 362//443
f 362//444 368//444 363//444
f 368//445 369//445 363//445
f 363//446 369//446 175//446
f 369//447 174//447 175//447
f 146//448 131//448 364//448
f 131//449 130//449 364//449
f 364//450 130//450 365//450
f 130//451 129//451 365//451
f 365//452 129//452 366//452
f 129//453 128//453 366//453
f 366//454 128//454 367//454
f 128//455 127//455 367//455
f 367//456 127//456 368//456
f 127//457 126//457 368//457
f 368//458 126//458 369//458
f 126//459 125//459 369//459
f 369//460 125//460 174//460
f 125//461 9//461 174//461
f 138//462 173//462 9//462
f 137//463 370//463 138//463
f 136//464 371//464 137//464
f 135//465 373//465 136//465
f 134//466 376//466 135//466
f 133//467 380//467 134//467
f 132//468 385//468 133//468
f 138//469 370//469 173//469
f 370//470 172//470 173//470
f 137//471 371//471 370//471
f 371//472 372//472 370//472
f 370//473 372//473 172//473
f 372//474 171//474 172//474
f 136//475 373//475 371//475
f 373//476 374//476 371//476
f 371//477 374//477 372//477
f 374//478 375//478 372//478
f 372//479 375//479 171//479
f 375//480 170//480 171//480
f 135//481 376//481 373//481
f 376//482 377//482 373//482
f 373//483 377//483 374//483
f 377//484 378//484 374//484
f 374//485 378//485 375//485
f 378//486 379//486 375//486
f 375//487 379//487 170//487
f 379//488 169//488 170//488
f 134//489 380//489 376//489
f 380//490 381//490 376//490
f 376//491 381//491 377//491
f 381//492 382//492 377//492
f 377//493 382//493 378//493
f 382//494 383//494 378//494
f 378//495 383//495 379//495
f 383//496 384//496 379//496
f 379//497 384//497 169//497
f 384//498 168//498 169//498
f 133//499 385//499 380//499
f 385//500 386//500 380//500
f 380//501 386//501 381//501
f 386//502 387//502 381//502
f 381//503 387//503 382//503
f 387//504 388//504 382//504
f 382//505 388//505 383//505
f 388//506 389//506 383//506
f 383//507 389//507 384//507
f 389//508 390//508 384//508
f 384//509 390//509 168//509
f 390//510 167//510 168//510
f 132//511 117//511 385//511
f 117//512 116//512 385//512
f 385//513 116//513 386//513
f 116//514 115//514 386//514
f 386//515 115//515 387//515
f 115//516 114//516 387//516
f 387//517 114//517 388//517
f 114//518 113//518 388//518
f 388//519 113//519 389//519
f 113//520 112//520 389//520
f 389//521 112//521 390//521
f 112//522 111//522 390//522
f 390//523 111//523 167//523
f 111//524 8//524 167//524
f 124//525 166//525 8//525
f 123//526 391//526 124//526
f 122//527 392//527 123//527
f 121//528 394//528 122//528
f 120//529 397//529 121//529
f 119//530 401//530 120//530
f 118//531 406//531 119//531
f 124//532 391//532 166//532
f 391//533 165//533 166//533
f 123//534 392//534 391//534
f 392//535 393//535 391//535
f 391//536 393//536 165//536
f 393//537 164//537 165//537
f 122//538 394//538 392//538
f 394//539 395//539 392//539
f 392//540 395//540 393//540
f 395//541 396//541 393//541
f 393//542 396//542 164//542
f 396//543 163//543 164//543
f 121//544 397//544 394//544
f 397//545 398//545 394//545
f 394//546 398//546 395//546
f 398//547 399//547 395//547
f 395//548 399//548 396//548
f 399//549 400//549 396//549
f 396//550 400//550 163//550
f 400//551 162//551 163//551
f 120//552 401//552 397//552
f 401//553 402//553 397//553
f 397//554 402//554 398//554
f 402//555 403//555 398//555
f 398//556 403//556 399//556
f 403//557 404//557 399//557
f 399//558 404//558 400//558
f 404//559 405//559 400//559
f 400//560 405//560 162//560
f 405//561 161//561 162//561
f 119//562 406//562 401//562
f 406//563 407//563 401//563
f 401//564 407//564 402//564
f 407//565 408//565 402//565
f 402//566 408//566 403//566
f 408//567 409//567 403//567
f 403//568 409//568 404//568
f 409//569 410//569 404//569
f 404//570 410//570 405//570
f 410//571 411//571 405//571
f 405//572 411//572 161//572
f 411//573 160//573 161//573
f 118//574 103//574 406//574
f 103//575 102//575 406//575
f 406//576 102//576 407//576
f 102//577 101//577 407//577
f 407//578 101//578 408//578
f 101//579 100//579 408//579
f 408//580 100//580 409//580
f 100//581 99//581 409//581
f 409//582 99//582 410//582
f 99//583 98//583 410//583
f 410//584 98//584 411//584
f 98//585 97//585 411//585
f 411//586 97//586 160//586
f 97//587 7//587 160//587
f 110//588 159//588 7//588
f 109//589 412//589 110//589
f 108//590 413//590 109//590
f 107//591 415//591 108//591
f 106//592 418//592 107//592
f 105//593 422//593 106//593
f 104//594 427//594 105//594
f 110//595 412//595 159//595
f 412//596 158//596 159//596
f 109//597 413//597 412//597
f 413//598 414//598 412//598
f 412//599 414//599 158//599
f 414//600 157//600 158//600
f 108//601 415//601 413//601
f 415//602 416//602 413//602
f 413//603 416//603 414//603
f 416//604 417//604 414//604
f 414//605 417//605 157//605
f 417//606 156//606 157//606
f 107//607 418//607 415//607
f 418//608 419//608 415//608
f 415//609 419//609 416//609
f 419//610 420//610 416//610
f 416//611 420//611 417//611
f 420//612 421//612 417//612
f 417//613 421//613 156//613
f 421//614 155//614 156//614
f 106//615 422//615 418//615
f 422//616 423//616 418//616
f 418//617 423//617 419//617
f 423//618 424//618 419//618
f 419//619 424//619 420//619
f 424//620 425//620 420//620
f 420//621 425//621 421//621
f 425//622 426//622 421//622
f 421//623 426//623 155//623
f 426//624 154//624 155//624
f 105//625 427//625 422//625
f 427//626 428//626 422//626
f 422//627 428//627 423//627
f 428//628 429//628 423//628
f 423//629 429//629 424//629
f 429//630 430//630 424//630
f 424//631 430//631 425//631
f 430//632 431//632 425//632
f 425//633 431//633 426//633
f 431//634 432//634 426//634
f 426//635 432//635 154//635
f 432//636 153//636 154//636
f 104//637 89//637 427//637
f 89//638 88//638 427//638
f 427//639 88//639 428//639
f 88//640 87//640 428//640
f 428//641 87//641 429//641
f 87//642 86//642 429//642
f 429//643 86//643 430//643
f 86//644 85//644 430//644
f 430//645 85//645 431//645
f 85//646 84//646 431//646
f 431//647 84//647 432//647
f 84//648 83//648 432//648
f 432//649 83//649 153//649
f 83//650 11//650 153//650
f 139//651 152//651 10//651
f 140//652 433//652 139//652
f 141//653 434//653 140//653
f 142//654 436//654 141//654
f 143//655 439//655 142//655
f 144//656 443//656 143//656
f 145//657 448//657 144//657
f 139//658 433//658 152//658
f 433//659 151//659 152//659
f 140//660 434//660 433//660
f 434//661 435//661 433//661
f 433//662 435//662 151//662
f 435//663 150//663 151//663
f 141//664 436//664 434//664
f 436//665 437//665 434//665
f 434//666 437//666 435//666
f 437//667 438//667 435//667
f 435//668 438//668 150//668
f 438//669 149//669 150//669
f 142//670 439//670 436//670
f 439//671 440//671 436//671
f 436//672 440//672 437//672
f 440//673 441//673 437//673
f 437//674 441//674 438//674
f 441//675 442//675 438//675
f 438//676 442//676 149//676
f 442//677 148//677 149//677
f 143//678 443//678 439//678
f 443//679 444//679 439//679
f 439//680 444//680 440//680
f 444//681 445//681 440//681
f 440//682 445//682 441//682
f 445//683 446//683 441//683
f 441//684 446//684 442//684
f 446//685 447//685 442//685
f 442//686 447//686 148//686
f 447//687 147//687 148//687
f 144//688 448//688 443//688
f 448//689 449//689 443//689
f 443//690 449//690 444//690
f 449//691 450//691 444//691
f 444//692 450//692 445//692
f 450//693 451//693 445//693
f 445//694 451//694 446//694
f 451//695 452//695 446//695
f 446//696 452//696 447//696
f 452//697 453//697 447//697
f 447//698 453//698 147//698
f 453//699 146//699 147//699
f 145//700 82//700 448//700
f 82//701 81//701 448//701
f 448//702 81//702 449//702
f 81//703 80//703 449//703
f 449//704 80//704 450//704
f 80//705 79//705 450//705
f 450//706 79//706 451//706
f 79//707 78//707 451//707
f 451//708 78//708 452//708
f 78//709 77//709 452//709
f 452//710 77//710 453//710
f 77//711 76//711 453//711
f 453//712 76//712 146//712
f 76//713 5//713 146//713
f 125//714 138//714 9//714
f 126//715 454//715 125//715
f 127//716 455//716 126//716
f 128//717 457//717 127//717
f 129//718 460//718 128//718
f 130//719 464//719 129//719
f 131//720 469//720 130//720
f 125//721 454//721 138//721
f 454//722 137//722 138//722
f 126//723 455//723 454//723
f 455//724 456//724 454//724
f 454//725 456//725 137//725
f 456//726 136//726 137//726
f 127//727 457//727 455//727
f 457//728 458//728 455//728
f 455//729 458//729 456//729
f 458//730 459//730 456//730
f 456//731 459//731 136//731
f 459//732 135//732 136//732
f 128//733 460//733 457//733
f 460//734 461//734 457//734
f 457//735 461//735 458//735
f 461//736 462//736 458//736
f 458//737 462//737 459//737
f 462//738 463//738 459//738
f 459//739 463//739 135//739
f 463//740 134//740 135//740
f 129//741 464//741 460//741
f 464//742 465//742 460//742
f 460//743 465//743 461//743
f 465//744 466//744 461//744
f 461//745 466//745 462//745
f 466//746 467//746 462//746
f 462//747 467//747 463//747
f 467//748 468//748 463//748
f 463//749 468//749 134//749
f 468//750 133//750 134//750
f 130//751 469//751 464//751
f 469//752 470//752 464//752
f 464//753 470//753 465//753
f 470//754 471//754 465//754
f 465//755 471//755 466//755
f 471//756 472//756 466//756
f 466//757 472//757 467//757
f 472//758 473//758 467//758
f 467//759 473//759 468//759
f 473//760 474//760 468//760
f 468//761 474//761 133//761
f 474//762 132//762 133//762
f 131//763 75//763 469//763
f 75//764 74//764 469//764
f 469//765 74//765 470//765
f 74//766 73//766 470//766
f 470//767 73//767 471//767
f 73//768 72//768 471//768
f 471//769 72//769 472//769
f 72//770 71//770 472//770
f 472//771 71//771 473//771
f 71//772 70//772 473//772
f 473//773 70//773 474//773
f 70//774 69//774 474//774
f 474//775 69//775 132//775
f 69//776 4//776 132//776
f 111//777 124//777 8//777
f 112//778 475//778 111//778
f 113//779 476//779 112//779
f 114//780 478//780 113//780
f 115//781 481//781 114//781
f 116//782 485//782 115//782
f 117//783 490//783 116//783
f 111//784 475//784 124//784
f 475//785 123//785 124//785
f 112//786 476//786 475//786
f 476//787 477//787 475//787
f 475//788 477//788 123//788
f 477//789 122//789 123//789
f 113//790 478//790 476//790
f 478//791 479//791 476//791
f 476//792 479//792 477//792
f 479//793 480//793 477//793
f 477//794 480//794 122//794
f 480//795 121//795 122//795
f 114//796 481//796 478//796
f 481//797 482//797 478//797
f 478//798 482//798 479//798
f 482//799 483//799 479//799
f 479//800 483//800 480//800
f 483//801 484//801 480//801
f 480//802 484//802 121//802
f 484//803 120//803 121//803
f 115//804 485//804 481//804
f 485//805 486//805 481//805
f 481//806 486//806 482//806
f 486//807 487//807 482//807
f 482//808 487//808 483//808
f 487//809 488//809 483//809
f 483//810 488//810 484//810
f 488//811 489//811 484//811
f 484//812 489//812 120//812
f 489//813 119//813 120//813
f 116//814 490//814 485//814
f 490//815 491//815 485//815
f 485//816 491//816 486//816
f 491//817 492//817 486//817
f 486//818 492//818 487//818
f 492//819 493//819 487//819
f 487//820 493//820 488//820
f 493//821 494//821 488//821
f 488//822 494//822 489//822
f 494//823 495//823 489//823
f 489//824 495//824 119//824
f 495//825 118//825 119//825
f 117//826 61//826 490//826
f 61//827 60//827 490//827
f 490//828 60//828 491//828
f 60//829 59//829 491//829
f 491//830 59//830 492//830
f 59//831 58//831 492//831
f 492//832 58//832 493//832
f 58//833 57//833 493//833
f 493//834 57//834 494//834
f 57//835 56//835 494//835
f 494//836 56//836 495//836
f 56//837 55//837 495//837
f 495//838 55//838 118//838
f 55//839 3//839 118//839
f 97//840 110//840 7//840
f 98//841 496//841 97//841
f 99//842 497//842 98//842
f 100//843 499//843 99//843
f 101//844 502//844 100//844
f 102//845 506//845 101//845
f 103//846 511//846 102//846
f 97//847 496//847 110//847
f 496//848 109//848 110//848
f 98//849 497//849 496//849
f 497//850 498//850 496//850
f 496//851 498//851 109//851
f 498//852 108//852 109//852
f 99//853 499//853 497//853
f 499//854 500//854 497//854
f 497//855 500//855 498//855
f 500//856 501//856 498//856
f 498//857 501//857 108//857
f 501//858 107//858 108//858
f 100//859 502//859 499//859
f 502//860 503//860 499//860
f 499//861 503//861 500//861
f 503//862 504//862 500//862
f 500//863 504//863 501//863
f 504//864 505//864 501//864
f 501//865 505//865 107//865
f 505//866 106//866 107//866
f 101//867 506//867 502//867
f 506//868 507//868 502//868
f 502//869 507//869 503//869
f 507//870 508//870 503//870
f 503//871 508//871 504//871
f 508//872 509//872 504//872
f 504//873 509//873 505//873
f 509//874 510//874 505//874
f 505//875 510//875 106//875
f 510//876 105//876 106//876
f 102//877 511//877 506//877
f 511//878 512//878 506//878
f 506//879 512//879 507//879
f 512//880 513//880 507//880
f 507//881 513//881 508//881
f 513//882 514//882 508//882
f 508//883 514//883 509//883
f 514//884 515//884 509//884
f 509//885 515//885 510//885
f 515//886 516//886 510//886
f 510//887 516//887 105//887
f 516//888 104//888 105//888
f 103//889 33//889 511//889
f 33//890 32//890 511//890
f 511//891 32//891 512//891
f 32//892 31//892 512//892
f 512//893 31//893 513//893
f 31//894 30//894 513//894
f 513//895 30//895 514//895
f 30//896 29//896 514//896
f 514//897 29//897 515//897
f 29//898 28//898 515//898
f 515//899 28//899 516//899
f 28//900 27//900 516//900
f 516//901 27//901 104//901
f 27//902 2//902 104//902
f 83//903 96//903 11//903
f 84//904 517//904 83//904
f 85//905 518//905 84//905
f 86//906 520//906 85//906
f 87//907 523//907 86//907
f 88//908 527//908 87//908
f 89//909 532//909 88//909
f 83//910 517//910 96//910
f 517//911 95//911 96//911
f 84//912 518//912 517//912
f 518//913 519//913 517//913
f 517//914 519//914 95//914
f 519//915 94//915 95//915
f 85//916 520//916 518//916
f 520//917 521//917 518//917
f 518//918 521//918 519//918
f 521//919 522//919 519//919
f 519//920 522//920 94//920
f 522//921 93//921 94//921
f 86//922 523//922 520//922
f 523//923 524//923 520//923
f 520//924 524//924 521//924
f 524//925 525//925 521//925
f 521//926 525//926 522//926
f 525//927 526//927 522//927
f 522//928 526//928 93//928
f 526//929 92//929 93//929
f 87//930 527//930 523//930
f 527//931 528//931 523//931
f 523//932 528//932 524//932
f 528//933 529//933 524//933
f 524//934 529//934 525//934
f 529//935 530//935 525//935
f 525//936 530//936 526//936
f 530//937 531//937 526//937
f 526//938 531//938 92//938
f 531//939 91//939 92//939
f 88//940 532//940 527//940
f 532//941 533//941 527//941
f 527//942 533//942 528//942
f 533//943 534//943 528//943
f 528//944 534//944 529//944
f 534//945 535//945 529//945
f 529//946 535//946 530//946
f 535//947 536//947 530//947
f 530//948 536//948 531//948
f 536//949 537//949 531//949
f 531//950 537//950 91//950
f 537//951 90//951 91//951
f 89//952 40//952 532//952
f 40//953 39//953 532//953
f 532//954 39//954 533//954
f 39//955 38//955 533//955
f 533//956 38//956 534//956
f 38//957 37//957 534//957
f 534//958 37//958 535//958
f 37//959 36//959 535//959
f 535//960 36//960 536//960
f 36//961 35//961 536//961
f 536//962 35//962 537//962
f 35//963 34//963 537//963
f 537//964 34//964 90//964
f 34//965 6//965 90//965
f 47//966 82//966 6//966
f 46//967 538//967 47//967
f 45//968 539//968 46//968
f 44//969 541//969 45//969
f 43//970 544//970 44//970
f 42//971 548//971 43//971
f 41//972 553//972 42//972
f 47//973 538//973 82//973
f 538//974 81//974 82//974
f 46//975 539//975 538//975
f 539//976 540//976 538//976
f 538//977 540//977 81//977
f 540//978 80//978 81//978
f 45//979 541//979 539//979
f 541//980 542//980 539//980
f 539//981 542//981 540//981
f 542//982 543//982 540//982
f 540//983 543//983 80//983
f 543//984 79//984 80//984
f 44//985 544//985 541//985
f 544//986 545//986 541//986
f 541//987 545//987 542//987
f 545//988 546//988 542//988
f 542//989 546//989 543//989
f 546//990 547//990 543//990
f 543//991 547//991 79//991
f 547//992 78//992 79//992
f 43//993 548//993 544//993
f 548//994 549//994 544//994
f 544//995 549//995 545//995
f 549//996 550//996 545//996
f 545//997 550//997 546//997
f 550//998 551//998 546//998
f 546//999 551//999 547//999
f 551//1000 552//1000 547//1000
f 547//1001 552//1001 78//1001
f 552//1002 77//1002 78//1002
f 42//1003 553//1003 548//1003
f 553//1004 554//1004 548//1004
f 548//1005 554//1005 549//1005
f 554//1006 555//1006 549//1006
f 549//1007 555//1007 550//1007
f 555//1008 556//1008 550//1008
f 550//1009 556//1009 551//1009
f 556//1010 557//1010 551//1010
f 551//1011 557//1011 552//1011
f 557//1012 558//1012 552//1012
f 552//1013 558//1013 77//1013
f 558//1014 76//1014 77//1014
f 41//1015 68//1015 553//1015
f 68//1016 67//1016 553//1016
f 553//1017 67//1017 554//1017
f 67//1018 66//1018 554//1018
f 554//1019 66//1019 555//1019
f 66//1020 65//1020 555//1020
f 555//1021 65//1021 556//1021
f 65//1022 64//1022 556//1022
f 556//1023 64//1023 557//1023
f 64//1024 63//1024 557//1024
f 557//1025 63//1025 558//1025
f 63//1026 62//1026 558//1026
f 558//1027 62//1027 76//1027
f 62//1028 5//1028 76//1028
f 62//1029 75//1029 5//1029
f 63//1030 559//1030 62//1030
f 64//1031 560//1031 63//1031
f 65//1032 562//1032 64//1032
f 66//1033 565//1033 65//1033
f 67//1034 569//1034 66//1034
f 68//1035 574//1035 67//1035
f 62//1036 559//1036 75//1036
f 559//1037 74//1037 75//1037
f 63//1038 560//1038 559//1038
f 560//1039 561//1039 559//1039
f 559//1040 561//1040 74//1040
f 561//1041 73//1041 74//1041
f 64//1042 562//1042 560//1042
f 562//1043 563//1043 560//1043
f 560//1044 563//1044 561//1044
f 563//1045 564//1045 561//1045
f 561//1046 564//1046 73//1046
f 564//1047 72//1047 73//1047
f 65//1048 565//1048 562//1048
f 565//1049 566//1049 562//1049
f 562//1050 566//1050 563//1050
f 566//1051 567//1051 563//1051
f 563//1052 567//1052 564//1052
f 567//1053 568//1053 564//1053
f 564//1054 568//1054 72//1054
f 568//1055 71//1055 72//1055
f 66//1056 569//1056 565//1056
f 569//1057 570//1057 565//1057
f 565//1058 570//1058 566//1058
f 570//1059 571//1059 566//1059
f 566//1060 571//1060 567//1060
f 571//1061 572//1061 567//1061
f 567//1062 572//1062 568//1062
f 572//1063 573//1063 568//1063
f 568//1064 573//1064 71//1064
f 573//1065 70//1065 71//1065
f 67//1066 574//1066 569//1066
f 574//1067 575//1067 569//1067
f 569//1068 575//1068 570//1068
f 575//1069 576//1069 570//1069
f 570//1070 576//1070 571//1070
f 576//1071 577//1071 571//1071
f 571//1072 577//1072 572//1072
f 577//1073 578//1073 572//1073
f 572//1074 578//1074 573//1074
f 578//1075 579//1075 573//1075
f 573//1076 579//1076 70//1076
f 579//1077 69//1077 70//1077
f 68//1078 54//1078 574//1078
f 54//1079 53//1079 574//1079
f 574//1080 53//1080 575//1080
f 53//1081 52//1081 575//1081
f 575//1082 52//1082 576//1082
f 52//1083 51//1083 576//1083
f 576//1084 51//1084 577//1084
f 51//1085 50//1085 577//1085
f 577//1086 50//1086 578//1086
f 50//1087 49//1087 578//1087
f 578//1088 49//1088 579//1088
f 49//1089 48//1089 579//1089
f 579//1090 48//1090 69//1090
f 48//1091 4//1091 69//1091
f 48//1092 61//1092 4//1092
f 49//1093 580//1093 48//1093
f 50//1094 581//1094 49//1094
f 51//1095 583//1095 50//1095
f 52//1096 586//1096 51//1096
f 53//1097 590//1097 52//1097
f 54//1098 595//1098 53//1098
f 48//1099 580//1099 61//1099
f 580//1100 60//1100 61//1100
f 49//1101 581//1101 580//1101
f 581//1102 582//1102 580//1102
f 580//1103 582//1103 60//1103
f 582//1104 59//1104 60//1104
f 50//1105 583//1105 581//1105
f 583//1106 584//1106 581//1106
f 581//1107 584//1107 582//1107
f 584//1108 585//1108 582//1108
f 582//1109 585//1109 59//1109
f 585//1110 58//1110 59//1110
f 51//1111 586//1111 583//1111
f 586//1112 587//1112 583//1112
f 583//1113 587//1113 584//1113
f 587//1114 588//1114 584//1114
f 584//1115 588//1115 585//1115
f 588//1116 589//1116 585//1116
f 585//1117 589//1117 58//1117
f 589//1118 57//1118 58//1118
f 52//1119 590//1119 586//1119
f 590//1120 591//1120 586//1120
f 586//1121 591//1121 587//1121
f 591//1122 592//1122 587//1122
f 587//1123 592//1123 588//1123
f 592//1124 593//1124 588//1124
f 588//1125 593//1125 589//1125
f 593//1126 594//1126 589//1126
f 589//1127 594//1127 57//1127
f 594//1128 56//1128 57//1128
f 53//1129 595//1129 590//1129
f 595//1130 596//1130 590//1130
f 590//1131 596//1131 591//1131
f 596//1132 597//1132 591//1132
f 591//1133 597//1133 592//1133
f 597//1134 598//1134 592//1134
f 592//1135 598//1135 593//1135
f 598//1136 599//1136 593//1136
f 593//1137 599//1137 594//1137
f 599//1138 600//1138 594//1138
f 594//1139 600//1139 56//1139
f 600//1140 55//1140 56//1140
f 54//1141 19//1141 595//1141
f 19//1142 18//1142 595//1142
f 595//1143 18//1143 596//1143
f 18//1144 17//1144 596//1144
f 596//1145 17//1145 597//1145
f 17//1146 16//1146 597//1146
f 597//1147 16//1147 598//1147
f 16//1148 15//1148 598//1148
f 598//1149 15//1149 599//1149
f 15//1150 14//1150 599//1150
f 599//1151 14//1151 600//1151
f 14//1152 13//1152 600//1152
f 600//1153 13//1153 55//1153
f 13//1154 3//1154 55//1154
f 34//1155 47//1155 6//1155
f 35//1156 601//1156 34//1156
f 36//1157 602//1157 35//1157
f 37//1158 604//1158 36//1158
f 38//1159 607//1159 37//1159
f 39//1160 611//1160 38//1160
f 40//1161 616//1161 39//1161
f 34//1162 601//1162 47//1162
f 601//1163 46//1163 47//1163
f 35//1164 602//1164 601//1164
f 602//1165 603//1165 601//1165
f 601//1166 603//1166 46//1166
f 603//1167 45//1167 46//1167
f 36//1168 604//1168 602//1168
f 604//1169 605//1169 602//1169
f 602//1170 605//1170 603//1170
f 605//1171 606//1171 603//1171
f 603//1172 606//1172 45//1172
f 606//1173 44//1173 45//1173
f 37//1174 607//1174 604//1174
f 607//1175 608//1175 604//1175
f 604//1176 608//1176 605//1176
f 608//1177 609//1177 605//1177
f 605//1178 609//1178 606//1178
f 609//1179 610//1179 606//1179
f 606//1180 610//1180 44//1180
f 610//1181 43//1181 44//1181
f 38//1182 611//1182 607//1182
f 611//1183 612//1183 607//1183
f 607//1184 612//1184 608//1184
f 612//1185 613//1185 608//1185
f 608//1186 613//1186 609//1186
f 613//1187 614//1187 609//1187
f 609//1188 614//1188 610//1188
f 614//1189 615//1189 610//1189
f 610//1190 615//1190 43//1190
f 615//1191 42//1191 43//1191
f 39//1192 616//1192 611//1192
f 616//1193 617//1193 611//1193
f 611//1194 617//1194 612//1194
f 617//1195 618//1195 612//1195
f 612//1196 618//1196 613//1196
f 618//1197 619//1197 613//1197
f 613//1198 619//1198 614//1198
f 619//1199 620//1199 614//1199
f 614//1200 620//1200 615//1200
f 620//1201 621//1201 615//1201
f 615//1202 621//1202 42//1202
f 621//1203 41//1203 42//1203
f 40//1204 26//1204 616//1204
f 26//1205 25//1205 616//1205
f 616//1206 25//1206 617//1206
f 25//1207 24//1207 617//1207
f 617//1208 24//1208 618//1208
f 24//1209 23//1209 618//1209
f 618//1210 23//1210 619//1210
f 23//1211 22//1211 619//1211
f 619//1212 22//1212 620//1212
f 22//1213 21//1213 620//1213
f 620//1214 21//1214 621//1214
f 21//1215 20//1215 621//1215
f 621//1216 20//1216 41//1216
f 20//1217 1//1217 41//1217
f 13//1218 33//1218 3//1218
f 14//1219 622//1219 13//1219
f 15//1220 623//1220 14//1220
f 16//1221 625//1221 15//1221
f 17//1222 628//1222 16//1222
f 18//1223 632//1223 17//1223
f 19//1224 637//1224 18//1224
f 13//1225 622//1225 33//1225
f 622//1226 32//1226 33//1226
f 14//1227 623//1227 622//1227
f 623//1228 624//1228 622//1228
f 622//1229 624//1229 32//1229
f 624//1230 31//1230 32//1230
f 15//1231 625//1231 623//1231
f 625//1232 626//1232 623//1232
f 623//1233 626//1233 624//1233
f 626//1234 627//1234 624//1234
f 624//1235 627//1235 31//1235
f 627//1236 30//1236 31//1236
f 16//1237 628//1237 625//1237
f 628//1238 629//1238 625//1238
f 625//1239 629//1239 626//1239
f 629//1240 630//1240 626//1240
f 626//1241 630//1241 627//1241
f 630//1242 631//1242 627//1242
f 627//1243 631//1243 30//1243
f 631//1244 29//1244 30//1244
f 17//1245 632//1245 628//1245
f 632//1246 633//1246 628//1246
f 628//1247 633//1247 629//1247
f 633//1248 634//1248 629//1248
f 629//1249 634//1249 630//1249
f 634//1250 635//1250 630//1250
f 630//1251 635//1251 631//1251
f 635//1252 636//1252 631//1252
f 631//1253 636//1253 29//1253
f 636//1254 28//1254 29//1254
f 18//1255 637//1255 632//1255
f 637//1256 638//1256 632//1256
f 632//1257 638//1257 633//1257
f 638//1258 639//1258 633//1258
f 633//1259 639//1259 634//1259
f 639//1260 640//1260 634//1260
f 634//1261 640//1261 635//1261
f 640//1262 641//1262 635//1262
f 635//1263 641//1263 636//1263
f 641//1264 642//1264 636//1264
f 636//1265 642//1265 28//1265
f 642//1266 27//1266 28//1266
f 19//1267 20//1267 637//1267
f 20//1268 21//1268 637//1268
f 637//1269 21//1269 638//1269
f 21//1270 22//1270 638//1270
f 638//1271 22//1271 639//1271
f 22//1272 23//1272 639//1272
f 639//1273 23//1273 640//1273
f 23//1274 24//1274 640//1274
f 640//1275 24//1275 641//1275
f 24//1276 25//1276 641//1276
f 641//1277 25//1277 642//1277
f 25//1278 26//1278 642//1278
f 642//1279 26//1279 27//1279
f 26//1280 2//1280 27//1280
f 643//1281 645//1281 646//1281
f 651//1282 644//1282 655//1282
f 645//1283 653//1283 646//1283
f 643//1281 646//1281 648//1281
f 647//1284 660//1284 644//1284
f 646//1285 653//1285 648//1285
f 643//1281 648//1281 650//1281
f 658//1286 649//1286 662//1286
f 648//1287 653//1287 650//1287
f 643//1281 650//1281 652//1281
f 651//1282 647//1282 644//1282
f 650//1288 653//1288 652//1288
f 643//1281 652//1281 645//1281
f 654//1289 667//1289 649//1289
f 652//1290 653//1290 645//1290
f 644//1291 660//1291 655//1291
f 651//1282 655//1282 657//1282
f 665//1292 656//1292 669//1292
f 655//1293 660//1293 657//1293
f 651//1282 657//1282 659//1282
f 658//1286 654//1286 649//1286
f 657//1294 660//1294 659//1294
f 651//1282 659//1282 647//1282
f 661//1295 674//1295 656//1295
f 659//1296 660//1296 647//1296
f 649//1297 667//1297 662//1297
f 658//1286 662//1286 664//1286
f 672//1298 663//1298 676//1298
f 662//1299 667//1299 664//1299
f 658//1286 664//1286 666//1286
f 665//1292 661//1292 656//1292
f 664//1300 667//1300 666//1300
f 658//1286 666//1286 654//1286
f 668//1301 681//1301 663//1301
f 666//1302 667//1302 654//1302
f 656//1303 674//1303 669//1303
f 665//1292 669//1292 671//1292
f 679//1304 670//1304 683//1304
f 669//1305 674//1305 671//1305
f 665//1292 671//1292 673//1292
f 672//1298 668//1298 663//1298
f 671//1306 674//1306 673//1306
f 665//1292 673//1292 661//1292
f 675//1307 688//1307 670//1307
f 673//1308 674//1308 661//1308
f 663//1309 681//1309 676//1309
f 672//1298 676//1298 678//1298
f 686//1310 677//1310 690//1310
f 676//1311 681//1311 678//1311
f 672//1298 678//1298 680//1298
f 679//1304 675//1304 670//1304
f 678//1312 681//1312 680//1312
f 672//1298 680//1298 668//1298
f 682//1313 694//1313 677//1313
f 680//1314 681//1314 668//1314
f 670//1315 688//1315 683//1315
f 679//1304 683//1304 685//1304
f 692//1316 684//1316 695//1316
f 683//1317 688//1317 685//1317
f 679//1304 685//1304 687//1304
f 686//1310 682//1310 677//1310
f 685//1318 688//1318 687//1318
f 679//1304 687//1304 675//1304
f 689//1319 698//1319 684//1319
f 687//1320 688//1320 675//1320
f 677//1321 694//1321 690//1321
f 686//1310 690//1310 691//1310
f 690//1322 694//1322 691//1322
f 686//1310 691//1310 693//1310
f 692//1316 689//1316 684//1316
f 691//1323 694//1323 693//1323
f 686//1310 693//1310 682//1310
f 693//1324 694//1324 682//1324
f 684//1325 698//1325 695//1325
f 692//1316 695//1316 696//1316
f 695//1326 698//1326 696//1326
f 692//1316 696//1316 697//1316
f 696//1327 698//1327 697//1327
f 692//1316 697//1316 689//1316
f 697//1328 698//1328 689//1328
