# Blender 4.4.3
# www.blender.org
mtllib rock_slab.mtl
o rock_slab_boulder
v -0.958710 1.624050 0.817086
v -0.939093 1.625208 -0.927308
v 1.039423 1.785727 1.073736
v -1.081306 0.263579 1.025639
v -1.088580 1.685013 0.340058
v -1.037217 1.706408 -0.443864
v 0.021444 1.793551 -1.200169
v 1.185286 1.208665 -1.218715
v 1.275091 0.156290 0.404755
v 1.198404 0.205525 1.154314
v -0.389610 1.717028 1.026489
v 1.141911 1.786172 -0.990645
v 1.240863 1.889976 0.606181
v 0.006537 1.977689 -0.115184
v -1.246933 0.165145 -0.510549
v -1.268256 0.047147 0.105118
v -1.007187 0.238932 -1.026268
v 0.128527 0.000000 0.024539
v 1.252716 0.150360 -1.088324
v 0.272856 0.105685 1.280051
v 0.469642 1.175462 1.364432
v -0.938284 1.161360 0.990170
v -0.462511 1.150175 1.316472
v 1.358828 1.041058 -0.856614
v 1.275742 0.849780 1.231323
v 1.491803 1.311313 0.271340
v 0.628603 0.196491 -1.263736
v -0.041563 0.808830 -1.401881
v -1.472873 0.753356 0.456900
v -1.180817 0.883348 -1.123758
v -1.242207 1.067222 0.663930
vn -0.3725 0.3107 0.8745
vn -0.0535 0.9793 0.1953
vn 0.1121 0.9911 -0.0714
vn 0.0377 0.9853 -0.1667
vn -0.2159 0.9622 -0.1663
vn -0.2238 0.9572 0.1833
vn -0.0434 -0.9833 -0.1767
vn 0.1117 -0.9912 0.0706
vn 0.1449 -0.1043 0.9839
vn -0.0494 -0.0695 0.9964
vn 0.2451 0.2208 0.9440
vn -0.0581 0.4730 0.8792
vn -0.4995 0.4446 0.7435
vn 0.9853 -0.1314 0.1094
vn 0.9761 -0.1670 0.1394
vn 0.9790 -0.1917 -0.0695
vn 0.9538 0.2468 -0.1716
vn 0.9239 0.2193 0.3134
vn -0.1430 -0.3642 -0.9203
vn 0.1619 -0.0452 -0.9858
vn -0.2059 0.3126 -0.9273
vn -0.3010 0.2098 -0.9302
vn -0.8496 -0.2951 -0.4372
vn -0.8803 -0.3898 0.2704
vn -0.9673 -0.2406 -0.0796
vn -0.9452 0.2895 -0.1508
vn -0.9755 0.2121 -0.0581
vn -0.7445 0.1444 0.6519
vn -0.0507 0.9773 0.2056
vn -0.1872 0.9618 -0.1995
vn -0.2544 0.9670 0.0097
vn -0.1951 0.9687 0.1535
vn -0.1593 -0.9533 0.2565
vn 0.1173 -0.9901 0.0770
vn -0.1101 -0.9754 -0.1908
vn -0.0286 -0.9958 0.0871
vn -0.0420 -0.9929 -0.1117
vn 0.1344 -0.9909 0.0019
vn 0.1098 -0.1310 0.9853
vn -0.2015 -0.1755 0.9636
vn -0.5595 0.1215 0.8199
vn -0.0514 0.4601 0.8864
vn 0.8543 0.2885 0.4324
vn 0.9933 -0.1146 -0.0144
vn 0.9026 0.0045 -0.4305
vn 0.9162 0.2048 -0.3443
vn 0.8956 0.4369 -0.0839
vn -0.2448 -0.2092 -0.9467
vn 0.2622 -0.1015 -0.9597
vn 0.1818 0.1862 -0.9656
vn 0.0187 0.3685 -0.9295
vn -0.9015 0.3581 -0.2431
vn -0.9800 -0.0692 -0.1868
vn -0.8406 0.5218 0.1455
vn -0.7450 0.2046 0.6349
vn -0.8831 0.3705 0.2878
vn -0.7576 0.1357 0.6384
s 0
usemtl plaster_rock
f 11//1 1//1 22//1
f 11//2 3//2 13//2
f 12//3 14//3 13//3
f 7//4 14//4 12//4
f 2//5 14//5 7//5
f 5//6 1//6 11//6
f 17//7 18//7 16//7
f 19//7 18//7 17//7
f 18//8 9//8 20//8
f 10//9 21//9 20//9
f 21//10 23//10 20//10
f 3//11 21//11 25//11
f 3//12 23//12 21//12
f 25//14 10//14 9//14
f 26//15 25//15 9//15
f 24//16 26//16 9//16
f 12//17 26//17 24//17
f 28//19 27//19 17//19
f 2//21 28//21 30//21
f 2//22 7//22 28//22
f 30//23 17//23 15//23
f 4//24 29//24 16//24
f 29//25 15//25 16//25
f 29//26 6//26 30//26
f 5//27 6//27 31//27
f 14//29 11//29 13//29
f 2//30 6//30 14//30
f 6//31 5//31 14//31
f 14//32 5//32 11//32
f 16//33 20//33 4//33
f 20//34 9//34 10//34
f 15//35 17//35 16//35
f 18//36 20//36 16//36
f 27//37 19//37 17//37
f 18//38 19//38 9//38
f 10//39 25//39 21//39
f 20//40 23//40 4//40
f 3//42 11//42 23//42
f 19//44 24//44 9//44
f 19//45 8//45 24//45
f 8//46 12//46 24//46
f 12//47 13//47 26//47
f 17//48 30//48 28//48
f 28//50 7//50 12//50
f 28//51 12//51 8//51
f 30//52 6//52 2//52
f 29//53 30//53 15//53
f 31//54 6//54 29//54
f 22//55 1//55 31//55
f 1//56 5//56 31//56
f 31//57 29//57 4//57
usemtl stone_dark
f 23//13 11//13 22//13
f 26//18 13//18 25//18
f 28//20 8//20 27//20
f 31//28 4//28 22//28
f 23//41 22//41 4//41
f 25//43 13//43 3//43
f 27//49 8//49 19//49
