# Blender 4.4.3
# www.blender.org
mtllib root_arc.mtl
o root_arc_main
v -5.116415 0.000000 0.245822
v -5.061675 0.000000 0.577547
v -4.853032 0.000000 0.847353
v -4.532959 0.000000 0.959572
v -4.194885 0.000000 0.993152
v -3.878942 0.000000 0.847553
v -3.691049 0.000000 0.564231
v -3.584896 0.000000 0.245822
v -3.673162 0.000000 -0.076956
v -3.875952 0.000000 -0.339762
v -4.166115 0.000000 -0.536371
v -4.517282 0.000000 -0.484586
v -4.831926 0.000000 -0.349640
v -5.065265 0.000000 -0.091901
v -4.634593 1.237512 0.226383
v -4.585833 1.243919 0.477218
v -4.439297 1.204397 0.692073
v -4.215183 1.121279 0.812774
v -3.965270 1.015108 0.823709
v -3.734572 0.904296 0.716389
v -3.576307 0.812874 0.501537
v -3.541017 0.767707 0.226383
v -3.633665 0.779569 -0.029817
v -3.789942 0.823808 -0.239787
v -4.008739 0.901095 -0.393014
v -4.270330 1.013257 -0.395018
v -4.506339 1.127383 -0.278235
v -4.623883 1.204542 -0.033757
v -3.987036 2.287911 0.044324
v -3.938437 2.307244 0.270280
v -3.798244 2.256717 0.454202
v -3.609869 2.157930 0.565340
v -3.399314 2.025661 0.593386
v -3.219753 1.882415 0.483281
v -3.106493 1.763604 0.288573
v -3.090681 1.697703 0.044324
v -3.168275 1.694785 -0.193417
v -3.321810 1.754306 -0.376418
v -3.516970 1.861433 -0.470515
v -3.721412 1.992506 -0.486108
v -3.894326 2.130687 -0.379032
v -3.975584 2.230253 -0.176279
v -3.213258 3.205200 -0.100786
v -3.167296 3.167846 0.125646
v -3.066693 3.057791 0.302532
v -2.932299 2.898042 0.395428
v -2.788610 2.719368 0.406012
v -2.652820 2.542310 0.323577
v -2.579740 2.433337 0.125055
v -2.575374 2.407833 -0.100786
v -2.606617 2.427358 -0.320799
v -2.691826 2.516172 -0.520195
v -2.831089 2.681238 -0.621753
v -2.975233 2.863636 -0.596794
v -3.098781 3.026766 -0.498869
v -3.189276 3.154967 -0.328985
v -2.175267 3.795475 -0.062770
v -2.173044 3.752525 0.150257
v -2.124004 3.627415 0.325038
v -2.036483 3.445278 0.410585
v -1.935436 3.251841 0.416641
v -1.832992 3.072084 0.332812
v -1.757395 2.960820 0.153287
v -1.720832 2.930495 -0.062770
v -1.723820 2.975667 -0.280014
v -1.774517 3.104282 -0.456718
v -1.865403 3.291087 -0.532704
v -1.965076 3.478207 -0.518401
v -2.061240 3.646035 -0.434701
v -2.136758 3.760000 -0.270875
v -0.978857 4.232993 0.073232
v -1.000736 4.183145 0.281172
v -1.008637 4.054287 0.456891
v -0.997939 3.856767 0.556630
v -0.970271 3.637408 0.549996
v -0.933875 3.440596 0.457990
v -0.894403 3.305066 0.287496
v -0.859689 3.256727 0.073232
v -0.839774 3.323492 -0.135461
v -0.835104 3.463908 -0.297639
v -0.846334 3.656021 -0.388514
v -0.873983 3.862698 -0.370509
v -0.907813 4.046953 -0.286195
v -0.945384 4.185623 -0.132682
v 0.308314 4.179150 0.059205
v 0.332336 4.145030 0.249560
v 0.348559 4.028117 0.410667
v 0.352595 3.847226 0.503397
v 0.344184 3.640701 0.512522
v 0.322961 3.456688 0.418617
v 0.295312 3.338996 0.253961
v 0.266957 3.292965 0.059205
v 0.241918 3.331586 -0.140272
v 0.223734 3.448607 -0.315987
v 0.218990 3.641039 -0.417987
v 0.230551 3.858074 -0.407337
v 0.253754 4.036070 -0.296637
v 0.281297 4.142910 -0.129004
v 1.363017 4.145080 -0.096656
v 1.375888 4.083003 0.099743
v 1.370139 3.953293 0.255030
v 1.345065 3.772189 0.338633
v 1.306155 3.576048 0.337330
v 1.260420 3.394441 0.260252
v 1.215777 3.270550 0.102621
v 1.182984 3.233635 -0.096656
v 1.168072 3.285549 -0.293320
v 1.176543 3.422869 -0.439087
v 1.200817 3.599040 -0.521323
v 1.237090 3.795763 -0.541525
v 1.284127 3.985786 -0.467266
v 1.330177 4.112175 -0.302497
v 2.177713 3.771449 -0.135532
v 2.165261 3.740941 0.072798
v 2.091527 3.622384 0.232070
v 1.987105 3.462794 0.313787
v 1.873450 3.294849 0.303156
v 1.774013 3.152924 0.207178
v 1.704351 3.058550 0.052492
v 1.678003 3.030340 -0.135532
v 1.694431 3.065563 -0.323426
v 1.754764 3.164099 -0.480117
v 1.850367 3.311166 -0.571486
v 1.961960 3.476827 -0.574244
v 2.062067 3.619837 -0.479846
v 2.135464 3.719882 -0.327439
v 2.775113 3.352078 -0.230488
v 2.778531 3.296533 -0.029750
v 2.719869 3.166062 0.118127
v 2.626577 3.006965 0.192852
v 2.515906 2.847804 0.183452
v 2.404196 2.706365 0.110256
v 2.300796 2.597038 -0.029080
v 2.251171 2.585149 -0.230488
v 2.259081 2.654100 -0.420699
v 2.304620 2.768101 -0.577654
v 2.394561 2.925496 -0.663000
v 2.507665 3.087065 -0.649775
v 2.618732 3.225286 -0.569029
v 2.713558 3.320057 -0.423048
v 3.360721 2.893462 -0.307997
v 3.343497 2.865778 -0.110924
v 3.270141 2.770132 0.054102
v 3.153888 2.624336 0.140395
v 3.026343 2.467924 0.127661
v 2.910765 2.328579 0.043648
v 2.818332 2.219802 -0.104239
v 2.786224 2.187045 -0.307997
v 2.812671 2.226267 -0.511061
v 2.885087 2.321125 -0.687204
v 3.006381 2.473347 -0.780398
v 3.139899 2.636861 -0.760294
v 3.247864 2.765924 -0.648381
v 3.321467 2.851299 -0.492969
v 3.896061 2.469581 -0.267320
v 3.827364 2.439134 -0.065867
v 3.711069 2.353894 0.079247
v 3.572633 2.235179 0.151700
v 3.431391 2.102241 0.156920
v 3.302926 1.968128 0.084913
v 3.213535 1.857686 -0.064739
v 3.195662 1.805910 -0.267320
v 3.253699 1.826706 -0.466152
v 3.358198 1.897538 -0.630046
v 3.501044 2.015516 -0.731084
v 3.657574 2.162704 -0.737675
v 3.794531 2.307617 -0.649665
v 3.883321 2.420573 -0.482083
v 4.297292 1.973688 -0.205255
v 4.225776 1.947872 -0.000774
v 4.100445 1.882795 0.151362
v 3.941910 1.790526 0.240339
v 3.767699 1.680545 0.248833
v 3.611562 1.572853 0.161608
v 3.521882 1.499396 -0.009119
v 3.501572 1.467614 -0.205255
v 3.534149 1.469197 -0.404201
v 3.636305 1.516918 -0.583540
v 3.804760 1.615160 -0.676010
v 3.983600 1.730155 -0.662988
v 4.146019 1.841236 -0.582059
v 4.265306 1.932518 -0.421791
v 4.584191 1.508546 -0.187837
v 4.530558 1.481903 0.037140
v 4.391231 1.416337 0.204900
v 4.207223 1.330892 0.295539
v 4.002848 1.236701 0.314702
v 3.807810 1.147759 0.224784
v 3.691512 1.095944 0.031934
v 3.673214 1.089450 -0.187837
v 3.714207 1.110120 -0.394827
v 3.822897 1.161708 -0.575962
v 4.001428 1.244763 -0.681267
v 4.203223 1.337477 -0.667349
v 4.384550 1.420089 -0.574931
v 4.529069 1.485156 -0.412819
v 4.763692 1.070888 -0.205461
v 4.721192 1.038857 0.027978
v 4.579884 0.979231 0.211383
v 4.377411 0.906633 0.311828
v 4.149115 0.832630 0.325740
v 3.932986 0.771397 0.227308
v 3.797257 0.743905 0.026847
v 3.745475 0.745739 -0.205461
v 3.787132 0.777390 -0.437509
v 3.929574 0.837093 -0.617306
v 4.128217 0.908833 -0.722361
v 4.354471 0.981424 -0.726672
v 4.558918 1.038258 -0.619783
v 4.699054 1.068244 -0.433065
v 4.867549 0.664795 -0.232742
v 4.809278 0.636874 -0.003148
v 4.651165 0.596506 0.161656
v 4.454071 0.554061 0.265162
v 4.225908 0.512863 0.282222
v 4.012331 0.483112 0.184107
v 3.874862 0.473837 -0.006862
v 3.814396 0.480718 -0.232742
v 3.850685 0.505193 -0.467464
v 4.000695 0.545551 -0.650480
v 4.209770 0.590461 -0.758784
v 4.449417 0.633228 -0.770166
v 4.672235 0.664256 -0.667675
v 4.810554 0.672846 -0.465912
v 4.965291 0.293562 -0.250054
v 4.909846 0.282793 0.010995
v 4.746293 0.269831 0.224270
v 4.500547 0.257608 0.329923
v 4.238621 0.248801 0.317533
v 4.008431 0.244634 0.200884
v 3.854775 0.246107 -0.002991
v 3.790000 0.252169 -0.250054
v 3.823239 0.262187 -0.512014
v 3.988456 0.275187 -0.724663
v 4.234935 0.287351 -0.827830
v 4.495903 0.296131 -0.815645
v 4.737696 0.301247 -0.714996
v 4.918689 0.300890 -0.515664
v 5.055517 0.000000 -0.245822
v 5.017707 0.000000 0.075430
v 4.869366 0.000000 0.357503
v 4.599669 0.000000 0.531612
v 4.272146 0.000000 0.472059
v 3.990921 0.000000 0.313432
v 3.800272 0.000000 0.053621
v 3.701531 0.000000 -0.245822
v 3.710814 0.000000 -0.560909
v 3.865083 0.000000 -0.827217
v 4.138501 0.000000 -0.951501
v 4.441137 0.000000 -0.942150
v 4.734434 0.000000 -0.819547
v 4.984674 0.000000 -0.582363
v -4.360254 0.000000 0.242988
v 4.370126 0.000000 -0.240834
v -2.200516 3.573726 0.022150
v -2.170514 3.467232 0.168124
v -2.023630 3.423120 0.268270
v -1.845909 3.467232 0.263924
v -1.741455 3.573726 0.157630
v -1.771458 3.680220 0.011656
v -1.918341 3.724331 -0.088490
v -2.096063 3.680220 -0.084143
v -2.169643 3.714630 0.138622
v -2.146557 3.632686 0.250945
v -2.033534 3.598744 0.328004
v -1.896783 3.632686 0.324660
v -1.816409 3.714630 0.242870
v -1.839495 3.796574 0.130547
v -1.952518 3.830516 0.053488
v -2.089269 3.796574 0.056833
v -2.131895 3.891999 0.264701
v -2.115035 3.832155 0.346731
v -2.032495 3.807366 0.403008
v -1.932624 3.832155 0.400565
v -1.873927 3.891999 0.340834
v -1.890787 3.951843 0.258804
v -1.973328 3.976631 0.202527
v -2.073198 3.951843 0.204970
v -2.081923 4.105831 0.401966
v -2.071298 4.068119 0.453658
v -2.019284 4.052498 0.489122
v -1.956349 4.068119 0.487583
v -1.919360 4.105831 0.449942
v -1.929985 4.143542 0.398250
v -1.981999 4.159163 0.362786
v -2.044934 4.143542 0.364325
v -1.967423 3.558183 0.077819
v -1.991840 4.380661 0.579360
v 3.068440 2.744657 -0.066283
v 3.217305 2.671789 -0.049616
v 3.345724 2.641607 -0.151332
v 3.378470 2.671789 -0.311847
v 3.296360 2.744657 -0.437135
v 3.147495 2.817524 -0.453802
v 3.019076 2.847707 -0.352086
v 2.986330 2.817524 -0.191570
v 3.180984 2.954370 -0.031568
v 3.310754 2.890851 -0.017039
v 3.422699 2.864540 -0.105707
v 3.451244 2.890851 -0.245632
v 3.379668 2.954370 -0.354847
v 3.249898 3.017890 -0.369377
v 3.137953 3.044201 -0.280709
v 3.109408 3.017890 -0.140784
v 3.322433 3.190328 -0.011864
v 3.415968 3.144544 -0.001391
v 3.496657 3.125579 -0.065302
v 3.517232 3.144544 -0.166157
v 3.465641 3.190328 -0.244878
v 3.372105 3.236112 -0.255351
v 3.291416 3.255077 -0.191440
v 3.270841 3.236112 -0.090584
v 3.478197 3.452530 0.016567
v 3.537418 3.423542 0.023198
v 3.588506 3.411535 -0.017266
v 3.601532 3.423542 -0.081123
v 3.568868 3.452530 -0.130964
v 3.509646 3.481518 -0.137595
v 3.458559 3.493525 -0.097130
v 3.445532 3.481518 -0.033274
v 3.174332 2.727041 -0.256667
v 3.686820 3.780293 0.031377
v 3.929401 1.052119 -0.342044
v 3.901304 0.899862 -0.263137
v 3.930423 0.836794 -0.103849
v 3.999700 0.899862 0.042512
v 4.068553 1.052119 0.090208
v 4.096651 1.204376 0.011301
v 4.067532 1.267443 -0.147987
v 3.998255 1.204376 -0.294348
v 3.756173 1.134064 -0.242423
v 3.733779 1.012711 -0.179532
v 3.756987 0.962445 -0.052575
v 3.812203 1.012711 0.064077
v 3.867081 1.134064 0.102093
v 3.889475 1.255417 0.039202
v 3.866266 1.305683 -0.087755
v 3.811051 1.255417 -0.204408
v 3.608240 1.239188 -0.161654
v 3.591362 1.147725 -0.114253
v 3.608854 1.109840 -0.018567
v 3.650469 1.147725 0.069353
v 3.691830 1.239188 0.098005
v 3.708708 1.330650 0.050604
v 3.691216 1.368535 -0.045082
v 3.649601 1.330650 -0.133002
v 3.485206 1.367491 -0.100965
v 3.473496 1.304039 -0.068081
v 3.485631 1.277756 -0.001699
v 3.514502 1.304039 0.059296
v 3.543197 1.367491 0.079173
v 3.554906 1.430943 0.046289
v 3.542771 1.457226 -0.020093
v 3.513900 1.430943 -0.081088
v 4.017032 1.045775 -0.131730
v 3.364080 1.533045 0.005513
v 1.356044 3.684140 -0.400349
v 1.298542 3.540791 -0.359394
v 1.223894 3.481414 -0.231196
v 1.175828 3.540791 -0.090852
v 1.182499 3.684140 -0.020573
v 1.240001 3.827489 -0.061527
v 1.314649 3.886866 -0.189725
v 1.362715 3.827489 -0.330069
v 1.209673 3.751203 -0.433719
v 1.159393 3.625856 -0.397907
v 1.094119 3.573936 -0.285809
v 1.052089 3.625856 -0.163088
v 1.057923 3.751203 -0.101634
v 1.108203 3.876551 -0.137446
v 1.173477 3.928471 -0.249545
v 1.215507 3.876551 -0.372265
v 1.079161 3.873649 -0.439302
v 1.038897 3.773273 -0.410624
v 0.986626 3.731695 -0.320857
v 0.952969 3.773273 -0.222584
v 0.957641 3.873649 -0.173373
v 0.997905 3.974026 -0.202050
v 1.050175 4.015603 -0.291817
v 1.083833 3.974026 -0.390090
v 0.963645 4.051478 -0.415213
v 0.936764 3.984464 -0.396067
v 0.901867 3.956706 -0.336136
v 0.879396 3.984464 -0.270527
v 0.882515 4.051478 -0.237672
v 0.909396 4.118492 -0.256818
v 0.944294 4.146250 -0.316749
v 0.966764 4.118492 -0.382358
v 1.286935 3.679360 -0.202389
v 0.818734 4.292564 -0.341291
v 3.631151 1.714401 -0.294722
v 3.596352 1.559319 -0.184152
v 3.662207 1.495082 -0.013787
v 3.790141 1.559319 0.116573
v 3.905210 1.714401 0.130567
v 3.940010 1.869483 0.019997
v 3.874154 1.933720 -0.150367
v 3.746221 1.869483 -0.280728
v 3.474697 1.837889 -0.139633
v 3.447252 1.715579 -0.052429
v 3.499190 1.664917 0.081933
v 3.600088 1.715579 0.184745
v 3.690841 1.837889 0.195782
v 3.718287 1.960198 0.108578
v 3.666348 2.010861 -0.025784
v 3.565450 1.960198 -0.128597
v 3.293326 1.975592 0.025008
v 3.274640 1.892318 0.084381
v 3.310002 1.857824 0.175861
v 3.378698 1.892318 0.245861
v 3.440487 1.975592 0.253375
v 3.459173 2.058867 0.194002
v 3.423811 2.093360 0.102522
v 3.355115 2.058867 0.032522
v 3.073259 2.127511 0.177822
v 3.061238 2.073941 0.216016
v 3.083986 2.051752 0.274864
v 3.128178 2.073941 0.319894
v 3.167926 2.127511 0.324728
v 3.179946 2.181080 0.286534
v 3.157198 2.203269 0.227686
v 3.113007 2.181080 0.182656
v 3.782756 1.704434 -0.091470
v 2.809789 2.316921 0.386257
vn -0.9202 0.3607 0.1519
vn -0.7462 0.3320 0.5770
vn -0.3221 0.2291 0.9186
vn -0.0976 0.1563 0.9829
vn 0.4179 0.0568 0.9067
vn 0.8322 -0.0528 0.5519
vn 0.9810 -0.1272 0.1467
vn 0.9377 -0.0623 -0.3420
vn 0.8017 -0.0045 -0.5977
vn 0.5821 0.0378 -0.8122
vn -0.1435 0.1799 -0.9732
vn -0.3694 0.1708 -0.9134
vn -0.7181 0.2485 -0.6501
vn -0.9274 0.3466 -0.1405
vn -0.8332 0.5367 0.1333
vn -0.6638 0.5105 0.5466
vn -0.3202 0.3902 0.8633
vn 0.0451 0.2069 0.9773
vn 0.4124 -0.0234 0.9107
vn 0.7328 -0.2334 0.6391
vn 0.8972 -0.4028 0.1812
vn 0.8265 -0.4629 -0.3203
vn 0.6701 -0.4467 -0.5928
vn 0.4522 -0.3481 -0.8212
vn 0.0184 -0.0898 -0.9958
vn -0.4267 0.1563 -0.8908
vn -0.7620 0.4148 -0.4973
vn -0.8473 0.5215 -0.1010
vn -0.7195 0.6469 0.2528
vn -0.5124 0.5675 0.6445
vn -0.2037 0.3585 0.9111
vn 0.0976 0.1369 0.9858
vn 0.4333 -0.1410 0.8901
vn 0.6565 -0.4109 0.6326
vn 0.7930 -0.5734 0.2060
vn 0.7614 -0.6018 -0.2411
vn 0.5533 -0.5352 -0.6383
vn 0.2347 -0.3641 -0.9013
vn -0.0270 -0.1595 -0.9868
vn -0.3842 0.2150 -0.8979
vn -0.6698 0.5243 -0.5259
vn -0.7624 0.6152 -0.2004
vn -0.4867 0.8406 0.2375
vn -0.4022 0.6571 0.6376
vn -0.2271 0.3397 0.9127
vn -0.0356 0.0306 0.9989
vn 0.1763 -0.3011 0.9371
vn 0.4296 -0.6753 0.5995
vn 0.5235 -0.8271 0.2047
vn 0.5190 -0.8354 -0.1808
vn 0.4391 -0.6618 -0.6077
vn 0.2352 -0.2659 -0.9349
vn 0.0327 0.0935 -0.9951
vn -0.1535 0.3692 -0.9166
vn -0.3646 0.6772 -0.6391
vn -0.4744 0.8480 -0.2365
vn -0.3559 0.9166 0.1823
vn -0.3420 0.7651 0.5457
vn -0.2644 0.4233 0.8666
vn -0.1215 -0.0453 0.9916
vn 0.0411 -0.4169 0.9080
vn 0.2144 -0.7398 0.6377
vn 0.3231 -0.9106 0.2578
vn 0.3773 -0.8919 -0.2493
vn 0.3740 -0.6955 -0.6135
vn 0.2555 -0.2550 -0.9326
vn 0.0946 0.1259 -0.9875
vn -0.0301 0.4322 -0.9013
vn -0.1861 0.7643 -0.6175
vn -0.3064 0.9274 -0.2148
vn 0.0432 0.9705 0.2372
vn 0.0371 0.8051 0.5920
vn 0.0391 0.4521 0.8911
vn 0.0392 -0.0253 0.9989
vn 0.0269 -0.4192 0.9075
vn 0.0296 -0.7791 0.6262
vn 0.0341 -0.9737 0.2252
vn 0.0291 -0.9807 -0.1935
vn 0.0038 -0.8321 -0.5546
vn -0.0221 -0.4686 -0.8831
vn -0.0269 0.0504 -0.9984
vn -0.0260 0.5304 -0.8474
vn 0.0031 0.8431 -0.5378
vn 0.0347 0.9804 -0.1938
vn 0.0745 0.9522 0.2961
vn 0.1366 0.7578 0.6380
vn 0.1666 0.3942 0.9038
vn 0.1608 -0.0385 0.9862
vn 0.1358 -0.4159 0.8992
vn 0.0502 -0.7921 0.6083
vn -0.0337 -0.9715 0.2345
vn -0.0937 -0.9796 -0.1779
vn -0.1306 -0.8314 -0.5402
vn -0.1257 -0.4670 -0.8753
vn -0.1022 0.0542 -0.9933
vn -0.0792 0.5339 -0.8418
vn -0.0467 0.8458 -0.5314
vn 0.0028 0.9874 -0.1583
vn 0.4135 0.8756 0.2497
vn 0.3320 0.7179 0.6119
vn 0.2059 0.3865 0.8990
vn 0.0324 -0.0131 0.9994
vn -0.1234 -0.3612 0.9243
vn -0.2713 -0.7179 0.6411
vn -0.3679 -0.9016 0.2276
vn -0.3856 -0.9002 -0.2025
vn -0.3396 -0.7317 -0.5909
vn -0.2397 -0.3951 -0.8868
vn -0.0650 0.0272 -0.9975
vn 0.1635 0.4612 -0.8721
vn 0.3218 0.7057 -0.6312
vn 0.4231 0.8818 -0.2085
vn 0.5839 0.7849 0.2072
vn 0.5035 0.5390 0.6753
vn 0.3407 0.2423 0.9084
vn 0.0959 -0.1274 0.9872
vn -0.1656 -0.4702 0.8669
vn -0.3981 -0.6924 0.6017
vn -0.5824 -0.7880 0.1998
vn -0.6216 -0.7583 -0.1965
vn -0.5404 -0.6027 -0.5871
vn -0.3585 -0.2783 -0.8911
vn -0.0728 0.1319 -0.9886
vn 0.1600 0.3989 -0.9029
vn 0.3604 0.6579 -0.6612
vn 0.5094 0.8076 -0.2971
vn 0.6216 0.7664 0.1620
vn 0.5419 0.5999 0.5886
vn 0.3120 0.2872 0.9056
vn 0.0252 -0.1015 0.9945
vn -0.1603 -0.3509 0.9226
vn -0.3481 -0.5945 0.7248
vn -0.5610 -0.8067 0.1858
vn -0.5975 -0.7456 -0.2951
vn -0.5522 -0.5902 -0.5889
vn -0.3738 -0.2679 -0.8880
vn -0.0854 0.1405 -0.9864
vn 0.2280 0.5220 -0.8219
vn 0.4301 0.6897 -0.5826
vn 0.5619 0.7727 -0.2954
vn 0.5755 0.7566 0.3106
vn 0.4412 0.5733 0.6904
vn 0.2289 0.2985 0.9265
vn 0.0048 0.0342 0.9994
vn -0.2783 -0.2337 0.9316
vn -0.5307 -0.4989 0.6852
vn -0.6689 -0.7039 0.2389
vn -0.6432 -0.7191 -0.2630
vn -0.5064 -0.6257 -0.5933
vn -0.2690 -0.4176 -0.8679
vn 0.1207 0.0235 -0.9924
vn 0.3945 0.3910 -0.8315
vn 0.5193 0.6210 -0.5871
vn 0.5847 0.7552 -0.2962
vn 0.7140 0.6187 0.3278
vn 0.5352 0.5220 0.6642
vn 0.2823 0.3689 0.8856
vn -0.0499 0.1552 0.9866
vn -0.4123 -0.1323 0.9014
vn -0.7028 -0.4404 0.5587
vn -0.7592 -0.6255 0.1800
vn -0.7246 -0.6780 -0.1240
vn -0.6296 -0.5829 -0.5137
vn -0.3000 -0.3286 -0.8956
vn 0.1076 -0.0549 -0.9927
vn 0.3739 0.1231 -0.9193
vn 0.6286 0.3749 -0.6814
vn 0.7804 0.5829 -0.2261
vn 0.8184 0.5144 0.2560
vn 0.5961 0.4443 0.6687
vn 0.3080 0.2958 0.9042
vn 0.0300 0.1363 0.9902
vn -0.3908 -0.0708 0.9177
vn -0.7864 -0.2814 0.5499
vn -0.9214 -0.3785 0.0879
vn -0.8852 -0.4118 -0.2164
vn -0.7513 -0.3906 -0.5319
vn -0.3711 -0.2142 -0.9036
vn 0.0501 0.0408 -0.9979
vn 0.3645 0.2139 -0.9063
vn 0.6432 0.3528 -0.6796
vn 0.8351 0.4873 -0.2553
vn 0.8979 0.3579 0.2564
vn 0.6821 0.2795 0.6757
vn 0.3694 0.1730 0.9130
vn 0.0639 0.0639 0.9959
vn -0.3742 -0.1103 0.9208
vn -0.7942 -0.2605 0.5489
vn -0.9537 -0.2877 0.0879
vn -0.9591 -0.1909 -0.2090
vn -0.8370 -0.1148 -0.5350
vn -0.4900 -0.0502 -0.8703
vn 0.0108 0.1254 -0.9920
vn 0.3270 0.2888 -0.8998
vn 0.7047 0.3913 -0.5918
vn 0.8904 0.3755 -0.2572
vn 0.9515 0.2296 0.2047
vn 0.7673 0.1194 0.6300
vn 0.4532 -0.0313 0.8909
vn 0.0960 -0.1101 0.9893
vn -0.3555 -0.2094 0.9109
vn -0.7714 -0.2967 0.5630
vn -0.9334 -0.2939 0.2057
vn -0.9527 -0.2270 -0.2020
vn -0.7616 -0.1075 -0.6391
vn -0.4640 -0.0124 -0.8858
vn -0.0512 0.1006 -0.9936
vn 0.4030 0.2208 -0.8882
vn 0.7389 0.3011 -0.6029
vn 0.9220 0.2820 -0.2651
vn 0.9352 0.2338 0.2658
vn 0.6764 0.2202 0.7029
vn 0.3975 0.2830 0.8729
vn 0.0335 0.2183 0.9753
vn -0.4268 0.0996 0.8988
vn -0.8116 0.0542 0.5816
vn -0.9615 0.0892 0.2601
vn -0.9834 0.1156 -0.1400
vn -0.7791 0.1971 -0.5951
vn -0.4872 0.2515 -0.8363
vn -0.0845 0.2146 -0.9730
vn 0.3911 0.1758 -0.9034
vn 0.8008 0.2172 -0.5582
vn 0.9425 0.2950 -0.1572
vn 0.9336 0.2900 0.2103
vn 0.7143 0.4028 0.5723
vn 0.4522 0.5521 0.7005
vn -0.1465 0.5743 0.8055
vn -0.4438 0.4289 0.7868
vn -0.7656 0.3133 0.5618
vn -0.9140 0.2717 0.3014
vn -0.9388 0.3276 -0.1066
vn -0.7848 0.4213 -0.4546
vn -0.3664 0.4647 -0.8061
vn 0.0285 0.3871 -0.9216
vn 0.3670 0.3072 -0.8780
vn 0.6682 0.2374 -0.7050
vn 0.9470 0.2519 -0.1993
vn -0.0000 -1.0000 -0.0000
vn -0.9746 0.0299 0.2221
vn -0.5970 -0.2883 0.7486
vn 0.1013 -0.3152 0.9436
vn 0.7270 -0.0283 0.6861
vn 0.9041 0.4117 0.1145
vn 0.5157 0.7410 -0.4300
vn -0.2037 0.7599 -0.6173
vn -0.8185 0.4618 -0.3417
vn -0.9720 0.0427 0.2309
vn -0.5964 -0.2689 0.7563
vn 0.1065 -0.3369 0.9355
vn 0.7606 -0.1070 0.6403
vn 0.9544 0.2978 0.0211
vn 0.5576 0.6304 -0.5401
vn -0.1879 0.6881 -0.7008
vn -0.8205 0.4367 -0.3688
vn -0.9666 0.0670 0.2475
vn -0.5949 -0.2377 0.7679
vn 0.1060 -0.3347 0.9364
vn 0.7756 -0.1483 0.6136
vn 0.9737 0.2252 -0.0359
vn 0.5760 0.5546 -0.6005
vn -0.1781 0.6444 -0.7436
vn -0.8208 0.4318 -0.3739
vn 0.0900 -0.7957 -0.5990
vn 0.1260 -0.8264 -0.5488
vn 0.1922 -0.8264 -0.5293
vn 0.2496 -0.7957 -0.5519
vn 0.2648 -0.7523 -0.6033
vn 0.2288 -0.7216 -0.6534
vn 0.1626 -0.7216 -0.6729
vn 0.1052 -0.7523 -0.6504
vn -0.9496 0.1260 0.2871
vn -0.5893 -0.1680 0.7903
vn 0.0907 -0.2711 0.9583
vn 0.7590 -0.1026 0.6430
vn 0.9658 0.2592 -0.0094
vn 0.5688 0.5878 -0.5753
vn -0.1867 0.6826 -0.7066
vn -0.8167 0.4772 -0.3245
vn -0.1506 -0.0823 0.9852
vn 0.5326 -0.3423 0.7740
vn 0.9297 -0.3465 0.1245
vn 0.8074 -0.0921 -0.5827
vn 0.2374 0.2717 -0.9327
vn -0.4457 0.5314 -0.7204
vn -0.8418 0.5351 -0.0711
vn -0.7196 0.2810 0.6350
vn -0.1173 -0.0126 0.9930
vn 0.5552 -0.2786 0.7837
vn 0.9470 -0.2898 0.1387
vn 0.8254 -0.0383 -0.5632
vn 0.2620 0.3276 -0.9078
vn -0.4102 0.5921 -0.6936
vn -0.7975 0.6013 -0.0496
vn -0.6762 0.3513 0.6475
vn -0.1268 -0.0322 0.9914
vn 0.5458 -0.3063 0.7799
vn 0.9374 -0.3230 0.1305
vn 0.8149 -0.0709 -0.5753
vn 0.2504 0.3011 -0.9201
vn -0.4216 0.5734 -0.7025
vn -0.8074 0.5874 -0.0543
vn -0.6854 0.3372 0.6453
vn -0.4209 -0.8944 -0.1513
vn -0.3526 -0.9198 -0.1723
vn -0.3130 -0.9198 -0.2368
vn -0.3251 -0.8944 -0.3071
vn -0.3819 -0.8585 -0.3421
vn -0.4502 -0.8332 -0.3211
vn -0.4899 -0.8332 -0.2566
vn -0.4777 -0.8585 -0.1863
vn -0.1017 0.0198 0.9946
vn 0.5632 -0.2539 0.7864
vn 0.9515 -0.2725 0.1429
vn 0.8301 -0.0227 -0.5572
vn 0.2705 0.3473 -0.8979
vn -0.3936 0.6182 -0.6804
vn -0.7733 0.6329 -0.0387
vn -0.6526 0.3859 0.6521
vn -0.5764 -0.2896 -0.7641
vn -0.6123 -0.7670 -0.1917
vn -0.3976 -0.7592 0.5153
vn -0.0555 -0.2756 0.9597
vn 0.2213 0.4162 0.8819
vn 0.2667 0.9118 0.3123
vn 0.0486 0.9087 -0.4146
vn -0.3030 0.4070 -0.8617
vn -0.6042 -0.2759 -0.7475
vn -0.7144 -0.6855 -0.1408
vn -0.5312 -0.6572 0.5346
vn -0.1596 -0.2287 0.9603
vn 0.2281 0.4145 0.8810
vn 0.3840 0.8804 0.2784
vn 0.1966 0.8632 -0.4650
vn -0.2198 0.3808 -0.8982
vn -0.6323 -0.2613 -0.7294
vn -0.8074 -0.5841 -0.0837
vn -0.6526 -0.5330 0.5386
vn -0.2704 -0.1743 0.9468
vn 0.2431 0.4106 0.8788
vn 0.5274 0.8186 0.2277
vn 0.3758 0.7731 -0.5110
vn -0.1058 0.3405 -0.9343
vn 0.8608 -0.3502 -0.3692
vn 0.8611 -0.3989 -0.3154
vn 0.8833 -0.3989 -0.2462
vn 0.9146 -0.3502 -0.2023
vn 0.9365 -0.2813 -0.2094
vn 0.9363 -0.2326 -0.2633
vn 0.9140 -0.2326 -0.3324
vn 0.8828 -0.2813 -0.3763
vn -0.7732 -0.1734 -0.6100
vn -0.9029 -0.4298 -0.0051
vn -0.7631 -0.3781 0.5241
vn -0.4416 -0.0802 0.8936
vn 0.0516 0.4520 0.8905
vn 0.4086 0.8717 0.2704
vn 0.2805 0.8261 -0.4887
vn -0.2472 0.3897 -0.8871
vn 0.0779 -0.3026 -0.9499
vn -0.3219 -0.7736 -0.5458
vn -0.6098 -0.7830 0.1224
vn -0.6313 -0.3175 0.7075
vn -0.3492 0.3843 0.8546
vn 0.0702 0.8889 0.4526
vn 0.3702 0.8943 -0.2516
vn 0.3723 0.3945 -0.8401
vn -0.1578 -0.2122 -0.9644
vn -0.5957 -0.5383 -0.5962
vn -0.8215 -0.5688 -0.0407
vn -0.7521 -0.2616 0.6049
vn -0.2238 0.3497 0.9097
vn 0.3462 0.7581 0.5527
vn 0.6012 0.7888 -0.1278
vn 0.3999 0.3884 -0.8302
vn -0.3696 -0.1152 -0.9220
vn -0.7464 -0.3207 -0.5832
vn -0.9195 -0.3575 -0.1637
vn -0.8597 -0.1920 0.4733
vn -0.0873 0.3059 0.9481
vn 0.5656 0.5718 0.5942
vn 0.7769 0.6296 -0.0003
vn 0.4193 0.3838 -0.8227
vn 0.9095 -0.2760 0.3108
vn 0.8742 -0.3302 0.3561
vn 0.8414 -0.3302 0.4279
vn 0.8303 -0.2760 0.4842
vn 0.8474 -0.1994 0.4920
vn 0.8828 -0.1452 0.4468
vn 0.9156 -0.1452 0.3750
vn 0.9267 -0.1994 0.3187
vn -0.5084 -0.0418 -0.8601
vn -0.8008 -0.2068 -0.5621
vn -0.9454 -0.2374 -0.2233
vn -0.9413 -0.1122 0.3183
vn -0.1988 0.3421 0.9184
vn 0.5588 0.5791 0.5936
vn 0.7600 0.6498 -0.0146
vn 0.2479 0.4171 -0.8744
vn -0.7730 -0.2440 -0.5855
vn -0.7172 -0.6967 0.0146
vn -0.3254 -0.6817 0.6553
vn 0.1700 -0.2130 0.9622
vn 0.4818 0.4345 0.7610
vn 0.4301 0.8870 0.1682
vn 0.0420 0.8793 -0.4745
vn -0.4576 0.4107 -0.7886
vn -0.7504 -0.2637 -0.6061
vn -0.7115 -0.7027 0.0101
vn -0.3451 -0.6623 0.6650
vn 0.1250 -0.1808 0.9756
vn 0.4307 0.4578 0.7777
vn 0.4020 0.8972 0.1829
vn 0.0459 0.8775 -0.4774
vn -0.4344 0.3954 -0.8093
vn -0.6792 -0.3189 -0.6611
vn -0.6582 -0.7522 -0.0292
vn -0.3119 -0.6945 0.6483
vn 0.1451 -0.1952 0.9700
vn 0.4518 0.4485 0.7712
vn 0.4404 0.8830 0.1627
vn 0.1049 0.8474 -0.5205
vn -0.3618 0.3465 -0.8655
vn 0.6698 -0.5248 -0.5253
vn 0.6754 -0.5648 -0.4741
vn 0.7108 -0.5648 -0.4192
vn 0.7551 -0.5248 -0.3929
vn 0.7824 -0.4683 -0.4105
vn 0.7768 -0.4283 -0.4617
vn 0.7414 -0.4283 -0.5166
vn 0.6971 -0.4683 -0.5429
vn -0.7139 -0.2932 -0.6359
vn -0.6956 -0.7184 -0.0020
vn -0.3567 -0.6505 0.6706
vn 0.0877 -0.1539 0.9842
vn 0.3874 0.4760 0.7895
vn 0.3833 0.9033 0.1924
vn 0.0614 0.8701 -0.4890
vn -0.3975 0.3707 -0.8394
vn -0.9160 0.3640 0.1688
vn -0.7500 0.3314 0.5725
vn -0.3946 0.2284 0.8900
vn 0.0245 0.1592 0.9869
vn 0.4441 0.0588 0.8940
vn 0.7902 -0.0645 0.6095
vn 0.9477 -0.0462 0.3159
vn 0.9641 -0.0329 -0.2636
vn 0.7917 -0.0085 -0.6109
vn 0.5606 0.0337 -0.8274
vn 0.0411 0.0780 -0.9961
vn -0.3885 0.1696 -0.9057
vn -0.8102 0.3206 -0.4907
vn -0.9290 0.3604 -0.0839
vn -0.8317 0.5352 0.1480
vn -0.6112 0.5093 0.6058
vn -0.3090 0.3877 0.8684
vn 0.0072 0.2184 0.9758
vn 0.4918 -0.0517 0.8692
vn 0.7656 -0.2451 0.5949
vn 0.8998 -0.4030 0.1670
vn 0.8386 -0.4743 -0.2679
vn 0.6273 -0.4126 -0.6605
vn 0.3143 -0.2352 -0.9197
vn -0.0259 -0.0782 -0.9966
vn -0.3830 0.1419 -0.9128
vn -0.7593 0.4097 -0.5055
vn -0.8515 0.4948 -0.1735
vn -0.7326 0.6733 0.1000
vn -0.5434 0.6062 0.5807
vn -0.2710 0.4441 0.8540
vn 0.0228 0.2420 0.9700
vn 0.3961 -0.1200 0.9103
vn 0.7303 -0.4486 0.5151
vn 0.8145 -0.5746 0.0806
vn 0.7689 -0.6180 -0.1640
vn 0.6045 -0.5990 -0.5251
vn 0.2316 -0.3605 -0.9035
vn -0.1582 0.0101 -0.9874
vn -0.3962 0.2330 -0.8881
vn -0.6262 0.4245 -0.6539
vn -0.7630 0.6097 -0.2144
vn -0.5022 0.8466 0.1759
vn -0.4231 0.6764 0.6029
vn -0.2160 0.3281 0.9196
vn -0.0241 0.0187 0.9995
vn 0.1965 -0.3202 0.9267
vn 0.4370 -0.7108 0.5511
vn 0.5154 -0.8504 0.1060
vn 0.5267 -0.8369 -0.1491
vn 0.4861 -0.7020 -0.5204
vn 0.2838 -0.3173 -0.9049
vn -0.0038 0.1326 -0.9912
vn -0.1833 0.4002 -0.8979
vn -0.3393 0.6551 -0.6751
vn -0.4743 0.8491 -0.2325
vn -0.3571 0.9149 0.1882
vn -0.3454 0.7145 0.6084
vn -0.2517 0.3097 0.9169
vn -0.1236 -0.0335 0.9918
vn 0.0385 -0.4042 0.9138
vn 0.2226 -0.7839 0.5796
vn 0.3225 -0.9283 0.1849
vn 0.3864 -0.9019 -0.1929
vn 0.3724 -0.7069 -0.6013
vn 0.2671 -0.3993 -0.8771
vn 0.0991 0.0995 -0.9901
vn -0.0259 0.4120 -0.9108
vn -0.1741 0.7092 -0.6832
vn -0.3054 0.9160 -0.2604
vn 0.0322 0.9845 0.1724
vn 0.0355 0.8105 0.5846
vn 0.0383 0.4565 0.8889
vn 0.0284 0.0430 0.9987
vn 0.0337 -0.4574 0.8886
vn 0.0395 -0.8160 0.5766
vn 0.0058 -0.9526 -0.3042
vn -0.0223 -0.7555 -0.6548
vn -0.0310 -0.4289 -0.9028
vn -0.0329 0.0824 -0.9961
vn -0.0043 0.4154 -0.9096
vn 0.0279 0.7452 -0.6663
vn 0.0384 0.9752 -0.2181
vn 0.0822 0.9827 0.1658
vn 0.1462 0.8076 0.5713
vn 0.1792 0.4520 0.8738
vn 0.1814 0.0360 0.9827
vn 0.1178 -0.4621 0.8790
vn 0.0343 -0.8158 0.5773
vn -0.0318 -0.9818 0.1871
vn -0.0889 -0.9647 -0.2479
vn -0.1080 -0.7205 -0.6850
vn -0.1128 -0.4075 -0.9062
vn -0.1364 -0.0763 -0.9877
vn -0.1320 0.3890 -0.9117
vn -0.0747 0.8012 -0.5937
vn 0.0037 0.9819 -0.1896
vn 0.3972 0.9043 0.1562
vn 0.3314 0.6769 0.6573
vn 0.1994 0.3401 0.9190
vn 0.0215 -0.0777 0.9967
vn -0.1393 -0.4859 0.8628
vn -0.2707 -0.7628 0.5873
vn -0.3605 -0.9137 0.1876
vn -0.3873 -0.8982 -0.2077
vn -0.3473 -0.6724 -0.6536
vn -0.2389 -0.3835 -0.8921
vn -0.0829 -0.0867 -0.9928
vn 0.1402 0.3301 -0.9335
vn 0.3267 0.7103 -0.6236
vn 0.3828 0.8676 -0.3174
vn 0.5965 0.7883 0.1511
vn 0.5195 0.5526 0.6518
vn 0.3372 0.2309 0.9127
vn 0.0966 -0.1255 0.9874
vn -0.1253 -0.3761 0.9181
vn -0.3560 -0.5884 0.7259
vn -0.5824 -0.7904 0.1901
vn -0.5953 -0.7471 -0.2956
vn -0.5375 -0.6005 -0.5921
vn -0.3659 -0.3078 -0.8783
vn -0.1008 0.0514 -0.9936
vn 0.1797 0.4512 -0.8741
vn 0.3699 0.6849 -0.6277
vn 0.5079 0.7973 -0.3261
vn 0.6120 0.7648 0.2012
vn 0.4787 0.5554 0.6799
vn 0.2845 0.2658 0.9211
vn 0.0429 -0.0886 0.9951
vn -0.1771 -0.3963 0.9009
vn -0.3594 -0.6302 0.6882
vn -0.5623 -0.7980 0.2169
vn -0.6185 -0.7526 -0.2259
vn -0.5696 -0.6028 -0.5588
vn -0.3630 -0.2588 -0.8951
vn -0.0543 0.1654 -0.9847
vn 0.1712 0.3908 -0.9044
vn 0.4046 0.6244 -0.6682
vn 0.5612 0.7685 -0.3072
vn 0.6442 0.7476 0.1613
vn 0.5368 0.6042 0.5888
vn 0.2726 0.3197 0.9074
vn -0.0836 -0.0129 0.9964
vn -0.3380 -0.2643 0.9033
vn -0.5238 -0.4962 0.6924
vn -0.6763 -0.7031 0.2196
vn -0.6415 -0.7334 -0.2252
vn -0.5136 -0.6493 -0.5608
vn -0.2423 -0.3588 -0.9014
vn 0.0014 -0.0462 -0.9989
vn 0.2586 0.3110 -0.9145
vn 0.4698 0.5964 -0.6509
vn 0.6167 0.7587 -0.2097
vn 0.7094 0.6198 0.3356
vn 0.4946 0.5159 0.6994
vn 0.1895 0.3410 0.9208
vn -0.0947 0.1393 0.9857
vn -0.3846 -0.1228 0.9149
vn -0.6089 -0.4195 0.6733
vn -0.7427 -0.6301 0.2266
vn -0.7316 -0.6222 -0.2786
vn -0.6039 -0.5155 -0.6079
vn -0.3195 -0.3628 -0.8754
vn 0.0697 -0.1185 -0.9905
vn 0.3990 0.1701 -0.9010
vn 0.6467 0.4282 -0.6312
vn 0.7753 0.6043 -0.1839
vn 0.7747 0.5342 0.3384
vn 0.5887 0.4445 0.6751
vn 0.3295 0.2978 0.8960
vn -0.0334 0.1294 0.9910
vn -0.4470 -0.0739 0.8915
vn -0.7952 -0.2796 0.5380
vn -0.9018 -0.4020 0.1585
vn -0.8825 -0.4464 -0.1481
vn -0.7328 -0.3968 -0.5527
vn -0.4217 -0.2114 -0.8817
vn 0.0482 0.0380 -0.9981
vn 0.3395 0.1767 -0.9239
vn 0.6233 0.3535 -0.6975
vn 0.8340 0.5062 -0.2194
vn 0.8985 0.3821 0.2160
vn 0.7009 0.3120 0.6414
vn 0.3816 0.1878 0.9050
vn 0.0465 0.0441 0.9979
vn -0.3828 -0.1212 0.9159
vn -0.7870 -0.2446 0.5664
vn -0.9543 -0.2115 0.2111
vn -0.9625 -0.1855 -0.1981
vn -0.7463 -0.1630 -0.6454
vn -0.4495 -0.0606 -0.8912
vn -0.0631 0.1379 -0.9884
vn 0.3831 0.2784 -0.8808
vn 0.6496 0.2988 -0.6991
vn 0.9465 0.1870 0.2630
vn 0.7157 0.0427 0.6971
vn 0.4675 -0.0153 0.8839
vn 0.0942 -0.1120 0.9892
vn -0.3779 -0.2381 0.8947
vn -0.7694 -0.2920 0.5681
vn -0.9328 -0.2674 0.2416
vn -0.9635 -0.2062 -0.1705
vn -0.7564 -0.1112 -0.6445
vn -0.4573 -0.0154 -0.8892
vn -0.0660 0.1059 -0.9922
vn 0.3801 0.2299 -0.8959
vn 0.7892 0.2684 -0.5524
vn 0.9411 0.2556 -0.2212
vn 0.9381 0.2749 0.2106
vn 0.7399 0.3280 0.5873
vn 0.3714 0.2534 0.8932
vn -0.0512 0.1299 0.9902
vn -0.4519 0.0700 0.8893
vn -0.7957 0.0804 0.6003
vn -0.9634 0.0835 0.2546
vn -0.9838 0.1331 -0.1197
vn -0.7798 0.1982 -0.5938
vn -0.3875 0.1740 -0.9053
vn 0.0415 0.1392 -0.9894
vn 0.3742 0.1859 -0.9085
vn 0.7084 0.2919 -0.6427
vn 0.9405 0.2579 -0.2210
vn 0.9204 0.3757 0.1083
vn 0.7477 0.5352 0.3932
vn 0.2704 0.6559 0.7048
vn -0.0578 0.5211 0.8515
vn -0.4193 0.4040 0.8130
vn -0.7606 0.3008 0.5754
vn -0.9130 0.3245 0.2473
vn -0.9169 0.3982 -0.0270
vn -0.6972 0.5030 -0.5109
vn -0.3607 0.4682 -0.8066
vn 0.0300 0.3880 -0.9212
vn 0.3609 0.3023 -0.8823
vn 0.7071 0.2973 -0.6415
vn 0.9445 0.2880 -0.1578
vn 0.2504 0.3012 -0.9201
vn 0.3701 0.8943 -0.2516
s 0
usemtl wood_root
f 2//1 15//1 1//1
f 3//2 16//2 2//2
f 4//3 17//3 3//3
f 5//4 18//4 4//4
f 6//5 19//5 5//5
f 7//6 20//6 6//6
f 7//7 22//7 21//7
f 8//8 23//8 22//8
f 9//9 24//9 23//9
f 10//10 25//10 24//10
f 12//11 25//11 11//11
f 12//12 27//12 26//12
f 14//13 27//13 13//13
f 1//14 28//14 14//14
f 15//15 30//15 29//15
f 17//16 30//16 16//16
f 18//17 31//17 17//17
f 19//18 32//18 18//18
f 20//19 33//19 19//19
f 21//20 34//20 20//20
f 22//21 35//21 21//21
f 23//22 36//22 22//22
f 24//23 37//23 23//23
f 25//24 38//24 24//24
f 25//25 40//25 39//25
f 26//26 41//26 40//26
f 28//27 41//27 27//27
f 15//28 42//28 28//28
f 29//29 44//29 43//29
f 30//30 45//30 44//30
f 31//31 46//31 45//31
f 32//32 47//32 46//32
f 34//33 47//33 33//33
f 35//34 48//34 34//34
f 36//35 49//35 35//35
f 37//36 50//36 36//36
f 38//37 51//37 37//37
f 39//38 52//38 38//38
f 40//39 53//39 39//39
f 41//40 54//40 40//40
f 42//41 55//41 41//41
f 29//42 56//42 42//42
f 44//43 57//43 43//43
f 45//44 58//44 44//44
f 46//45 59//45 45//45
f 47//46 60//46 46//46
f 48//47 61//47 47//47
f 48//48 63//48 62//48
f 49//49 64//49 63//49
f 50//50 65//50 64//50
f 51//51 66//51 65//51
f 52//52 67//52 66//52
f 53//53 68//53 67//53
f 54//54 69//54 68//54
f 55//55 70//55 69//55
f 43//56 70//56 56//56
f 59//59 74//59 73//59
f 60//60 75//60 74//60
f 61//61 76//61 75//61
f 62//62 77//62 76//62
f 63//63 78//63 77//63
f 64//64 79//64 78//64
f 66//65 79//65 65//65
f 67//66 80//66 66//66
f 68//67 81//67 67//67
f 69//68 82//68 68//68
f 74//73 87//73 73//73
f 75//74 88//74 74//74
f 76//75 89//75 75//75
f 77//76 90//76 76//76
f 78//77 91//77 77//77
f 78//78 93//78 92//78
f 79//79 94//79 93//79
f 80//80 95//80 94//80
f 81//81 96//81 95//81
f 82//82 97//82 96//82
f 87//87 102//87 101//87
f 88//88 103//88 102//88
f 89//89 104//89 103//89
f 90//90 105//90 104//90
f 92//91 105//91 91//91
f 93//92 106//92 92//92
f 94//93 107//93 93//93
f 95//94 108//94 94//94
f 96//95 109//95 95//95
f 97//96 110//96 96//96
f 102//101 115//101 101//101
f 103//102 116//102 102//102
f 104//103 117//103 103//103
f 105//104 118//104 104//104
f 106//105 119//105 105//105
f 106//106 121//106 120//106
f 107//107 122//107 121//107
f 108//108 123//108 122//108
f 109//109 124//109 123//109
f 110//110 125//110 124//110
f 114//114 129//114 128//114
f 116//115 129//115 115//115
f 117//116 130//116 116//116
f 118//117 131//117 117//117
f 119//118 132//118 118//118
f 120//119 133//119 119//119
f 121//120 134//120 120//120
f 122//121 135//121 121//121
f 122//122 137//122 136//122
f 123//123 138//123 137//123
f 124//124 139//124 138//124
f 129//129 144//129 143//129
f 130//130 145//130 144//130
f 132//131 145//131 131//131
f 133//132 146//132 132//132
f 134//133 147//133 133//133
f 135//134 148//134 134//134
f 136//135 149//135 135//135
f 137//136 150//136 136//136
f 138//137 151//137 137//137
f 138//138 153//138 152//138
f 143//143 158//143 157//143
f 144//144 159//144 158//144
f 145//145 160//145 159//145
f 146//146 161//146 160//146
f 147//147 162//147 161//147
f 148//148 163//148 162//148
f 149//149 164//149 163//149
f 150//150 165//150 164//150
f 152//151 165//151 151//151
f 153//152 166//152 152//152
f 156//156 171//156 170//156
f 157//157 172//157 171//157
f 158//158 173//158 172//158
f 159//159 174//159 173//159
f 160//160 175//160 174//160
f 161//161 176//161 175//161
f 162//162 177//162 176//162
f 163//163 178//163 177//163
f 164//164 179//164 178//164
f 165//165 180//165 179//165
f 166//166 181//166 180//166
f 167//167 182//167 181//167
f 169//169 184//169 183//169
f 170//170 185//170 184//170
f 171//171 186//171 185//171
f 172//172 187//172 186//172
f 173//173 188//173 187//173
f 174//174 189//174 188//174
f 175//175 190//175 189//175
f 176//176 191//176 190//176
f 178//177 191//177 177//177
f 179//178 192//178 178//178
f 179//179 194//179 193//179
f 180//180 195//180 194//180
f 182//181 195//181 181//181
f 182//182 183//182 196//182
f 184//183 197//183 183//183
f 185//184 198//184 184//184
f 186//185 199//185 185//185
f 187//186 200//186 186//186
f 188//187 201//187 187//187
f 189//188 202//188 188//188
f 190//189 203//189 189//189
f 191//190 204//190 190//190
f 192//191 205//191 191//191
f 193//192 206//192 192//192
f 194//193 207//193 193//193
f 195//194 208//194 194//194
f 195//195 210//195 209//195
f 183//196 210//196 196//196
f 198//197 211//197 197//197
f 199//198 212//198 198//198
f 200//199 213//199 199//199
f 201//200 214//200 200//200
f 202//201 215//201 201//201
f 203//202 216//202 202//202
f 204//203 217//203 203//203
f 205//204 218//204 204//204
f 206//205 219//205 205//205
f 207//206 220//206 206//206
f 208//207 221//207 207//207
f 209//208 222//208 208//208
f 210//209 223//209 209//209
f 197//210 224//210 210//210
f 212//211 225//211 211//211
f 213//212 226//212 212//212
f 214//213 227//213 213//213
f 215//214 228//214 214//214
f 216//215 229//215 215//215
f 217//216 230//216 216//216
f 218//217 231//217 217//217
f 219//218 232//218 218//218
f 220//219 233//219 219//219
f 221//220 234//220 220//220
f 222//221 235//221 221//221
f 223//222 236//222 222//222
f 224//223 237//223 223//223
f 224//224 225//224 238//224
f 226//225 239//225 225//225
f 227//226 240//226 226//226
f 227//227 242//227 241//227
f 228//228 243//228 242//228
f 229//229 244//229 243//229
f 230//230 245//230 244//230
f 231//231 246//231 245//231
f 233//232 246//232 232//232
f 233//233 248//233 247//233
f 234//234 249//234 248//234
f 235//235 250//235 249//235
f 236//236 251//236 250//236
f 237//237 252//237 251//237
f 238//238 239//238 252//238
f 253//239 2//239 1//239
f 253//239 3//239 2//239
f 253//239 4//239 3//239
f 253//239 5//239 4//239
f 253//239 6//239 5//239
f 253//239 7//239 6//239
f 253//239 8//239 7//239
f 253//239 9//239 8//239
f 253//239 10//239 9//239
f 253//239 11//239 10//239
f 253//239 12//239 11//239
f 253//239 13//239 12//239
f 253//239 14//239 13//239
f 253//239 1//239 14//239
f 254//239 239//239 240//239
f 254//239 240//239 241//239
f 254//239 241//239 242//239
f 254//239 242//239 243//239
f 254//239 243//239 244//239
f 254//239 244//239 245//239
f 254//239 245//239 246//239
f 254//239 246//239 247//239
f 254//239 247//239 248//239
f 254//239 248//239 249//239
f 254//239 249//239 250//239
f 254//239 250//239 251//239
f 254//239 251//239 252//239
f 254//239 252//239 239//239
f 255//240 264//240 263//240
f 257//241 264//241 256//241
f 258//242 265//242 257//242
f 259//243 266//243 258//243
f 260//244 267//244 259//244
f 260//245 269//245 268//245
f 261//246 270//246 269//246
f 262//247 263//247 270//247
f 263//248 272//248 271//248
f 265//249 272//249 264//249
f 266//250 273//250 265//250
f 267//251 274//251 266//251
f 268//252 275//252 267//252
f 268//253 277//253 276//253
f 269//254 278//254 277//254
f 270//255 271//255 278//255
f 271//256 280//256 279//256
f 273//257 280//257 272//257
f 274//258 281//258 273//258
f 275//259 282//259 274//259
f 276//260 283//260 275//260
f 276//261 285//261 284//261
f 277//262 286//262 285//262
f 278//263 279//263 286//263
f 287//264 256//264 255//264
f 287//265 257//265 256//265
f 287//266 258//266 257//266
f 287//267 259//267 258//267
f 287//268 260//268 259//268
f 287//269 261//269 260//269
f 287//270 262//270 261//270
f 287//271 255//271 262//271
f 288//272 279//272 280//272
f 288//273 280//273 281//273
f 288//274 281//274 282//274
f 288//275 282//275 283//275
f 288//276 283//276 284//276
f 288//277 284//277 285//277
f 288//278 285//278 286//278
f 288//279 286//279 279//279
f 290//280 297//280 289//280
f 291//281 298//281 290//281
f 292//282 299//282 291//282
f 292//283 301//283 300//283
f 293//284 302//284 301//284
f 294//285 303//285 302//285
f 295//286 304//286 303//286
f 289//287 304//287 296//287
f 298//288 305//288 297//288
f 299//289 306//289 298//289
f 300//290 307//290 299//290
f 300//291 309//291 308//291
f 301//292 310//292 309//292
f 302//293 311//293 310//293
f 303//294 312//294 311//294
f 297//295 312//295 304//295
f 306//296 313//296 305//296
f 307//297 314//297 306//297
f 308//298 315//298 307//298
f 308//299 317//299 316//299
f 309//300 318//300 317//300
f 310//301 319//301 318//301
f 311//302 320//302 319//302
f 305//303 320//303 312//303
f 321//304 290//304 289//304
f 321//305 291//305 290//305
f 321//306 292//306 291//306
f 321//307 293//307 292//307
f 321//308 294//308 293//308
f 321//309 295//309 294//309
f 321//310 296//310 295//310
f 321//311 289//311 296//311
f 322//312 313//312 314//312
f 322//313 314//313 315//313
f 322//314 315//314 316//314
f 322//315 316//315 317//315
f 322//316 317//316 318//316
f 322//317 318//317 319//317
f 322//318 319//318 320//318
f 322//319 320//319 313//319
f 323//320 332//320 331//320
f 324//321 333//321 332//321
f 326//322 333//322 325//322
f 327//323 334//323 326//323
f 328//324 335//324 327//324
f 329//325 336//325 328//325
f 329//326 338//326 337//326
f 330//327 331//327 338//327
f 331//328 340//328 339//328
f 332//329 341//329 340//329
f 334//330 341//330 333//330
f 335//331 342//331 334//331
f 336//332 343//332 335//332
f 337//333 344//333 336//333
f 337//334 346//334 345//334
f 338//335 339//335 346//335
f 339//336 348//336 347//336
f 340//337 349//337 348//337
f 342//338 349//338 341//338
f 343//339 350//339 342//339
f 344//340 351//340 343//340
f 345//341 352//341 344//341
f 345//342 354//342 353//342
f 346//343 347//343 354//343
f 355//344 324//344 323//344
f 355//345 325//345 324//345
f 355//346 326//346 325//346
f 355//347 327//347 326//347
f 355//348 328//348 327//348
f 355//349 329//349 328//349
f 355//350 330//350 329//350
f 355//351 323//351 330//351
f 356//352 347//352 348//352
f 356//353 348//353 349//353
f 356//354 349//354 350//354
f 356//355 350//355 351//355
f 356//356 351//356 352//356
f 356//357 352//357 353//357
f 356//358 353//358 354//358
f 356//359 354//359 347//359
f 357//360 366//360 365//360
f 358//361 367//361 366//361
f 360//362 367//362 359//362
f 361//363 368//363 360//363
f 362//364 369//364 361//364
f 363//365 370//365 362//365
f 363//366 372//366 371//366
f 364//367 365//367 372//367
f 365//368 374//368 373//368
f 366//369 375//369 374//369
f 368//370 375//370 367//370
f 369//371 376//371 368//371
f 370//372 377//372 369//372
f 371//373 378//373 370//373
f 371//374 380//374 379//374
f 372//375 373//375 380//375
f 373//376 382//376 381//376
f 374//377 383//377 382//377
f 376//378 383//378 375//378
f 377//379 384//379 376//379
f 378//380 385//380 377//380
f 379//381 386//381 378//381
f 379//382 388//382 387//382
f 380//383 381//383 388//383
f 389//384 358//384 357//384
f 389//385 359//385 358//385
f 389//386 360//386 359//386
f 389//387 361//387 360//387
f 389//388 362//388 361//388
f 389//389 363//389 362//389
f 389//390 364//390 363//390
f 389//391 357//391 364//391
f 390//392 381//392 382//392
f 390//393 382//393 383//393
f 390//394 383//394 384//394
f 390//395 384//395 385//395
f 390//396 385//396 386//396
f 390//397 386//397 387//397
f 390//398 387//398 388//398
f 390//399 388//399 381//399
f 391//400 400//400 399//400
f 392//401 401//401 400//401
f 393//402 402//402 401//402
f 394//403 403//403 402//403
f 396//404 403//404 395//404
f 397//405 404//405 396//405
f 398//406 405//406 397//406
f 391//407 406//407 398//407
f 399//408 408//408 407//408
f 400//409 409//409 408//409
f 401//410 410//410 409//410
f 402//411 411//411 410//411
f 404//412 411//412 403//412
f 405//413 412//413 404//413
f 406//414 413//414 405//414
f 399//415 414//415 406//415
f 407//416 416//416 415//416
f 408//417 417//417 416//417
f 409//418 418//418 417//418
f 410//419 419//419 418//419
f 412//420 419//420 411//420
f 413//421 420//421 412//421
f 414//422 421//422 413//422
f 407//423 422//423 414//423
f 423//424 392//424 391//424
f 423//425 393//425 392//425
f 423//426 394//426 393//426
f 423//427 395//427 394//427
f 423//428 396//428 395//428
f 423//429 397//429 396//429
f 423//430 398//430 397//430
f 423//431 391//431 398//431
f 424//432 415//432 416//432
f 424//433 416//433 417//433
f 424//434 417//434 418//434
f 424//435 418//435 419//435
f 424//436 419//436 420//436
f 424//437 420//437 421//437
f 424//438 421//438 422//438
f 424//439 422//439 415//439
f 2//440 16//440 15//440
f 3//441 17//441 16//441
f 4//442 18//442 17//442
f 5//443 19//443 18//443
f 6//444 20//444 19//444
f 7//445 21//445 20//445
f 7//446 8//446 22//446
f 8//447 9//447 23//447
f 9//448 10//448 24//448
f 10//449 11//449 25//449
f 12//450 26//450 25//450
f 12//451 13//451 27//451
f 14//452 28//452 27//452
f 1//453 15//453 28//453
f 15//454 16//454 30//454
f 17//455 31//455 30//455
f 18//456 32//456 31//456
f 19//457 33//457 32//457
f 20//458 34//458 33//458
f 21//459 35//459 34//459
f 22//460 36//460 35//460
f 23//461 37//461 36//461
f 24//462 38//462 37//462
f 25//463 39//463 38//463
f 25//464 26//464 40//464
f 26//465 27//465 41//465
f 28//466 42//466 41//466
f 15//467 29//467 42//467
f 29//468 30//468 44//468
f 30//469 31//469 45//469
f 31//470 32//470 46//470
f 32//471 33//471 47//471
f 34//472 48//472 47//472
f 35//473 49//473 48//473
f 36//474 50//474 49//474
f 37//475 51//475 50//475
f 38//476 52//476 51//476
f 39//477 53//477 52//477
f 40//478 54//478 53//478
f 41//479 55//479 54//479
f 42//480 56//480 55//480
f 29//481 43//481 56//481
f 44//482 58//482 57//482
f 45//483 59//483 58//483
f 46//484 60//484 59//484
f 47//485 61//485 60//485
f 48//486 62//486 61//486
f 48//487 49//487 63//487
f 49//488 50//488 64//488
f 50//489 51//489 65//489
f 51//490 52//490 66//490
f 52//491 53//491 67//491
f 53//492 54//492 68//492
f 54//493 55//493 69//493
f 55//494 56//494 70//494
f 43//495 57//495 70//495
f 59//498 60//498 74//498
f 60//499 61//499 75//499
f 61//500 62//500 76//500
f 62//501 63//501 77//501
f 63//502 64//502 78//502
f 64//503 65//503 79//503
f 66//504 80//504 79//504
f 67//505 81//505 80//505
f 68//506 82//506 81//506
f 69//507 83//507 82//507
f 74//512 88//512 87//512
f 75//513 89//513 88//513
f 76//514 90//514 89//514
f 77//515 91//515 90//515
f 78//77 92//77 91//77
f 78//516 79//516 93//516
f 79//517 80//517 94//517
f 80//518 81//518 95//518
f 81//519 82//519 96//519
f 82//520 83//520 97//520
f 87//525 88//525 102//525
f 88//526 89//526 103//526
f 89//527 90//527 104//527
f 90//528 91//528 105//528
f 92//529 106//529 105//529
f 93//530 107//530 106//530
f 94//531 108//531 107//531
f 95//532 109//532 108//532
f 96//533 110//533 109//533
f 97//534 111//534 110//534
f 102//539 116//539 115//539
f 103//540 117//540 116//540
f 104//541 118//541 117//541
f 105//542 119//542 118//542
f 106//543 120//543 119//543
f 106//544 107//544 121//544
f 107//545 108//545 122//545
f 108//546 109//546 123//546
f 109//547 110//547 124//547
f 110//548 111//548 125//548
f 114//552 115//552 129//552
f 116//553 130//553 129//553
f 117//554 131//554 130//554
f 118//555 132//555 131//555
f 119//556 133//556 132//556
f 120//557 134//557 133//557
f 121//558 135//558 134//558
f 122//559 136//559 135//559
f 122//560 123//560 137//560
f 123//561 124//561 138//561
f 124//562 125//562 139//562
f 129//567 130//567 144//567
f 130//568 131//568 145//568
f 132//569 146//569 145//569
f 133//570 147//570 146//570
f 134//571 148//571 147//571
f 135//572 149//572 148//572
f 136//573 150//573 149//573
f 137//574 151//574 150//574
f 138//575 152//575 151//575
f 138//576 139//576 153//576
f 143//581 144//581 158//581
f 144//582 145//582 159//582
f 145//583 146//583 160//583
f 146//584 147//584 161//584
f 147//585 148//585 162//585
f 148//586 149//586 163//586
f 149//587 150//587 164//587
f 150//588 151//588 165//588
f 152//589 166//589 165//589
f 153//590 167//590 166//590
f 156//594 157//594 171//594
f 157//595 158//595 172//595
f 158//596 159//596 173//596
f 159//597 160//597 174//597
f 160//598 161//598 175//598
f 161//599 162//599 176//599
f 162//600 163//600 177//600
f 163//601 164//601 178//601
f 164//602 165//602 179//602
f 165//603 166//603 180//603
f 166//604 167//604 181//604
f 167//605 168//605 182//605
f 169//607 170//607 184//607
f 170//608 171//608 185//608
f 171//609 172//609 186//609
f 172//610 173//610 187//610
f 173//611 174//611 188//611
f 174//612 175//612 189//612
f 175//613 176//613 190//613
f 176//614 177//614 191//614
f 178//615 192//615 191//615
f 179//616 193//616 192//616
f 179//617 180//617 194//617
f 180//618 181//618 195//618
f 182//619 196//619 195//619
f 182//620 169//620 183//620
f 184//621 198//621 197//621
f 185//622 199//622 198//622
f 186//623 200//623 199//623
f 187//624 201//624 200//624
f 188//625 202//625 201//625
f 189//626 203//626 202//626
f 190//627 204//627 203//627
f 191//628 205//628 204//628
f 192//629 206//629 205//629
f 193//630 207//630 206//630
f 194//631 208//631 207//631
f 195//632 209//632 208//632
f 195//633 196//633 210//633
f 183//196 197//196 210//196
f 198//634 212//634 211//634
f 199//635 213//635 212//635
f 200//636 214//636 213//636
f 201//637 215//637 214//637
f 202//638 216//638 215//638
f 203//639 217//639 216//639
f 204//640 218//640 217//640
f 205//641 219//641 218//641
f 206//642 220//642 219//642
f 207//643 221//643 220//643
f 208//644 222//644 221//644
f 209//645 223//645 222//645
f 210//646 224//646 223//646
f 197//647 211//647 224//647
f 212//648 226//648 225//648
f 213//649 227//649 226//649
f 214//650 228//650 227//650
f 215//651 229//651 228//651
f 216//652 230//652 229//652
f 217//653 231//653 230//653
f 218//654 232//654 231//654
f 219//655 233//655 232//655
f 220//656 234//656 233//656
f 221//657 235//657 234//657
f 222//658 236//658 235//658
f 223//659 237//659 236//659
f 224//660 238//660 237//660
f 224//661 211//661 225//661
f 226//662 240//662 239//662
f 227//663 241//663 240//663
f 227//664 228//664 242//664
f 228//665 229//665 243//665
f 229//666 230//666 244//666
f 230//667 231//667 245//667
f 231//668 232//668 246//668
f 233//669 247//669 246//669
f 233//670 234//670 248//670
f 234//671 235//671 249//671
f 235//672 236//672 250//672
f 236//673 237//673 251//673
f 237//674 238//674 252//674
f 238//675 225//675 239//675
f 255//240 256//240 264//240
f 257//241 265//241 264//241
f 258//242 266//242 265//242
f 259//243 267//243 266//243
f 260//244 268//244 267//244
f 260//245 261//245 269//245
f 261//246 262//246 270//246
f 262//247 255//247 263//247
f 263//248 264//248 272//248
f 265//249 273//249 272//249
f 266//250 274//250 273//250
f 267//251 275//251 274//251
f 268//252 276//252 275//252
f 268//253 269//253 277//253
f 269//254 270//254 278//254
f 270//255 263//255 271//255
f 271//256 272//256 280//256
f 273//257 281//257 280//257
f 274//258 282//258 281//258
f 275//259 283//259 282//259
f 276//260 284//260 283//260
f 276//261 277//261 285//261
f 277//262 278//262 286//262
f 278//263 271//263 279//263
f 290//280 298//280 297//280
f 291//281 299//281 298//281
f 292//282 300//282 299//282
f 292//283 293//283 301//283
f 293//284 294//284 302//284
f 294//285 295//285 303//285
f 295//286 296//286 304//286
f 289//287 297//287 304//287
f 298//288 306//288 305//288
f 299//289 307//289 306//289
f 300//290 308//290 307//290
f 300//291 301//291 309//291
f 301//292 302//292 310//292
f 302//293 303//293 311//293
f 303//294 304//294 312//294
f 297//295 305//295 312//295
f 306//296 314//296 313//296
f 307//297 315//297 314//297
f 308//298 316//298 315//298
f 308//299 309//299 317//299
f 309//676 310//676 318//676
f 310//301 311//301 319//301
f 311//302 312//302 320//302
f 305//303 313//303 320//303
f 323//320 324//320 332//320
f 324//321 325//321 333//321
f 326//322 334//322 333//322
f 327//323 335//323 334//323
f 328//324 336//324 335//324
f 329//325 337//325 336//325
f 329//326 330//326 338//326
f 330//327 323//327 331//327
f 331//328 332//328 340//328
f 332//329 333//329 341//329
f 334//330 342//330 341//330
f 335//331 343//331 342//331
f 336//332 344//332 343//332
f 337//333 345//333 344//333
f 337//334 338//334 346//334
f 338//335 331//335 339//335
f 339//336 340//336 348//336
f 340//337 341//337 349//337
f 342//338 350//338 349//338
f 343//339 351//339 350//339
f 344//340 352//340 351//340
f 345//341 353//341 352//341
f 345//342 346//342 354//342
f 346//343 339//343 347//343
f 357//360 358//360 366//360
f 358//361 359//361 367//361
f 360//362 368//362 367//362
f 361//363 369//363 368//363
f 362//364 370//364 369//364
f 363//365 371//365 370//365
f 363//677 364//677 372//677
f 364//367 357//367 365//367
f 365//368 366//368 374//368
f 366//369 367//369 375//369
f 368//370 376//370 375//370
f 369//371 377//371 376//371
f 370//372 378//372 377//372
f 371//373 379//373 378//373
f 371//374 372//374 380//374
f 372//375 365//375 373//375
f 373//376 374//376 382//376
f 374//377 375//377 383//377
f 376//378 384//378 383//378
f 377//379 385//379 384//379
f 378//380 386//380 385//380
f 379//381 387//381 386//381
f 379//382 380//382 388//382
f 380//383 373//383 381//383
f 391//400 392//400 400//400
f 392//401 393//401 401//401
f 393//402 394//402 402//402
f 394//403 395//403 403//403
f 396//404 404//404 403//404
f 397//405 405//405 404//405
f 398//406 406//406 405//406
f 391//407 399//407 406//407
f 399//408 400//408 408//408
f 400//409 401//409 409//409
f 401//410 402//410 410//410
f 402//411 403//411 411//411
f 404//412 412//412 411//412
f 405//413 413//413 412//413
f 406//414 414//414 413//414
f 399//415 407//415 414//415
f 407//416 408//416 416//416
f 408//417 409//417 417//417
f 409//418 410//418 418//418
f 410//419 411//419 419//419
f 412//420 420//420 419//420
f 413//421 421//421 420//421
f 414//422 422//422 421//422
f 407//423 415//423 422//423
usemtl moss_patch
f 57//57 72//57 71//57
f 58//58 73//58 72//58
f 70//69 83//69 69//69
f 57//70 84//70 70//70
f 72//71 85//71 71//71
f 73//72 86//72 72//72
f 83//83 98//83 97//83
f 84//84 85//84 98//84
f 85//85 100//85 99//85
f 86//86 101//86 100//86
f 98//97 111//97 97//97
f 98//98 99//98 112//98
f 100//99 113//99 99//99
f 101//100 114//100 100//100
f 112//111 125//111 111//111
f 99//112 126//112 112//112
f 113//113 128//113 127//113
f 125//125 140//125 139//125
f 126//126 127//126 140//126
f 127//127 142//127 141//127
f 128//128 143//128 142//128
f 139//139 154//139 153//139
f 140//140 141//140 154//140
f 141//141 156//141 155//141
f 142//142 157//142 156//142
f 154//153 167//153 153//153
f 141//154 168//154 154//154
f 155//155 170//155 169//155
f 168//168 169//168 182//168
f 57//496 58//496 72//496
f 58//497 59//497 73//497
f 70//508 84//508 83//508
f 57//509 71//509 84//509
f 72//510 86//510 85//510
f 73//511 87//511 86//511
f 83//521 84//521 98//521
f 84//522 71//522 85//522
f 85//523 86//523 100//523
f 86//524 87//524 101//524
f 98//535 112//535 111//535
f 98//536 85//536 99//536
f 100//537 114//537 113//537
f 101//538 115//538 114//538
f 112//549 126//549 125//549
f 99//550 113//550 126//550
f 113//551 114//551 128//551
f 125//563 126//563 140//563
f 126//564 113//564 127//564
f 127//565 128//565 142//565
f 128//566 129//566 143//566
f 139//577 140//577 154//577
f 140//578 127//578 141//578
f 141//579 142//579 156//579
f 142//580 143//580 157//580
f 154//591 168//591 167//591
f 141//592 155//592 168//592
f 155//593 156//593 170//593
f 168//606 155//606 169//606
