# speeder.obj - desert speeder for the moebius-lines renderer
# Quads-only (plus even-count cap fans) so per-quad face coloring pairs cleanly.
# Edit freely: v lines are positions, f lines are faces (1-based indices).
# Re-generate from make_speeder.py, or sculpt by hand / in Blender.
# 264 vertices, 202 quads, 64 triangles

v 0.0000 1.1200 -0.2200
v 0.0000 1.0500 -0.1500
v 0.0000 1.0500 0.1500
v 0.0000 1.1200 0.2200
v 0.0000 1.3800 0.2200
v 0.0000 1.4500 0.1500
v 0.0000 1.4500 -0.1500
v 0.0000 1.3800 -0.2200
v 1.2000 0.7500 -0.9000
v 1.2000 0.5500 -0.7000
v 1.2000 0.5500 0.7000
v 1.2000 0.7500 0.9000
v 1.2000 1.7500 0.9000
v 1.2000 1.9500 0.7000
v 1.2000 1.9500 -0.7000
v 1.2000 1.7500 -0.9000
v 3.0000 0.6500 -1.5000
v 3.0000 0.3500 -1.2000
v 3.0000 0.3500 1.2000
v 3.0000 0.6500 1.5000
v 3.0000 2.1000 1.5000
v 3.0000 2.4000 1.2000
v 3.0000 2.4000 -1.2000
v 3.0000 2.1000 -1.5000
v 5.5000 0.6000 -1.6000
v 5.5000 0.3000 -1.3000
v 5.5000 0.3000 1.3000
v 5.5000 0.6000 1.6000
v 5.5000 2.2000 1.6000
v 5.5000 2.5000 1.3000
v 5.5000 2.5000 -1.3000
v 5.5000 2.2000 -1.6000
v 7.5000 0.7300 -1.4000
v 7.5000 0.4500 -1.1200
v 7.5000 0.4500 1.1200
v 7.5000 0.7300 1.4000
v 7.5000 2.0200 1.4000
v 7.5000 2.3000 1.1200
v 7.5000 2.3000 -1.1200
v 7.5000 2.0200 -1.4000
v 9.2000 0.9000 -1.0000
v 9.2000 0.7000 -0.8000
v 9.2000 0.7000 0.8000
v 9.2000 0.9000 1.0000
v 9.2000 1.8500 1.0000
v 9.2000 2.0500 0.8000
v 9.2000 2.0500 -0.8000
v 9.2000 1.8500 -1.0000
v 10.0000 1.0500 -0.8500
v 10.0000 0.9000 -0.7000
v 10.0000 0.9000 0.7000
v 10.0000 1.0500 0.8500
v 10.0000 1.7000 0.8500
v 10.0000 1.8500 0.7000
v 10.0000 1.8500 -0.7000
v 10.0000 1.7000 -0.8500
v 0.0000 1.2500 0.0000
v 10.0000 1.3750 0.0000
v 2.2000 2.4200 -0.5000
v 2.2000 2.3200 -0.4000
v 2.2000 2.3200 0.4000
v 2.2000 2.4200 0.5000
v 2.2000 2.4500 0.5000
v 2.2000 2.5500 0.4000
v 2.2000 2.5500 -0.4000
v 2.2000 2.4500 -0.5000
v 2.8000 2.5800 -0.7800
v 2.8000 2.3600 -0.5600
v 2.8000 2.3600 0.5600
v 2.8000 2.5800 0.7800
v 2.8000 3.0300 0.7800
v 2.8000 3.2500 0.5600
v 2.8000 3.2500 -0.5600
v 2.8000 3.0300 -0.7800
v 4.1000 2.5800 -0.7200
v 4.1000 2.3600 -0.5000
v 4.1000 2.3600 0.5000
v 4.1000 2.5800 0.7200
v 4.1000 2.9600 0.7200
v 4.1000 3.1800 0.5000
v 4.1000 3.1800 -0.5000
v 4.1000 2.9600 -0.7200
v 4.8000 2.4600 -0.4200
v 4.8000 2.3600 -0.3200
v 4.8000 2.3600 0.3200
v 4.8000 2.4600 0.4200
v 4.8000 2.5200 0.4200
v 4.8000 2.6200 0.3200
v 4.8000 2.6200 -0.3200
v 4.8000 2.5200 -0.4200
v 2.2000 2.4400 0.0000
v 4.8000 2.4900 0.0000
v 6.0000 1.5648 -1.8728
v 6.0000 1.7272 -2.0352
v 6.0000 1.7272 -2.2648
v 6.0000 1.5648 -2.4272
v 6.0000 1.3352 -2.4272
v 6.0000 1.1728 -2.2648
v 6.0000 1.1728 -2.0352
v 6.0000 1.3352 -1.8728
v 6.6000 1.7753 -1.3647
v 6.6000 2.2353 -1.8247
v 6.6000 2.2353 -2.4753
v 6.6000 1.7753 -2.9353
v 6.6000 1.1247 -2.9353
v 6.6000 0.6647 -2.4753
v 6.6000 0.6647 -1.8247
v 6.6000 1.1247 -1.3647
v 8.7000 1.8021 -1.3000
v 8.7000 2.3000 -1.7979
v 8.7000 2.3000 -2.5021
v 8.7000 1.8021 -3.0000
v 8.7000 1.0979 -3.0000
v 8.7000 0.6000 -2.5021
v 8.7000 0.6000 -1.7979
v 8.7000 1.0979 -1.3000
v 10.3000 1.6796 -1.5957
v 10.3000 2.0043 -1.9204
v 10.3000 2.0043 -2.3796
v 10.3000 1.6796 -2.7043
v 10.3000 1.2204 -2.7043
v 10.3000 0.8957 -2.3796
v 10.3000 0.8957 -1.9204
v 10.3000 1.2204 -1.5957
v 10.7000 1.5725 -1.8544
v 10.7000 1.7456 -2.0275
v 10.7000 1.7456 -2.2725
v 10.7000 1.5725 -2.4456
v 10.7000 1.3275 -2.4456
v 10.7000 1.1544 -2.2725
v 10.7000 1.1544 -2.0275
v 10.7000 1.3275 -1.8544
v 6.0000 1.4500 -2.1500
v 10.7000 1.4500 -2.1500
v 7.0000 1.2000 -2.0000
v 8.4000 1.2000 -2.0000
v 8.4000 1.2000 -1.3500
v 7.0000 1.2000 -1.3500
v 7.0000 1.7500 -2.0000
v 8.4000 1.7500 -2.0000
v 8.4000 1.7500 -1.3500
v 7.0000 1.7500 -1.3500
v 6.0000 1.5648 2.4272
v 6.0000 1.7272 2.2648
v 6.0000 1.7272 2.0352
v 6.0000 1.5648 1.8728
v 6.0000 1.3352 1.8728
v 6.0000 1.1728 2.0352
v 6.0000 1.1728 2.2648
v 6.0000 1.3352 2.4272
v 6.6000 1.7753 2.9353
v 6.6000 2.2353 2.4753
v 6.6000 2.2353 1.8247
v 6.6000 1.7753 1.3647
v 6.6000 1.1247 1.3647
v 6.6000 0.6647 1.8247
v 6.6000 0.6647 2.4753
v 6.6000 1.1247 2.9353
v 8.7000 1.8021 3.0000
v 8.7000 2.3000 2.5021
v 8.7000 2.3000 1.7979
v 8.7000 1.8021 1.3000
v 8.7000 1.0979 1.3000
v 8.7000 0.6000 1.7979
v 8.7000 0.6000 2.5021
v 8.7000 1.0979 3.0000
v 10.3000 1.6796 2.7043
v 10.3000 2.0043 2.3796
v 10.3000 2.0043 1.9204
v 10.3000 1.6796 1.5957
v 10.3000 1.2204 1.5957
v 10.3000 0.8957 1.9204
v 10.3000 0.8957 2.3796
v 10.3000 1.2204 2.7043
v 10.7000 1.5725 2.4456
v 10.7000 1.7456 2.2725
v 10.7000 1.7456 2.0275
v 10.7000 1.5725 1.8544
v 10.7000 1.3275 1.8544
v 10.7000 1.1544 2.0275
v 10.7000 1.1544 2.2725
v 10.7000 1.3275 2.4456
v 6.0000 1.4500 2.1500
v 10.7000 1.4500 2.1500
v 7.0000 1.2000 1.3500
v 8.4000 1.2000 1.3500
v 8.4000 1.2000 2.0000
v 7.0000 1.2000 2.0000
v 7.0000 1.7500 1.3500
v 8.4000 1.7500 1.3500
v 8.4000 1.7500 2.0000
v 7.0000 1.7500 2.0000
v 8.5000 2.3000 -0.0700
v 10.0000 2.3000 -0.0700
v 10.0000 2.3000 0.0700
v 8.5000 2.3000 0.0700
v 9.6000 4.6000 -0.0500
v 10.5000 4.6000 -0.0500
v 10.5000 4.6000 0.0500
v 9.6000 4.6000 0.0500
v 2.0000 0.0000 -1.9500
v 8.2000 0.0000 -1.9500
v 8.2000 0.0000 -1.5500
v 2.0000 0.0000 -1.5500
v 2.0000 0.2800 -1.9500
v 8.2000 0.2800 -1.9500
v 8.2000 0.2800 -1.5500
v 2.0000 0.2800 -1.5500
v 2.8800 0.2800 -1.8500
v 3.1200 0.2800 -1.8500
v 3.1200 0.2800 -1.6500
v 2.8800 0.2800 -1.6500
v 2.8800 0.9000 -1.8500
v 3.1200 0.9000 -1.8500
v 3.1200 0.9000 -1.6500
v 2.8800 0.9000 -1.6500
v 6.8800 0.2800 -1.8500
v 7.1200 0.2800 -1.8500
v 7.1200 0.2800 -1.6500
v 6.8800 0.2800 -1.6500
v 6.8800 0.9000 -1.8500
v 7.1200 0.9000 -1.8500
v 7.1200 0.9000 -1.6500
v 6.8800 0.9000 -1.6500
v 2.0000 0.0000 1.5500
v 8.2000 0.0000 1.5500
v 8.2000 0.0000 1.9500
v 2.0000 0.0000 1.9500
v 2.0000 0.2800 1.5500
v 8.2000 0.2800 1.5500
v 8.2000 0.2800 1.9500
v 2.0000 0.2800 1.9500
v 2.8800 0.2800 1.6500
v 3.1200 0.2800 1.6500
v 3.1200 0.2800 1.8500
v 2.8800 0.2800 1.8500
v 2.8800 0.9000 1.6500
v 3.1200 0.9000 1.6500
v 3.1200 0.9000 1.8500
v 2.8800 0.9000 1.8500
v 6.8800 0.2800 1.6500
v 7.1200 0.2800 1.6500
v 7.1200 0.2800 1.8500
v 6.8800 0.2800 1.8500
v 6.8800 0.9000 1.6500
v 7.1200 0.9000 1.6500
v 7.1200 0.9000 1.8500
v 6.8800 0.9000 1.8500
v 1.3500 1.9500 -0.1000
v 1.5500 1.9500 -0.1000
v 1.5500 1.9500 0.1000
v 1.3500 1.9500 0.1000
v 1.3500 3.1000 -0.1000
v 1.5500 3.1000 -0.1000
v 1.5500 3.1000 0.1000
v 1.3500 3.1000 0.1000
v 1.2500 3.1000 -0.2000
v 1.6500 3.1000 -0.2000
v 1.6500 3.1000 0.2000
v 1.2500 3.1000 0.2000
v 1.2500 3.3000 -0.2000
v 1.6500 3.3000 -0.2000
v 1.6500 3.3000 0.2000
v 1.2500 3.3000 0.2000

# main fuselage - edit these stations to reshape the body
o hull
f 1 2 10 9
f 2 3 11 10
f 3 4 12 11
f 4 5 13 12
f 5 6 14 13
f 6 7 15 14
f 7 8 16 15
f 8 1 9 16
f 9 10 18 17
f 10 11 19 18
f 11 12 20 19
f 12 13 21 20
f 13 14 22 21
f 14 15 23 22
f 15 16 24 23
f 16 9 17 24
f 17 18 26 25
f 18 19 27 26
f 19 20 28 27
f 20 21 29 28
f 21 22 30 29
f 22 23 31 30
f 23 24 32 31
f 24 17 25 32
f 25 26 34 33
f 26 27 35 34
f 27 28 36 35
f 28 29 37 36
f 29 30 38 37
f 30 31 39 38
f 31 32 40 39
f 32 25 33 40
f 33 34 42 41
f 34 35 43 42
f 35 36 44 43
f 36 37 45 44
f 37 38 46 45
f 38 39 47 46
f 39 40 48 47
f 40 33 41 48
f 41 42 50 49
f 42 43 51 50
f 43 44 52 51
f 44 45 53 52
f 45 46 54 53
f 46 47 55 54
f 47 48 56 55
f 48 41 49 56
f 8 7 57
f 7 6 57
f 6 5 57
f 5 4 57
f 4 3 57
f 3 2 57
f 2 1 57
f 1 8 57
f 49 50 58
f 50 51 58
f 51 52 58
f 52 53 58
f 53 54 58
f 54 55 58
f 55 56 58
f 56 49 58

# cockpit bubble - raise yt values for a taller canopy
o canopy
f 59 60 68 67
f 60 61 69 68
f 61 62 70 69
f 62 63 71 70
f 63 64 72 71
f 64 65 73 72
f 65 66 74 73
f 66 59 67 74
f 67 68 76 75
f 68 69 77 76
f 69 70 78 77
f 70 71 79 78
f 71 72 80 79
f 72 73 81 80
f 73 74 82 81
f 74 67 75 82
f 75 76 84 83
f 76 77 85 84
f 77 78 86 85
f 78 79 87 86
f 79 80 88 87
f 80 81 89 88
f 81 82 90 89
f 82 75 83 90
f 66 65 91
f 65 64 91
f 64 63 91
f 63 62 91
f 62 61 91
f 61 60 91
f 60 59 91
f 59 66 91
f 83 84 92
f 84 85 92
f 85 86 92
f 86 87 92
f 87 88 92
f 88 89 92
f 89 90 92
f 90 83 92

# engine pod - change r values for fatter/slimmer engines
o pod_L
f 93 94 102 101
f 94 95 103 102
f 95 96 104 103
f 96 97 105 104
f 97 98 106 105
f 98 99 107 106
f 99 100 108 107
f 100 93 101 108
f 101 102 110 109
f 102 103 111 110
f 103 104 112 111
f 104 105 113 112
f 105 106 114 113
f 106 107 115 114
f 107 108 116 115
f 108 101 109 116
f 109 110 118 117
f 110 111 119 118
f 111 112 120 119
f 112 113 121 120
f 113 114 122 121
f 114 115 123 122
f 115 116 124 123
f 116 109 117 124
f 117 118 126 125
f 118 119 127 126
f 119 120 128 127
f 120 121 129 128
f 121 122 130 129
f 122 123 131 130
f 123 124 132 131
f 124 117 125 132
f 100 99 133
f 99 98 133
f 98 97 133
f 97 96 133
f 96 95 133
f 95 94 133
f 94 93 133
f 93 100 133
f 125 126 134
f 126 127 134
f 127 128 134
f 128 129 134
f 129 130 134
f 130 131 134
f 131 132 134
f 132 125 134

# strut between hull and pod
o pylon_L
f 135 136 137 138
f 142 141 140 139
f 135 139 140 136
f 136 140 141 137
f 137 141 142 138
f 138 142 139 135

# engine pod - change r values for fatter/slimmer engines
o pod_R
f 143 144 152 151
f 144 145 153 152
f 145 146 154 153
f 146 147 155 154
f 147 148 156 155
f 148 149 157 156
f 149 150 158 157
f 150 143 151 158
f 151 152 160 159
f 152 153 161 160
f 153 154 162 161
f 154 155 163 162
f 155 156 164 163
f 156 157 165 164
f 157 158 166 165
f 158 151 159 166
f 159 160 168 167
f 160 161 169 168
f 161 162 170 169
f 162 163 171 170
f 163 164 172 171
f 164 165 173 172
f 165 166 174 173
f 166 159 167 174
f 167 168 176 175
f 168 169 177 176
f 169 170 178 177
f 170 171 179 178
f 171 172 180 179
f 172 173 181 180
f 173 174 182 181
f 174 167 175 182
f 150 149 183
f 149 148 183
f 148 147 183
f 147 146 183
f 146 145 183
f 145 144 183
f 144 143 183
f 143 150 183
f 175 176 184
f 176 177 184
f 177 178 184
f 178 179 184
f 179 180 184
f 180 181 184
f 181 182 184
f 182 175 184

# strut between hull and pod
o pylon_R
f 185 186 187 188
f 192 191 190 189
f 185 189 190 186
f 186 190 191 187
f 187 191 192 188
f 188 192 189 185

# vertical stabilizer - swept back; move top verts to change rake
o fin
f 193 194 195 196
f 200 199 198 197
f 193 197 198 194
f 194 198 199 195
f 195 199 200 196
f 196 200 197 193

# landing skid + two struts
o skid_L
f 201 202 203 204
f 208 207 206 205
f 201 205 206 202
f 202 206 207 203
f 203 207 208 204
f 204 208 205 201
f 209 210 211 212
f 216 215 214 213
f 209 213 214 210
f 210 214 215 211
f 211 215 216 212
f 212 216 213 209
f 217 218 219 220
f 224 223 222 221
f 217 221 222 218
f 218 222 223 219
f 219 223 224 220
f 220 224 221 217

# landing skid + two struts
o skid_R
f 225 226 227 228
f 232 231 230 229
f 225 229 230 226
f 226 230 231 227
f 227 231 232 228
f 228 232 229 225
f 233 234 235 236
f 240 239 238 237
f 233 237 238 234
f 234 238 239 235
f 235 239 240 236
f 236 240 237 233
f 241 242 243 244
f 248 247 246 245
f 241 245 246 242
f 242 246 247 243
f 243 247 248 244
f 244 248 245 241

# small sensor mast on the nose deck
o mast
f 249 250 251 252
f 256 255 254 253
f 249 253 254 250
f 250 254 255 251
f 251 255 256 252
f 252 256 253 249
f 257 258 259 260
f 264 263 262 261
f 257 261 262 258
f 258 262 263 259
f 259 263 264 260
f 260 264 261 257
